G04 #@! TF.GenerationSoftware,KiCad,Pcbnew,(6.0.2)*
G04 #@! TF.CreationDate,2022-03-10T23:04:52+00:00*
G04 #@! TF.ProjectId,ESC1,45534331-2e6b-4696-9361-645f70636258,rev?*
G04 #@! TF.SameCoordinates,Original*
G04 #@! TF.FileFunction,Copper,L2,Bot*
G04 #@! TF.FilePolarity,Positive*
%FSLAX46Y46*%
G04 Gerber Fmt 4.6, Leading zero omitted, Abs format (unit mm)*
G04 Created by KiCad (PCBNEW (6.0.2)) date 2022-03-10 23:04:52*
%MOMM*%
%LPD*%
G01*
G04 APERTURE LIST*
G04 Aperture macros list*
%AMRoundRect*
0 Rectangle with rounded corners*
0 $1 Rounding radius*
0 $2 $3 $4 $5 $6 $7 $8 $9 X,Y pos of 4 corners*
0 Add a 4 corners polygon primitive as box body*
4,1,4,$2,$3,$4,$5,$6,$7,$8,$9,$2,$3,0*
0 Add four circle primitives for the rounded corners*
1,1,$1+$1,$2,$3*
1,1,$1+$1,$4,$5*
1,1,$1+$1,$6,$7*
1,1,$1+$1,$8,$9*
0 Add four rect primitives between the rounded corners*
20,1,$1+$1,$2,$3,$4,$5,0*
20,1,$1+$1,$4,$5,$6,$7,0*
20,1,$1+$1,$6,$7,$8,$9,0*
20,1,$1+$1,$8,$9,$2,$3,0*%
G04 Aperture macros list end*
G04 #@! TA.AperFunction,ComponentPad*
%ADD10R,1.800000X1.800000*%
G04 #@! TD*
G04 #@! TA.AperFunction,ComponentPad*
%ADD11C,1.800000*%
G04 #@! TD*
G04 #@! TA.AperFunction,ComponentPad*
%ADD12R,1.905000X2.000000*%
G04 #@! TD*
G04 #@! TA.AperFunction,ComponentPad*
%ADD13O,1.905000X2.000000*%
G04 #@! TD*
G04 #@! TA.AperFunction,ComponentPad*
%ADD14C,1.600000*%
G04 #@! TD*
G04 #@! TA.AperFunction,ComponentPad*
%ADD15O,1.600000X1.600000*%
G04 #@! TD*
G04 #@! TA.AperFunction,ComponentPad*
%ADD16RoundRect,0.250000X-0.750000X0.600000X-0.750000X-0.600000X0.750000X-0.600000X0.750000X0.600000X0*%
G04 #@! TD*
G04 #@! TA.AperFunction,ComponentPad*
%ADD17O,2.000000X1.700000*%
G04 #@! TD*
G04 #@! TA.AperFunction,ComponentPad*
%ADD18R,1.050000X1.500000*%
G04 #@! TD*
G04 #@! TA.AperFunction,ComponentPad*
%ADD19O,1.050000X1.500000*%
G04 #@! TD*
G04 #@! TA.AperFunction,ComponentPad*
%ADD20R,2.200000X2.200000*%
G04 #@! TD*
G04 #@! TA.AperFunction,ComponentPad*
%ADD21O,2.200000X2.200000*%
G04 #@! TD*
G04 #@! TA.AperFunction,ComponentPad*
%ADD22RoundRect,0.250000X0.725000X-0.600000X0.725000X0.600000X-0.725000X0.600000X-0.725000X-0.600000X0*%
G04 #@! TD*
G04 #@! TA.AperFunction,ComponentPad*
%ADD23O,1.950000X1.700000*%
G04 #@! TD*
G04 #@! TA.AperFunction,ViaPad*
%ADD24C,1.000000*%
G04 #@! TD*
G04 #@! TA.AperFunction,Conductor*
%ADD25C,0.500000*%
G04 #@! TD*
G04 #@! TA.AperFunction,Conductor*
%ADD26C,2.000000*%
G04 #@! TD*
G04 #@! TA.AperFunction,Conductor*
%ADD27C,0.250000*%
G04 #@! TD*
G04 #@! TA.AperFunction,Conductor*
%ADD28C,1.000000*%
G04 #@! TD*
G04 APERTURE END LIST*
D10*
X135128000Y-25979000D03*
D11*
X135128000Y-28519000D03*
D12*
X119888000Y-53919000D03*
D13*
X117348000Y-53919000D03*
X114808000Y-53919000D03*
D12*
X140208000Y-53919000D03*
D13*
X137668000Y-53919000D03*
X135128000Y-53919000D03*
D14*
X64008000Y-22169000D03*
D15*
X48768000Y-22169000D03*
D16*
X25400000Y-30591000D03*
D17*
X25400000Y-33091000D03*
D18*
X137668000Y-39695000D03*
D19*
X136398000Y-39695000D03*
X135128000Y-39695000D03*
D12*
X84328000Y-53594000D03*
D13*
X81788000Y-53594000D03*
X79248000Y-53594000D03*
D18*
X101600000Y-39624000D03*
D19*
X100330000Y-39624000D03*
X99060000Y-39624000D03*
D12*
X69088000Y-53594000D03*
D13*
X66548000Y-53594000D03*
X64008000Y-53594000D03*
D20*
X102362000Y-49855000D03*
D21*
X98552000Y-49855000D03*
D20*
X78068818Y-49855000D03*
D21*
X81878818Y-49855000D03*
D18*
X46228000Y-39624000D03*
D19*
X47498000Y-39624000D03*
X48768000Y-39624000D03*
D22*
X145779000Y-33559000D03*
D23*
X145779000Y-31059000D03*
X145779000Y-28559000D03*
D14*
X129540000Y-39695000D03*
D15*
X129540000Y-54935000D03*
D14*
X81788000Y-22169000D03*
D15*
X66548000Y-22169000D03*
D14*
X93980000Y-39624000D03*
D15*
X93980000Y-54864000D03*
D12*
X104648000Y-53594000D03*
D13*
X102108000Y-53594000D03*
X99568000Y-53594000D03*
D18*
X66040000Y-39695000D03*
D19*
X64770000Y-39695000D03*
X63500000Y-39695000D03*
D14*
X46228000Y-22169000D03*
D15*
X30988000Y-22169000D03*
D18*
X117348000Y-39624000D03*
D19*
X118618000Y-39624000D03*
X119888000Y-39624000D03*
D18*
X81788000Y-39624000D03*
D19*
X83058000Y-39624000D03*
X84328000Y-39624000D03*
D14*
X54356000Y-39624000D03*
D15*
X54356000Y-54864000D03*
D10*
X64008000Y-25979000D03*
D11*
X64008000Y-28519000D03*
D20*
X138266818Y-50363000D03*
D21*
X134456818Y-50363000D03*
D12*
X48768000Y-53594000D03*
D13*
X46228000Y-53594000D03*
X43688000Y-53594000D03*
D14*
X58420000Y-39624000D03*
D15*
X58420000Y-54864000D03*
D20*
X117511183Y-50363000D03*
D21*
X113701183Y-50363000D03*
D14*
X117348000Y-22169000D03*
D15*
X102108000Y-22169000D03*
D10*
X117348000Y-25979000D03*
D11*
X117348000Y-28519000D03*
D14*
X99568000Y-22169000D03*
D15*
X84328000Y-22169000D03*
D14*
X125476000Y-39624000D03*
D15*
X125476000Y-54864000D03*
D10*
X99568000Y-25979000D03*
D11*
X99568000Y-28519000D03*
D22*
X27178000Y-53057000D03*
D23*
X27178000Y-50557000D03*
X27178000Y-48057000D03*
X27178000Y-45557000D03*
X27178000Y-43057000D03*
X27178000Y-40557000D03*
D14*
X135128000Y-22169000D03*
D15*
X119888000Y-22169000D03*
D14*
X89916000Y-39624000D03*
D15*
X89916000Y-54864000D03*
D20*
X42508818Y-49855000D03*
D21*
X46318818Y-49855000D03*
D10*
X46228000Y-25979000D03*
D11*
X46228000Y-28519000D03*
D20*
X67056000Y-49855000D03*
D21*
X63246000Y-49855000D03*
D10*
X81788000Y-25979000D03*
D11*
X81788000Y-28519000D03*
D24*
X129540000Y-64079000D03*
X58420000Y-64079000D03*
X54356000Y-64079000D03*
X38100000Y-64079000D03*
X89916000Y-64079000D03*
X93980000Y-64079000D03*
X74168000Y-64079000D03*
X125476000Y-64079000D03*
X109728000Y-64079000D03*
D25*
X46228000Y-39624000D02*
X46228000Y-28519000D01*
X81788000Y-39624000D02*
X81788000Y-28519000D01*
X117348000Y-39624000D02*
X117348000Y-28519000D01*
X64008000Y-28519000D02*
X66040000Y-30551000D01*
X66040000Y-30551000D02*
X66040000Y-39695000D01*
X101600000Y-30551000D02*
X101600000Y-39624000D01*
X99568000Y-28519000D02*
X101600000Y-30551000D01*
X137668000Y-39695000D02*
X137668000Y-31059000D01*
X137668000Y-31059000D02*
X135128000Y-28519000D01*
D26*
X74168000Y-64079000D02*
X89916000Y-64079000D01*
X38100000Y-64079000D02*
X54356000Y-64079000D01*
X17780000Y-57983000D02*
X23876000Y-64079000D01*
D27*
X24216282Y-30591000D02*
X24176282Y-30551000D01*
D26*
X93980000Y-64079000D02*
X109728000Y-64079000D01*
X109728000Y-64079000D02*
X125476000Y-64079000D01*
X25400000Y-30591000D02*
X24216282Y-30591000D01*
X58420000Y-64079000D02*
X74168000Y-64079000D01*
X21844000Y-30551000D02*
X17780000Y-34615000D01*
X24176282Y-30551000D02*
X21844000Y-30551000D01*
X23876000Y-64079000D02*
X38100000Y-64079000D01*
X54356000Y-64079000D02*
X58420000Y-64079000D01*
X125476000Y-64079000D02*
X129540000Y-64079000D01*
X17780000Y-34615000D02*
X17780000Y-57983000D01*
X89916000Y-64079000D02*
X93980000Y-64079000D01*
D28*
X63246000Y-52832000D02*
X64008000Y-53594000D01*
X99568000Y-50871000D02*
X98552000Y-49855000D01*
D27*
X135128000Y-51034182D02*
X134456818Y-50363000D01*
D28*
X134456818Y-53247818D02*
X135128000Y-53919000D01*
X63246000Y-49855000D02*
X63246000Y-52832000D01*
X134456818Y-50363000D02*
X134456818Y-53247818D01*
X99568000Y-53594000D02*
X99568000Y-50871000D01*
D25*
X63500000Y-42743000D02*
X69088000Y-48331000D01*
X69088000Y-48331000D02*
X69088000Y-53594000D01*
X58928000Y-39624000D02*
X63429000Y-39624000D01*
D27*
X63429000Y-39624000D02*
X63500000Y-39695000D01*
D25*
X63500000Y-39695000D02*
X63500000Y-42743000D01*
X99060000Y-39624000D02*
X99060000Y-42743000D01*
X104648000Y-48331000D02*
X104648000Y-53594000D01*
X99060000Y-42743000D02*
X104648000Y-48331000D01*
X94488000Y-39624000D02*
X99060000Y-39624000D01*
X48768000Y-53594000D02*
X48768000Y-39624000D01*
X53848000Y-39624000D02*
X48768000Y-39624000D01*
X84328000Y-39299000D02*
X84328000Y-53594000D01*
X84328000Y-39624000D02*
X89408000Y-39624000D01*
X119888000Y-39624000D02*
X119888000Y-53919000D01*
X119888000Y-39624000D02*
X124968000Y-39624000D01*
D27*
X135057000Y-39624000D02*
X135128000Y-39695000D01*
D25*
X140208000Y-48839000D02*
X140208000Y-53919000D01*
X135128000Y-43759000D02*
X140208000Y-48839000D01*
X135128000Y-39695000D02*
X135128000Y-43759000D01*
X130048000Y-39624000D02*
X135057000Y-39624000D01*
G04 #@! TA.AperFunction,Conductor*
G36*
X154390121Y-14299002D02*
G01*
X154436614Y-14352658D01*
X154448000Y-14405000D01*
X154448000Y-73113000D01*
X154427998Y-73181121D01*
X154374342Y-73227614D01*
X154322000Y-73239000D01*
X14334000Y-73239000D01*
X14265879Y-73218998D01*
X14219386Y-73165342D01*
X14208000Y-73113000D01*
X14208000Y-58077477D01*
X15776616Y-58077477D01*
X15777139Y-58081893D01*
X15787378Y-58168403D01*
X15787935Y-58174308D01*
X15794399Y-58265593D01*
X15803106Y-58306033D01*
X15805052Y-58317723D01*
X15809915Y-58358814D01*
X15811055Y-58363114D01*
X15811057Y-58363124D01*
X15833374Y-58447291D01*
X15834760Y-58453064D01*
X15854025Y-58542547D01*
X15855565Y-58546721D01*
X15868342Y-58581355D01*
X15871921Y-58592671D01*
X15882522Y-58632652D01*
X15918218Y-58716950D01*
X15920395Y-58722450D01*
X15952080Y-58808337D01*
X15971721Y-58844737D01*
X15976860Y-58855439D01*
X15992988Y-58893527D01*
X15995284Y-58897340D01*
X16040199Y-58971943D01*
X16043138Y-58977096D01*
X16086607Y-59057660D01*
X16089259Y-59061251D01*
X16089260Y-59061252D01*
X16111187Y-59090939D01*
X16117779Y-59100805D01*
X16139111Y-59136236D01*
X16189711Y-59198389D01*
X16196892Y-59207210D01*
X16200530Y-59211900D01*
X16254922Y-59285540D01*
X16258043Y-59288711D01*
X16258047Y-59288715D01*
X16283942Y-59315019D01*
X16288189Y-59319762D01*
X16288260Y-59319698D01*
X16290417Y-59322087D01*
X16292452Y-59324587D01*
X16350375Y-59382510D01*
X16351072Y-59383212D01*
X16453666Y-59487430D01*
X16457205Y-59490131D01*
X16460549Y-59493079D01*
X16460375Y-59493277D01*
X16466504Y-59498639D01*
X22440643Y-65472777D01*
X22442718Y-65474901D01*
X22526199Y-65562412D01*
X22529694Y-65565167D01*
X22529697Y-65565170D01*
X22598101Y-65619096D01*
X22602673Y-65622878D01*
X22668431Y-65679939D01*
X22668435Y-65679942D01*
X22671792Y-65682855D01*
X22675531Y-65685269D01*
X22706532Y-65705287D01*
X22716188Y-65712187D01*
X22748680Y-65737801D01*
X22752523Y-65740033D01*
X22752533Y-65740040D01*
X22827827Y-65783775D01*
X22832888Y-65786876D01*
X22906041Y-65834110D01*
X22906048Y-65834114D01*
X22909790Y-65836530D01*
X22913830Y-65838392D01*
X22913842Y-65838399D01*
X22947363Y-65853852D01*
X22957897Y-65859324D01*
X22989800Y-65877855D01*
X22989807Y-65877858D01*
X22993654Y-65880093D01*
X23063693Y-65908461D01*
X23078474Y-65914448D01*
X23083920Y-65916804D01*
X23167067Y-65955136D01*
X23171335Y-65956412D01*
X23171334Y-65956412D01*
X23206692Y-65966986D01*
X23217893Y-65970919D01*
X23252099Y-65984774D01*
X23256232Y-65986448D01*
X23320318Y-66002367D01*
X23345053Y-66008511D01*
X23350781Y-66010078D01*
X23438490Y-66036309D01*
X23442887Y-66036970D01*
X23442891Y-66036971D01*
X23479402Y-66042460D01*
X23491044Y-66044776D01*
X23531177Y-66054745D01*
X23567557Y-66058473D01*
X23622222Y-66064074D01*
X23628110Y-66064818D01*
X23671067Y-66071276D01*
X23718642Y-66078428D01*
X23760016Y-66078753D01*
X23766372Y-66079104D01*
X23766377Y-66079009D01*
X23769603Y-66079174D01*
X23772790Y-66079500D01*
X23854650Y-66079500D01*
X23855640Y-66079504D01*
X23997473Y-66080618D01*
X24001933Y-66080653D01*
X24006349Y-66080060D01*
X24010800Y-66079780D01*
X24010817Y-66080044D01*
X24018945Y-66079500D01*
X129612170Y-66079500D01*
X129822593Y-66064601D01*
X129826948Y-66063663D01*
X129826951Y-66063663D01*
X130095200Y-66005911D01*
X130095202Y-66005911D01*
X130099547Y-66004975D01*
X130365337Y-65906920D01*
X130614660Y-65772393D01*
X130842540Y-65604078D01*
X131044430Y-65405334D01*
X131047131Y-65401794D01*
X131047137Y-65401788D01*
X131213602Y-65183667D01*
X131213605Y-65183663D01*
X131216304Y-65180126D01*
X131354730Y-64932947D01*
X131456948Y-64668730D01*
X131520918Y-64392747D01*
X131545363Y-64110503D01*
X131529795Y-63827630D01*
X131474526Y-63549774D01*
X131380658Y-63282476D01*
X131378605Y-63278523D01*
X131378602Y-63278517D01*
X131252116Y-63035023D01*
X131250064Y-63031072D01*
X131247481Y-63027457D01*
X131247477Y-63027451D01*
X131167858Y-62916037D01*
X131085349Y-62800576D01*
X130889801Y-62595588D01*
X130667320Y-62420199D01*
X130557073Y-62356163D01*
X130426193Y-62280141D01*
X130426187Y-62280138D01*
X130422346Y-62277907D01*
X130159768Y-62171552D01*
X130155455Y-62170481D01*
X130155450Y-62170479D01*
X129889144Y-62104328D01*
X129889139Y-62104327D01*
X129884823Y-62103255D01*
X129880395Y-62102801D01*
X129880393Y-62102801D01*
X129804693Y-62095045D01*
X129643210Y-62078500D01*
X24756825Y-62078500D01*
X24688704Y-62058498D01*
X24667730Y-62041595D01*
X19817405Y-57191271D01*
X19783379Y-57128959D01*
X19780500Y-57102176D01*
X19780500Y-50599095D01*
X25198028Y-50599095D01*
X25223534Y-50866431D01*
X25224619Y-50870865D01*
X25224620Y-50870871D01*
X25233686Y-50907920D01*
X25287364Y-51127285D01*
X25289076Y-51131511D01*
X25289077Y-51131515D01*
X25371144Y-51334127D01*
X25388182Y-51376192D01*
X25424533Y-51438275D01*
X25481493Y-51535556D01*
X25498653Y-51604448D01*
X25476226Y-51671131D01*
X25370293Y-51823549D01*
X25362386Y-51834925D01*
X25315370Y-51937617D01*
X25293801Y-51984729D01*
X25269463Y-52037887D01*
X25213949Y-52254098D01*
X25209524Y-52308499D01*
X25204854Y-52365924D01*
X25202500Y-52394862D01*
X25202500Y-53719138D01*
X25202707Y-53721677D01*
X25202707Y-53721689D01*
X25206958Y-53773951D01*
X25213949Y-53859902D01*
X25269463Y-54076113D01*
X25271799Y-54081216D01*
X25271800Y-54081218D01*
X25287403Y-54115298D01*
X25362386Y-54279075D01*
X25365586Y-54283679D01*
X25365587Y-54283681D01*
X25479265Y-54447241D01*
X25489783Y-54462375D01*
X25647625Y-54620217D01*
X25652231Y-54623418D01*
X25652233Y-54623420D01*
X25754108Y-54694225D01*
X25830925Y-54747614D01*
X25896969Y-54777851D01*
X26028782Y-54838200D01*
X26028784Y-54838201D01*
X26033887Y-54840537D01*
X26250098Y-54896051D01*
X26314232Y-54901267D01*
X26388311Y-54907293D01*
X26388323Y-54907293D01*
X26390862Y-54907500D01*
X27965138Y-54907500D01*
X27967677Y-54907293D01*
X27967689Y-54907293D01*
X28041768Y-54901267D01*
X28105902Y-54896051D01*
X28322113Y-54840537D01*
X28327216Y-54838201D01*
X28327218Y-54838200D01*
X28459031Y-54777851D01*
X28525075Y-54747614D01*
X28601892Y-54694225D01*
X28703767Y-54623420D01*
X28703769Y-54623418D01*
X28708375Y-54620217D01*
X28866217Y-54462375D01*
X28876736Y-54447241D01*
X28990413Y-54283681D01*
X28990414Y-54283679D01*
X28993614Y-54279075D01*
X29068597Y-54115298D01*
X29084200Y-54081218D01*
X29084201Y-54081216D01*
X29086537Y-54076113D01*
X29142051Y-53859902D01*
X29149042Y-53773951D01*
X29153293Y-53721689D01*
X29153293Y-53721677D01*
X29153500Y-53719138D01*
X29153500Y-52394862D01*
X29151147Y-52365924D01*
X29146476Y-52308499D01*
X29142051Y-52254098D01*
X29086537Y-52037887D01*
X29062200Y-51984729D01*
X29040630Y-51937617D01*
X28993614Y-51834925D01*
X28985708Y-51823549D01*
X28940992Y-51759212D01*
X28882193Y-51674612D01*
X28859741Y-51607262D01*
X28878313Y-51537537D01*
X28878225Y-51537491D01*
X28878429Y-51537104D01*
X28878429Y-51537102D01*
X28988196Y-51328470D01*
X29001140Y-51303868D01*
X29001143Y-51303862D01*
X29003265Y-51299828D01*
X29026543Y-51233912D01*
X29091165Y-51050916D01*
X29091165Y-51050915D01*
X29092688Y-51046603D01*
X29099347Y-51012816D01*
X40408318Y-51012816D01*
X40419052Y-51133087D01*
X40475077Y-51328470D01*
X40569245Y-51508596D01*
X40573276Y-51513539D01*
X40573277Y-51513540D01*
X40607034Y-51554930D01*
X40697709Y-51666109D01*
X40702649Y-51670138D01*
X40838520Y-51780951D01*
X40855222Y-51794573D01*
X41035348Y-51888741D01*
X41230731Y-51944766D01*
X41262363Y-51947589D01*
X41348209Y-51955251D01*
X41348215Y-51955251D01*
X41351002Y-51955500D01*
X42211625Y-51955500D01*
X42279746Y-51975502D01*
X42326239Y-52029158D01*
X42336343Y-52099432D01*
X42306849Y-52164012D01*
X42298605Y-52172662D01*
X42239810Y-52228749D01*
X42068585Y-52445947D01*
X42029376Y-52513451D01*
X41931906Y-52681257D01*
X41931903Y-52681263D01*
X41929672Y-52685104D01*
X41928002Y-52689227D01*
X41827515Y-52937316D01*
X41827512Y-52937324D01*
X41825842Y-52941448D01*
X41759167Y-53209865D01*
X41735000Y-53445734D01*
X41735000Y-53711961D01*
X41749545Y-53917383D01*
X41750483Y-53921738D01*
X41750483Y-53921741D01*
X41801282Y-54157691D01*
X41807756Y-54187762D01*
X41903482Y-54447241D01*
X41905596Y-54451160D01*
X41905597Y-54451161D01*
X41984354Y-54597123D01*
X42034815Y-54690643D01*
X42199133Y-54913112D01*
X42202262Y-54916291D01*
X42202265Y-54916294D01*
X42246890Y-54961625D01*
X42393159Y-55110209D01*
X42396706Y-55112916D01*
X42609478Y-55275300D01*
X42609482Y-55275303D01*
X42613019Y-55278002D01*
X42635034Y-55290331D01*
X42850439Y-55410963D01*
X42850444Y-55410966D01*
X42854329Y-55413141D01*
X42858487Y-55414749D01*
X42858492Y-55414752D01*
X43108117Y-55511325D01*
X43108123Y-55511327D01*
X43112272Y-55512932D01*
X43116604Y-55513936D01*
X43116607Y-55513937D01*
X43183755Y-55529501D01*
X43381703Y-55575383D01*
X43657245Y-55599247D01*
X43661680Y-55599003D01*
X43661684Y-55599003D01*
X43764923Y-55593321D01*
X43933401Y-55584050D01*
X43937761Y-55583183D01*
X43937767Y-55583182D01*
X44070625Y-55556755D01*
X44204661Y-55530093D01*
X44465611Y-55438453D01*
X44469562Y-55436400D01*
X44469568Y-55436398D01*
X44651432Y-55341927D01*
X44711046Y-55310960D01*
X44714661Y-55308377D01*
X44714667Y-55308373D01*
X44885879Y-55186022D01*
X44952932Y-55162690D01*
X45021955Y-55179313D01*
X45035579Y-55188374D01*
X45149478Y-55275300D01*
X45149482Y-55275303D01*
X45153019Y-55278002D01*
X45175034Y-55290331D01*
X45390439Y-55410963D01*
X45390444Y-55410966D01*
X45394329Y-55413141D01*
X45398487Y-55414749D01*
X45398492Y-55414752D01*
X45648117Y-55511325D01*
X45648123Y-55511327D01*
X45652272Y-55512932D01*
X45656604Y-55513936D01*
X45656607Y-55513937D01*
X45723755Y-55529501D01*
X45921703Y-55575383D01*
X46197245Y-55599247D01*
X46201680Y-55599003D01*
X46201684Y-55599003D01*
X46304923Y-55593321D01*
X46473401Y-55584050D01*
X46477761Y-55583183D01*
X46477767Y-55583182D01*
X46610625Y-55556755D01*
X46744661Y-55530093D01*
X47005611Y-55438453D01*
X47065039Y-55407583D01*
X47092320Y-55393412D01*
X47161992Y-55379760D01*
X47230036Y-55407582D01*
X47261904Y-55433573D01*
X47442030Y-55527741D01*
X47637413Y-55583766D01*
X47669045Y-55586589D01*
X47754891Y-55594251D01*
X47754897Y-55594251D01*
X47757684Y-55594500D01*
X49778316Y-55594500D01*
X49781103Y-55594251D01*
X49781109Y-55594251D01*
X49866955Y-55586589D01*
X49898587Y-55583766D01*
X50093970Y-55527741D01*
X50234646Y-55454197D01*
X50268442Y-55436529D01*
X50268443Y-55436528D01*
X50274096Y-55433573D01*
X50323339Y-55393412D01*
X50426669Y-55309138D01*
X50431609Y-55305109D01*
X50501568Y-55219331D01*
X50556041Y-55152540D01*
X50556042Y-55152539D01*
X50560073Y-55147596D01*
X50654241Y-54967470D01*
X50697463Y-54816736D01*
X52551070Y-54816736D01*
X52551294Y-54821403D01*
X52551294Y-54821408D01*
X52555699Y-54913112D01*
X52563909Y-55084041D01*
X52616118Y-55346512D01*
X52617698Y-55350912D01*
X52617698Y-55350913D01*
X52648390Y-55436396D01*
X52706549Y-55598383D01*
X52708765Y-55602507D01*
X52794139Y-55761396D01*
X52833215Y-55834121D01*
X52836010Y-55837864D01*
X52836012Y-55837867D01*
X52990542Y-56044807D01*
X52993335Y-56048547D01*
X52996642Y-56051825D01*
X52996647Y-56051831D01*
X53165583Y-56219298D01*
X53183390Y-56236950D01*
X53399205Y-56395192D01*
X53403340Y-56397368D01*
X53403344Y-56397370D01*
X53528898Y-56463427D01*
X53636039Y-56519797D01*
X53705419Y-56544025D01*
X53884273Y-56606484D01*
X53884279Y-56606486D01*
X53888690Y-56608026D01*
X54151606Y-56657943D01*
X54278616Y-56662933D01*
X54414345Y-56668266D01*
X54414350Y-56668266D01*
X54419013Y-56668449D01*
X54514943Y-56657943D01*
X54680382Y-56639825D01*
X54680387Y-56639824D01*
X54685035Y-56639315D01*
X54800567Y-56608898D01*
X54939309Y-56572370D01*
X54943829Y-56571180D01*
X55183128Y-56468370D01*
X55185407Y-56467391D01*
X55185410Y-56467389D01*
X55189710Y-56465542D01*
X55193690Y-56463079D01*
X55193694Y-56463077D01*
X55413302Y-56327179D01*
X55413306Y-56327176D01*
X55417275Y-56324720D01*
X55440967Y-56304663D01*
X55617960Y-56154828D01*
X55617961Y-56154827D01*
X55621526Y-56151809D01*
X55732628Y-56025122D01*
X55794894Y-55954122D01*
X55794898Y-55954117D01*
X55797976Y-55950607D01*
X55824546Y-55909299D01*
X55940219Y-55729465D01*
X55940222Y-55729460D01*
X55942747Y-55725534D01*
X56052661Y-55481534D01*
X56081364Y-55379760D01*
X56124032Y-55228473D01*
X56124033Y-55228470D01*
X56125302Y-55223969D01*
X56143103Y-55084041D01*
X56158677Y-54961625D01*
X56158677Y-54961621D01*
X56159075Y-54958495D01*
X56159608Y-54938160D01*
X56160805Y-54892408D01*
X56161549Y-54864000D01*
X56159909Y-54841934D01*
X56158037Y-54816736D01*
X56615070Y-54816736D01*
X56615294Y-54821403D01*
X56615294Y-54821408D01*
X56619699Y-54913112D01*
X56627909Y-55084041D01*
X56680118Y-55346512D01*
X56681698Y-55350912D01*
X56681698Y-55350913D01*
X56712390Y-55436396D01*
X56770549Y-55598383D01*
X56772765Y-55602507D01*
X56858139Y-55761396D01*
X56897215Y-55834121D01*
X56900010Y-55837864D01*
X56900012Y-55837867D01*
X57054542Y-56044807D01*
X57057335Y-56048547D01*
X57060642Y-56051825D01*
X57060647Y-56051831D01*
X57229583Y-56219298D01*
X57247390Y-56236950D01*
X57463205Y-56395192D01*
X57467340Y-56397368D01*
X57467344Y-56397370D01*
X57592898Y-56463427D01*
X57700039Y-56519797D01*
X57769419Y-56544025D01*
X57948273Y-56606484D01*
X57948279Y-56606486D01*
X57952690Y-56608026D01*
X58215606Y-56657943D01*
X58342616Y-56662933D01*
X58478345Y-56668266D01*
X58478350Y-56668266D01*
X58483013Y-56668449D01*
X58578943Y-56657943D01*
X58744382Y-56639825D01*
X58744387Y-56639824D01*
X58749035Y-56639315D01*
X58864567Y-56608898D01*
X59003309Y-56572370D01*
X59007829Y-56571180D01*
X59247128Y-56468370D01*
X59249407Y-56467391D01*
X59249410Y-56467389D01*
X59253710Y-56465542D01*
X59257690Y-56463079D01*
X59257694Y-56463077D01*
X59477302Y-56327179D01*
X59477306Y-56327176D01*
X59481275Y-56324720D01*
X59504967Y-56304663D01*
X59681960Y-56154828D01*
X59681961Y-56154827D01*
X59685526Y-56151809D01*
X59796628Y-56025122D01*
X59858894Y-55954122D01*
X59858898Y-55954117D01*
X59861976Y-55950607D01*
X59888546Y-55909299D01*
X60004219Y-55729465D01*
X60004222Y-55729460D01*
X60006747Y-55725534D01*
X60116661Y-55481534D01*
X60145364Y-55379760D01*
X60188032Y-55228473D01*
X60188033Y-55228470D01*
X60189302Y-55223969D01*
X60207103Y-55084041D01*
X60222677Y-54961625D01*
X60222677Y-54961621D01*
X60223075Y-54958495D01*
X60223608Y-54938160D01*
X60224805Y-54892408D01*
X60225549Y-54864000D01*
X60223909Y-54841934D01*
X60206064Y-54601788D01*
X60206063Y-54601784D01*
X60205717Y-54597123D01*
X60195161Y-54550470D01*
X60147686Y-54340666D01*
X60146655Y-54336109D01*
X60049662Y-54086691D01*
X60040507Y-54070672D01*
X59919187Y-53858408D01*
X59916868Y-53854350D01*
X59751190Y-53644189D01*
X59556269Y-53460825D01*
X59336385Y-53308286D01*
X59332194Y-53306219D01*
X59100559Y-53191989D01*
X59100556Y-53191988D01*
X59096371Y-53189924D01*
X59063301Y-53179338D01*
X58845942Y-53109761D01*
X58845944Y-53109761D01*
X58841497Y-53108338D01*
X58696134Y-53084665D01*
X58581976Y-53066073D01*
X58581975Y-53066073D01*
X58577364Y-53065322D01*
X58443569Y-53063571D01*
X58314451Y-53061880D01*
X58314448Y-53061880D01*
X58309774Y-53061819D01*
X58044605Y-53097907D01*
X58040118Y-53099215D01*
X58040117Y-53099215D01*
X58008817Y-53108338D01*
X57787683Y-53172792D01*
X57783430Y-53174752D01*
X57783429Y-53174753D01*
X57731512Y-53198687D01*
X57544652Y-53284831D01*
X57540743Y-53287394D01*
X57324764Y-53428996D01*
X57324759Y-53429000D01*
X57320851Y-53431562D01*
X57121197Y-53609760D01*
X56950075Y-53815512D01*
X56947652Y-53819505D01*
X56814347Y-54039185D01*
X56811244Y-54044298D01*
X56809437Y-54048606D01*
X56809437Y-54048607D01*
X56712794Y-54279075D01*
X56707755Y-54291091D01*
X56706604Y-54295623D01*
X56706603Y-54295626D01*
X56650395Y-54516947D01*
X56641881Y-54550470D01*
X56615070Y-54816736D01*
X56158037Y-54816736D01*
X56142064Y-54601788D01*
X56142063Y-54601784D01*
X56141717Y-54597123D01*
X56131161Y-54550470D01*
X56083686Y-54340666D01*
X56082655Y-54336109D01*
X55985662Y-54086691D01*
X55976507Y-54070672D01*
X55855187Y-53858408D01*
X55852868Y-53854350D01*
X55687190Y-53644189D01*
X55492269Y-53460825D01*
X55272385Y-53308286D01*
X55268194Y-53306219D01*
X55036559Y-53191989D01*
X55036556Y-53191988D01*
X55032371Y-53189924D01*
X54999301Y-53179338D01*
X54781942Y-53109761D01*
X54781944Y-53109761D01*
X54777497Y-53108338D01*
X54632134Y-53084665D01*
X54517976Y-53066073D01*
X54517975Y-53066073D01*
X54513364Y-53065322D01*
X54379569Y-53063571D01*
X54250451Y-53061880D01*
X54250448Y-53061880D01*
X54245774Y-53061819D01*
X53980605Y-53097907D01*
X53976118Y-53099215D01*
X53976117Y-53099215D01*
X53944817Y-53108338D01*
X53723683Y-53172792D01*
X53719430Y-53174752D01*
X53719429Y-53174753D01*
X53667512Y-53198687D01*
X53480652Y-53284831D01*
X53476743Y-53287394D01*
X53260764Y-53428996D01*
X53260759Y-53429000D01*
X53256851Y-53431562D01*
X53057197Y-53609760D01*
X52886075Y-53815512D01*
X52883652Y-53819505D01*
X52750347Y-54039185D01*
X52747244Y-54044298D01*
X52745437Y-54048606D01*
X52745437Y-54048607D01*
X52648794Y-54279075D01*
X52643755Y-54291091D01*
X52642604Y-54295623D01*
X52642603Y-54295626D01*
X52586395Y-54516947D01*
X52577881Y-54550470D01*
X52551070Y-54816736D01*
X50697463Y-54816736D01*
X50710266Y-54772087D01*
X50721000Y-54651816D01*
X50721000Y-52536184D01*
X50710266Y-52415913D01*
X50654241Y-52220530D01*
X50560073Y-52040404D01*
X50536045Y-52010942D01*
X50435638Y-51887831D01*
X50431609Y-51882891D01*
X50326947Y-51797531D01*
X50279040Y-51758459D01*
X50279039Y-51758458D01*
X50274096Y-51754427D01*
X50245653Y-51739557D01*
X50177476Y-51703915D01*
X50093970Y-51660259D01*
X50094247Y-51659729D01*
X50041885Y-51618576D01*
X50018500Y-51545459D01*
X50018500Y-41000500D01*
X50038502Y-40932379D01*
X50092158Y-40885886D01*
X50144500Y-40874500D01*
X53007996Y-40874500D01*
X53076117Y-40894502D01*
X53096701Y-40911016D01*
X53180067Y-40993657D01*
X53180074Y-40993663D01*
X53183390Y-40996950D01*
X53187156Y-40999712D01*
X53187158Y-40999713D01*
X53251108Y-41046603D01*
X53399205Y-41155192D01*
X53403340Y-41157368D01*
X53403344Y-41157370D01*
X53528898Y-41223427D01*
X53636039Y-41279797D01*
X53704968Y-41303868D01*
X53884273Y-41366484D01*
X53884279Y-41366486D01*
X53888690Y-41368026D01*
X54151606Y-41417943D01*
X54278616Y-41422933D01*
X54414345Y-41428266D01*
X54414350Y-41428266D01*
X54419013Y-41428449D01*
X54514943Y-41417943D01*
X54680382Y-41399825D01*
X54680387Y-41399824D01*
X54685035Y-41399315D01*
X54740870Y-41384615D01*
X54939309Y-41332370D01*
X54943829Y-41331180D01*
X55183128Y-41228370D01*
X55185407Y-41227391D01*
X55185410Y-41227389D01*
X55189710Y-41225542D01*
X55193690Y-41223079D01*
X55193694Y-41223077D01*
X55413302Y-41087179D01*
X55413306Y-41087176D01*
X55417275Y-41084720D01*
X55516760Y-41000500D01*
X55617960Y-40914828D01*
X55617961Y-40914827D01*
X55621526Y-40911809D01*
X55649952Y-40879395D01*
X55794894Y-40714122D01*
X55794898Y-40714117D01*
X55797976Y-40710607D01*
X55824824Y-40668867D01*
X55940219Y-40489465D01*
X55940222Y-40489460D01*
X55942747Y-40485534D01*
X56052661Y-40241534D01*
X56125302Y-39983969D01*
X56143103Y-39844041D01*
X56158677Y-39721625D01*
X56158677Y-39721621D01*
X56159075Y-39718495D01*
X56161549Y-39624000D01*
X56158037Y-39576736D01*
X56615070Y-39576736D01*
X56615294Y-39581403D01*
X56615294Y-39581408D01*
X56621727Y-39715338D01*
X56627909Y-39844041D01*
X56680118Y-40106512D01*
X56770549Y-40358383D01*
X56772765Y-40362507D01*
X56877727Y-40557851D01*
X56897215Y-40594121D01*
X56900010Y-40597864D01*
X56900012Y-40597867D01*
X57054542Y-40804807D01*
X57057335Y-40808547D01*
X57060642Y-40811825D01*
X57060647Y-40811831D01*
X57182415Y-40932540D01*
X57247390Y-40996950D01*
X57251156Y-40999712D01*
X57251158Y-40999713D01*
X57315108Y-41046603D01*
X57463205Y-41155192D01*
X57467340Y-41157368D01*
X57467344Y-41157370D01*
X57592898Y-41223427D01*
X57700039Y-41279797D01*
X57768968Y-41303868D01*
X57948273Y-41366484D01*
X57948279Y-41366486D01*
X57952690Y-41368026D01*
X58215606Y-41417943D01*
X58342616Y-41422933D01*
X58478345Y-41428266D01*
X58478350Y-41428266D01*
X58483013Y-41428449D01*
X58578943Y-41417943D01*
X58744382Y-41399825D01*
X58744387Y-41399824D01*
X58749035Y-41399315D01*
X58804870Y-41384615D01*
X59003309Y-41332370D01*
X59007829Y-41331180D01*
X59247128Y-41228370D01*
X59249407Y-41227391D01*
X59249410Y-41227389D01*
X59253710Y-41225542D01*
X59257690Y-41223079D01*
X59257694Y-41223077D01*
X59477302Y-41087179D01*
X59477306Y-41087176D01*
X59481275Y-41084720D01*
X59580760Y-41000500D01*
X59681958Y-40914830D01*
X59681961Y-40914827D01*
X59685526Y-40911809D01*
X59686847Y-40910302D01*
X59748832Y-40877152D01*
X59774545Y-40874500D01*
X62123500Y-40874500D01*
X62191621Y-40894502D01*
X62238114Y-40948158D01*
X62249500Y-41000500D01*
X62249500Y-42652138D01*
X62248422Y-42668585D01*
X62245547Y-42690422D01*
X62245812Y-42696034D01*
X62249360Y-42771271D01*
X62249500Y-42777207D01*
X62249500Y-42799630D01*
X62249750Y-42802428D01*
X62251804Y-42825452D01*
X62252163Y-42830713D01*
X62256063Y-42913398D01*
X62257314Y-42918861D01*
X62257315Y-42918867D01*
X62260028Y-42930711D01*
X62262710Y-42947645D01*
X62264289Y-42965339D01*
X62265771Y-42970755D01*
X62265771Y-42970757D01*
X62286131Y-43045181D01*
X62287417Y-43050299D01*
X62305897Y-43130987D01*
X62308095Y-43136141D01*
X62308099Y-43136152D01*
X62312866Y-43147326D01*
X62318505Y-43163516D01*
X62323192Y-43180651D01*
X62358835Y-43255377D01*
X62360993Y-43260157D01*
X62393476Y-43336313D01*
X62403236Y-43351171D01*
X62411642Y-43366091D01*
X62419292Y-43382129D01*
X62422563Y-43386682D01*
X62422566Y-43386686D01*
X62467589Y-43449341D01*
X62470577Y-43453687D01*
X62516031Y-43522884D01*
X62519106Y-43526335D01*
X62534398Y-43543499D01*
X62542640Y-43553786D01*
X62549552Y-43563405D01*
X62553579Y-43567307D01*
X62625791Y-43637286D01*
X62627201Y-43638675D01*
X66527931Y-47539405D01*
X66561957Y-47601717D01*
X66556892Y-47672532D01*
X66514345Y-47729368D01*
X66447825Y-47754179D01*
X66438836Y-47754500D01*
X65898184Y-47754500D01*
X65895397Y-47754749D01*
X65895391Y-47754749D01*
X65809545Y-47762411D01*
X65777913Y-47765234D01*
X65582530Y-47821259D01*
X65481528Y-47874062D01*
X65411848Y-47910490D01*
X65402404Y-47915427D01*
X65397461Y-47919458D01*
X65397460Y-47919459D01*
X65267172Y-48025719D01*
X65244891Y-48043891D01*
X65240862Y-48048831D01*
X65121395Y-48195313D01*
X65116427Y-48201404D01*
X65022259Y-48381530D01*
X64966234Y-48576913D01*
X64955500Y-48697184D01*
X64955500Y-51012816D01*
X64966234Y-51133087D01*
X65022259Y-51328470D01*
X65116427Y-51508596D01*
X65120458Y-51513539D01*
X65120459Y-51513540D01*
X65154216Y-51554930D01*
X65244891Y-51666109D01*
X65249831Y-51670138D01*
X65249835Y-51670142D01*
X65385701Y-51780951D01*
X65425849Y-51839505D01*
X65427967Y-51910470D01*
X65391382Y-51971315D01*
X65379325Y-51981108D01*
X65299931Y-52037844D01*
X65296704Y-52040922D01*
X65296702Y-52040924D01*
X65108426Y-52220530D01*
X65099810Y-52228749D01*
X64928585Y-52445947D01*
X64889376Y-52513451D01*
X64791906Y-52681257D01*
X64791903Y-52681263D01*
X64789672Y-52685104D01*
X64788002Y-52689227D01*
X64687515Y-52937316D01*
X64687512Y-52937324D01*
X64685842Y-52941448D01*
X64619167Y-53209865D01*
X64595000Y-53445734D01*
X64595000Y-53711961D01*
X64609545Y-53917383D01*
X64610483Y-53921738D01*
X64610483Y-53921741D01*
X64661282Y-54157691D01*
X64667756Y-54187762D01*
X64763482Y-54447241D01*
X64765596Y-54451160D01*
X64765597Y-54451161D01*
X64844354Y-54597123D01*
X64894815Y-54690643D01*
X65059133Y-54913112D01*
X65062262Y-54916291D01*
X65062265Y-54916294D01*
X65106890Y-54961625D01*
X65253159Y-55110209D01*
X65256706Y-55112916D01*
X65469478Y-55275300D01*
X65469482Y-55275303D01*
X65473019Y-55278002D01*
X65495034Y-55290331D01*
X65710439Y-55410963D01*
X65710444Y-55410966D01*
X65714329Y-55413141D01*
X65718487Y-55414749D01*
X65718492Y-55414752D01*
X65968117Y-55511325D01*
X65968123Y-55511327D01*
X65972272Y-55512932D01*
X65976604Y-55513936D01*
X65976607Y-55513937D01*
X66043755Y-55529501D01*
X66241703Y-55575383D01*
X66517245Y-55599247D01*
X66521680Y-55599003D01*
X66521684Y-55599003D01*
X66624923Y-55593321D01*
X66793401Y-55584050D01*
X66797761Y-55583183D01*
X66797767Y-55583182D01*
X66930625Y-55556755D01*
X67064661Y-55530093D01*
X67325611Y-55438453D01*
X67385039Y-55407583D01*
X67412320Y-55393412D01*
X67481992Y-55379760D01*
X67550036Y-55407582D01*
X67581904Y-55433573D01*
X67762030Y-55527741D01*
X67957413Y-55583766D01*
X67989045Y-55586589D01*
X68074891Y-55594251D01*
X68074897Y-55594251D01*
X68077684Y-55594500D01*
X70098316Y-55594500D01*
X70101103Y-55594251D01*
X70101109Y-55594251D01*
X70186955Y-55586589D01*
X70218587Y-55583766D01*
X70413970Y-55527741D01*
X70554646Y-55454197D01*
X70588442Y-55436529D01*
X70588443Y-55436528D01*
X70594096Y-55433573D01*
X70643339Y-55393412D01*
X70746669Y-55309138D01*
X70751609Y-55305109D01*
X70821568Y-55219331D01*
X70876041Y-55152540D01*
X70876042Y-55152539D01*
X70880073Y-55147596D01*
X70974241Y-54967470D01*
X71030266Y-54772087D01*
X71041000Y-54651816D01*
X71041000Y-52536184D01*
X71030266Y-52415913D01*
X70974241Y-52220530D01*
X70880073Y-52040404D01*
X70856045Y-52010942D01*
X70755638Y-51887831D01*
X70751609Y-51882891D01*
X70646947Y-51797531D01*
X70599040Y-51758459D01*
X70599039Y-51758458D01*
X70594096Y-51754427D01*
X70565653Y-51739557D01*
X70497476Y-51703915D01*
X70413970Y-51660259D01*
X70414247Y-51659729D01*
X70361885Y-51618576D01*
X70338500Y-51545459D01*
X70338500Y-51012816D01*
X75968318Y-51012816D01*
X75979052Y-51133087D01*
X76035077Y-51328470D01*
X76129245Y-51508596D01*
X76133276Y-51513539D01*
X76133277Y-51513540D01*
X76167034Y-51554930D01*
X76257709Y-51666109D01*
X76262649Y-51670138D01*
X76398520Y-51780951D01*
X76415222Y-51794573D01*
X76595348Y-51888741D01*
X76790731Y-51944766D01*
X76822363Y-51947589D01*
X76908209Y-51955251D01*
X76908215Y-51955251D01*
X76911002Y-51955500D01*
X77771625Y-51955500D01*
X77839746Y-51975502D01*
X77886239Y-52029158D01*
X77896343Y-52099432D01*
X77866849Y-52164012D01*
X77858605Y-52172662D01*
X77799810Y-52228749D01*
X77628585Y-52445947D01*
X77589376Y-52513451D01*
X77491906Y-52681257D01*
X77491903Y-52681263D01*
X77489672Y-52685104D01*
X77488002Y-52689227D01*
X77387515Y-52937316D01*
X77387512Y-52937324D01*
X77385842Y-52941448D01*
X77319167Y-53209865D01*
X77295000Y-53445734D01*
X77295000Y-53711961D01*
X77309545Y-53917383D01*
X77310483Y-53921738D01*
X77310483Y-53921741D01*
X77361282Y-54157691D01*
X77367756Y-54187762D01*
X77463482Y-54447241D01*
X77465596Y-54451160D01*
X77465597Y-54451161D01*
X77544354Y-54597123D01*
X77594815Y-54690643D01*
X77759133Y-54913112D01*
X77762262Y-54916291D01*
X77762265Y-54916294D01*
X77806890Y-54961625D01*
X77953159Y-55110209D01*
X77956706Y-55112916D01*
X78169478Y-55275300D01*
X78169482Y-55275303D01*
X78173019Y-55278002D01*
X78195034Y-55290331D01*
X78410439Y-55410963D01*
X78410444Y-55410966D01*
X78414329Y-55413141D01*
X78418487Y-55414749D01*
X78418492Y-55414752D01*
X78668117Y-55511325D01*
X78668123Y-55511327D01*
X78672272Y-55512932D01*
X78676604Y-55513936D01*
X78676607Y-55513937D01*
X78743755Y-55529501D01*
X78941703Y-55575383D01*
X79217245Y-55599247D01*
X79221680Y-55599003D01*
X79221684Y-55599003D01*
X79324923Y-55593321D01*
X79493401Y-55584050D01*
X79497761Y-55583183D01*
X79497767Y-55583182D01*
X79630625Y-55556755D01*
X79764661Y-55530093D01*
X80025611Y-55438453D01*
X80029562Y-55436400D01*
X80029568Y-55436398D01*
X80211432Y-55341927D01*
X80271046Y-55310960D01*
X80274661Y-55308377D01*
X80274667Y-55308373D01*
X80445879Y-55186022D01*
X80512932Y-55162690D01*
X80581955Y-55179313D01*
X80595579Y-55188374D01*
X80709478Y-55275300D01*
X80709482Y-55275303D01*
X80713019Y-55278002D01*
X80735034Y-55290331D01*
X80950439Y-55410963D01*
X80950444Y-55410966D01*
X80954329Y-55413141D01*
X80958487Y-55414749D01*
X80958492Y-55414752D01*
X81208117Y-55511325D01*
X81208123Y-55511327D01*
X81212272Y-55512932D01*
X81216604Y-55513936D01*
X81216607Y-55513937D01*
X81283755Y-55529501D01*
X81481703Y-55575383D01*
X81757245Y-55599247D01*
X81761680Y-55599003D01*
X81761684Y-55599003D01*
X81864923Y-55593321D01*
X82033401Y-55584050D01*
X82037761Y-55583183D01*
X82037767Y-55583182D01*
X82170625Y-55556755D01*
X82304661Y-55530093D01*
X82565611Y-55438453D01*
X82625039Y-55407583D01*
X82652320Y-55393412D01*
X82721992Y-55379760D01*
X82790036Y-55407582D01*
X82821904Y-55433573D01*
X83002030Y-55527741D01*
X83197413Y-55583766D01*
X83229045Y-55586589D01*
X83314891Y-55594251D01*
X83314897Y-55594251D01*
X83317684Y-55594500D01*
X85338316Y-55594500D01*
X85341103Y-55594251D01*
X85341109Y-55594251D01*
X85426955Y-55586589D01*
X85458587Y-55583766D01*
X85653970Y-55527741D01*
X85794646Y-55454197D01*
X85828442Y-55436529D01*
X85828443Y-55436528D01*
X85834096Y-55433573D01*
X85883339Y-55393412D01*
X85986669Y-55309138D01*
X85991609Y-55305109D01*
X86061568Y-55219331D01*
X86116041Y-55152540D01*
X86116042Y-55152539D01*
X86120073Y-55147596D01*
X86214241Y-54967470D01*
X86257463Y-54816736D01*
X88111070Y-54816736D01*
X88111294Y-54821403D01*
X88111294Y-54821408D01*
X88115699Y-54913112D01*
X88123909Y-55084041D01*
X88176118Y-55346512D01*
X88177698Y-55350912D01*
X88177698Y-55350913D01*
X88208390Y-55436396D01*
X88266549Y-55598383D01*
X88268765Y-55602507D01*
X88354139Y-55761396D01*
X88393215Y-55834121D01*
X88396010Y-55837864D01*
X88396012Y-55837867D01*
X88550542Y-56044807D01*
X88553335Y-56048547D01*
X88556642Y-56051825D01*
X88556647Y-56051831D01*
X88725583Y-56219298D01*
X88743390Y-56236950D01*
X88959205Y-56395192D01*
X88963340Y-56397368D01*
X88963344Y-56397370D01*
X89088898Y-56463427D01*
X89196039Y-56519797D01*
X89265419Y-56544025D01*
X89444273Y-56606484D01*
X89444279Y-56606486D01*
X89448690Y-56608026D01*
X89711606Y-56657943D01*
X89838616Y-56662933D01*
X89974345Y-56668266D01*
X89974350Y-56668266D01*
X89979013Y-56668449D01*
X90074943Y-56657943D01*
X90240382Y-56639825D01*
X90240387Y-56639824D01*
X90245035Y-56639315D01*
X90360567Y-56608898D01*
X90499309Y-56572370D01*
X90503829Y-56571180D01*
X90743128Y-56468370D01*
X90745407Y-56467391D01*
X90745410Y-56467389D01*
X90749710Y-56465542D01*
X90753690Y-56463079D01*
X90753694Y-56463077D01*
X90973302Y-56327179D01*
X90973306Y-56327176D01*
X90977275Y-56324720D01*
X91000967Y-56304663D01*
X91177960Y-56154828D01*
X91177961Y-56154827D01*
X91181526Y-56151809D01*
X91292628Y-56025122D01*
X91354894Y-55954122D01*
X91354898Y-55954117D01*
X91357976Y-55950607D01*
X91384546Y-55909299D01*
X91500219Y-55729465D01*
X91500222Y-55729460D01*
X91502747Y-55725534D01*
X91612661Y-55481534D01*
X91641364Y-55379760D01*
X91684032Y-55228473D01*
X91684033Y-55228470D01*
X91685302Y-55223969D01*
X91703103Y-55084041D01*
X91718677Y-54961625D01*
X91718677Y-54961621D01*
X91719075Y-54958495D01*
X91719608Y-54938160D01*
X91720805Y-54892408D01*
X91721549Y-54864000D01*
X91719909Y-54841934D01*
X91718037Y-54816736D01*
X92175070Y-54816736D01*
X92175294Y-54821403D01*
X92175294Y-54821408D01*
X92179699Y-54913112D01*
X92187909Y-55084041D01*
X92240118Y-55346512D01*
X92241698Y-55350912D01*
X92241698Y-55350913D01*
X92272390Y-55436396D01*
X92330549Y-55598383D01*
X92332765Y-55602507D01*
X92418139Y-55761396D01*
X92457215Y-55834121D01*
X92460010Y-55837864D01*
X92460012Y-55837867D01*
X92614542Y-56044807D01*
X92617335Y-56048547D01*
X92620642Y-56051825D01*
X92620647Y-56051831D01*
X92789583Y-56219298D01*
X92807390Y-56236950D01*
X93023205Y-56395192D01*
X93027340Y-56397368D01*
X93027344Y-56397370D01*
X93152898Y-56463427D01*
X93260039Y-56519797D01*
X93329419Y-56544025D01*
X93508273Y-56606484D01*
X93508279Y-56606486D01*
X93512690Y-56608026D01*
X93775606Y-56657943D01*
X93902616Y-56662933D01*
X94038345Y-56668266D01*
X94038350Y-56668266D01*
X94043013Y-56668449D01*
X94138943Y-56657943D01*
X94304382Y-56639825D01*
X94304387Y-56639824D01*
X94309035Y-56639315D01*
X94424567Y-56608898D01*
X94563309Y-56572370D01*
X94567829Y-56571180D01*
X94807128Y-56468370D01*
X94809407Y-56467391D01*
X94809410Y-56467389D01*
X94813710Y-56465542D01*
X94817690Y-56463079D01*
X94817694Y-56463077D01*
X95037302Y-56327179D01*
X95037306Y-56327176D01*
X95041275Y-56324720D01*
X95064967Y-56304663D01*
X95241960Y-56154828D01*
X95241961Y-56154827D01*
X95245526Y-56151809D01*
X95356628Y-56025122D01*
X95418894Y-55954122D01*
X95418898Y-55954117D01*
X95421976Y-55950607D01*
X95448546Y-55909299D01*
X95564219Y-55729465D01*
X95564222Y-55729460D01*
X95566747Y-55725534D01*
X95676661Y-55481534D01*
X95705364Y-55379760D01*
X95748032Y-55228473D01*
X95748033Y-55228470D01*
X95749302Y-55223969D01*
X95767103Y-55084041D01*
X95782677Y-54961625D01*
X95782677Y-54961621D01*
X95783075Y-54958495D01*
X95783608Y-54938160D01*
X95784805Y-54892408D01*
X95785549Y-54864000D01*
X95783909Y-54841934D01*
X95766064Y-54601788D01*
X95766063Y-54601784D01*
X95765717Y-54597123D01*
X95755161Y-54550470D01*
X95707686Y-54340666D01*
X95706655Y-54336109D01*
X95609662Y-54086691D01*
X95600507Y-54070672D01*
X95479187Y-53858408D01*
X95476868Y-53854350D01*
X95311190Y-53644189D01*
X95116269Y-53460825D01*
X94896385Y-53308286D01*
X94892194Y-53306219D01*
X94660559Y-53191989D01*
X94660556Y-53191988D01*
X94656371Y-53189924D01*
X94623301Y-53179338D01*
X94405942Y-53109761D01*
X94405944Y-53109761D01*
X94401497Y-53108338D01*
X94256134Y-53084665D01*
X94141976Y-53066073D01*
X94141975Y-53066073D01*
X94137364Y-53065322D01*
X94003569Y-53063571D01*
X93874451Y-53061880D01*
X93874448Y-53061880D01*
X93869774Y-53061819D01*
X93604605Y-53097907D01*
X93600118Y-53099215D01*
X93600117Y-53099215D01*
X93568817Y-53108338D01*
X93347683Y-53172792D01*
X93343430Y-53174752D01*
X93343429Y-53174753D01*
X93291512Y-53198687D01*
X93104652Y-53284831D01*
X93100743Y-53287394D01*
X92884764Y-53428996D01*
X92884759Y-53429000D01*
X92880851Y-53431562D01*
X92681197Y-53609760D01*
X92510075Y-53815512D01*
X92507652Y-53819505D01*
X92374347Y-54039185D01*
X92371244Y-54044298D01*
X92369437Y-54048606D01*
X92369437Y-54048607D01*
X92272794Y-54279075D01*
X92267755Y-54291091D01*
X92266604Y-54295623D01*
X92266603Y-54295626D01*
X92210395Y-54516947D01*
X92201881Y-54550470D01*
X92175070Y-54816736D01*
X91718037Y-54816736D01*
X91702064Y-54601788D01*
X91702063Y-54601784D01*
X91701717Y-54597123D01*
X91691161Y-54550470D01*
X91643686Y-54340666D01*
X91642655Y-54336109D01*
X91545662Y-54086691D01*
X91536507Y-54070672D01*
X91415187Y-53858408D01*
X91412868Y-53854350D01*
X91247190Y-53644189D01*
X91052269Y-53460825D01*
X90832385Y-53308286D01*
X90828194Y-53306219D01*
X90596559Y-53191989D01*
X90596556Y-53191988D01*
X90592371Y-53189924D01*
X90559301Y-53179338D01*
X90341942Y-53109761D01*
X90341944Y-53109761D01*
X90337497Y-53108338D01*
X90192134Y-53084665D01*
X90077976Y-53066073D01*
X90077975Y-53066073D01*
X90073364Y-53065322D01*
X89939569Y-53063571D01*
X89810451Y-53061880D01*
X89810448Y-53061880D01*
X89805774Y-53061819D01*
X89540605Y-53097907D01*
X89536118Y-53099215D01*
X89536117Y-53099215D01*
X89504817Y-53108338D01*
X89283683Y-53172792D01*
X89279430Y-53174752D01*
X89279429Y-53174753D01*
X89227512Y-53198687D01*
X89040652Y-53284831D01*
X89036743Y-53287394D01*
X88820764Y-53428996D01*
X88820759Y-53429000D01*
X88816851Y-53431562D01*
X88617197Y-53609760D01*
X88446075Y-53815512D01*
X88443652Y-53819505D01*
X88310347Y-54039185D01*
X88307244Y-54044298D01*
X88305437Y-54048606D01*
X88305437Y-54048607D01*
X88208794Y-54279075D01*
X88203755Y-54291091D01*
X88202604Y-54295623D01*
X88202603Y-54295626D01*
X88146395Y-54516947D01*
X88137881Y-54550470D01*
X88111070Y-54816736D01*
X86257463Y-54816736D01*
X86270266Y-54772087D01*
X86281000Y-54651816D01*
X86281000Y-52536184D01*
X86270266Y-52415913D01*
X86214241Y-52220530D01*
X86120073Y-52040404D01*
X86096045Y-52010942D01*
X85995638Y-51887831D01*
X85991609Y-51882891D01*
X85886947Y-51797531D01*
X85839040Y-51758459D01*
X85839039Y-51758458D01*
X85834096Y-51754427D01*
X85805653Y-51739557D01*
X85737476Y-51703915D01*
X85653970Y-51660259D01*
X85654247Y-51659729D01*
X85601885Y-51618576D01*
X85578500Y-51545459D01*
X85578500Y-41000500D01*
X85598502Y-40932379D01*
X85652158Y-40885886D01*
X85704500Y-40874500D01*
X88567996Y-40874500D01*
X88636117Y-40894502D01*
X88656701Y-40911016D01*
X88740067Y-40993657D01*
X88740074Y-40993663D01*
X88743390Y-40996950D01*
X88747156Y-40999712D01*
X88747158Y-40999713D01*
X88811108Y-41046603D01*
X88959205Y-41155192D01*
X88963340Y-41157368D01*
X88963344Y-41157370D01*
X89088898Y-41223427D01*
X89196039Y-41279797D01*
X89264968Y-41303868D01*
X89444273Y-41366484D01*
X89444279Y-41366486D01*
X89448690Y-41368026D01*
X89711606Y-41417943D01*
X89838616Y-41422933D01*
X89974345Y-41428266D01*
X89974350Y-41428266D01*
X89979013Y-41428449D01*
X90074943Y-41417943D01*
X90240382Y-41399825D01*
X90240387Y-41399824D01*
X90245035Y-41399315D01*
X90300870Y-41384615D01*
X90499309Y-41332370D01*
X90503829Y-41331180D01*
X90743128Y-41228370D01*
X90745407Y-41227391D01*
X90745410Y-41227389D01*
X90749710Y-41225542D01*
X90753690Y-41223079D01*
X90753694Y-41223077D01*
X90973302Y-41087179D01*
X90973306Y-41087176D01*
X90977275Y-41084720D01*
X91076760Y-41000500D01*
X91177960Y-40914828D01*
X91177961Y-40914827D01*
X91181526Y-40911809D01*
X91209952Y-40879395D01*
X91354894Y-40714122D01*
X91354898Y-40714117D01*
X91357976Y-40710607D01*
X91384824Y-40668867D01*
X91500219Y-40489465D01*
X91500222Y-40489460D01*
X91502747Y-40485534D01*
X91612661Y-40241534D01*
X91685302Y-39983969D01*
X91703103Y-39844041D01*
X91718677Y-39721625D01*
X91718677Y-39721621D01*
X91719075Y-39718495D01*
X91721549Y-39624000D01*
X91718037Y-39576736D01*
X92175070Y-39576736D01*
X92175294Y-39581403D01*
X92175294Y-39581408D01*
X92181727Y-39715338D01*
X92187909Y-39844041D01*
X92240118Y-40106512D01*
X92330549Y-40358383D01*
X92332765Y-40362507D01*
X92437727Y-40557851D01*
X92457215Y-40594121D01*
X92460010Y-40597864D01*
X92460012Y-40597867D01*
X92614542Y-40804807D01*
X92617335Y-40808547D01*
X92620642Y-40811825D01*
X92620647Y-40811831D01*
X92742415Y-40932540D01*
X92807390Y-40996950D01*
X92811156Y-40999712D01*
X92811158Y-40999713D01*
X92875108Y-41046603D01*
X93023205Y-41155192D01*
X93027340Y-41157368D01*
X93027344Y-41157370D01*
X93152898Y-41223427D01*
X93260039Y-41279797D01*
X93328968Y-41303868D01*
X93508273Y-41366484D01*
X93508279Y-41366486D01*
X93512690Y-41368026D01*
X93775606Y-41417943D01*
X93902616Y-41422933D01*
X94038345Y-41428266D01*
X94038350Y-41428266D01*
X94043013Y-41428449D01*
X94138943Y-41417943D01*
X94304382Y-41399825D01*
X94304387Y-41399824D01*
X94309035Y-41399315D01*
X94364870Y-41384615D01*
X94563309Y-41332370D01*
X94567829Y-41331180D01*
X94807128Y-41228370D01*
X94809407Y-41227391D01*
X94809410Y-41227389D01*
X94813710Y-41225542D01*
X94817690Y-41223079D01*
X94817694Y-41223077D01*
X95037302Y-41087179D01*
X95037306Y-41087176D01*
X95041275Y-41084720D01*
X95140760Y-41000500D01*
X95241958Y-40914830D01*
X95241961Y-40914827D01*
X95245526Y-40911809D01*
X95246847Y-40910302D01*
X95308832Y-40877152D01*
X95334545Y-40874500D01*
X97683500Y-40874500D01*
X97751621Y-40894502D01*
X97798114Y-40948158D01*
X97809500Y-41000500D01*
X97809500Y-42652138D01*
X97808422Y-42668585D01*
X97805547Y-42690422D01*
X97805812Y-42696034D01*
X97809360Y-42771271D01*
X97809500Y-42777207D01*
X97809500Y-42799630D01*
X97809750Y-42802428D01*
X97811804Y-42825452D01*
X97812163Y-42830713D01*
X97816063Y-42913398D01*
X97817314Y-42918861D01*
X97817315Y-42918867D01*
X97820028Y-42930711D01*
X97822710Y-42947645D01*
X97824289Y-42965339D01*
X97825771Y-42970755D01*
X97825771Y-42970757D01*
X97846131Y-43045181D01*
X97847417Y-43050299D01*
X97865897Y-43130987D01*
X97868095Y-43136141D01*
X97868099Y-43136152D01*
X97872866Y-43147326D01*
X97878505Y-43163516D01*
X97883192Y-43180651D01*
X97918835Y-43255377D01*
X97920993Y-43260157D01*
X97953476Y-43336313D01*
X97963236Y-43351171D01*
X97971642Y-43366091D01*
X97979292Y-43382129D01*
X97982563Y-43386682D01*
X97982566Y-43386686D01*
X98027589Y-43449341D01*
X98030577Y-43453687D01*
X98076031Y-43522884D01*
X98079106Y-43526335D01*
X98094398Y-43543499D01*
X98102640Y-43553786D01*
X98109552Y-43563405D01*
X98113579Y-43567307D01*
X98185791Y-43637286D01*
X98187201Y-43638675D01*
X102087931Y-47539405D01*
X102121957Y-47601717D01*
X102116892Y-47672532D01*
X102074345Y-47729368D01*
X102007825Y-47754179D01*
X101998836Y-47754500D01*
X101204184Y-47754500D01*
X101201397Y-47754749D01*
X101201391Y-47754749D01*
X101115545Y-47762411D01*
X101083913Y-47765234D01*
X100888530Y-47821259D01*
X100787528Y-47874062D01*
X100717848Y-47910490D01*
X100708404Y-47915427D01*
X100703461Y-47919458D01*
X100703460Y-47919459D01*
X100573172Y-48025719D01*
X100550891Y-48043891D01*
X100546862Y-48048831D01*
X100427395Y-48195313D01*
X100422427Y-48201404D01*
X100328259Y-48381530D01*
X100272234Y-48576913D01*
X100261500Y-48697184D01*
X100261500Y-51012816D01*
X100272234Y-51133087D01*
X100328259Y-51328470D01*
X100422427Y-51508596D01*
X100426458Y-51513539D01*
X100426459Y-51513540D01*
X100460216Y-51554930D01*
X100550891Y-51666109D01*
X100555831Y-51670138D01*
X100691702Y-51780951D01*
X100708404Y-51794573D01*
X100714062Y-51797531D01*
X100815200Y-51850406D01*
X100866302Y-51899692D01*
X100882645Y-51968782D01*
X100859041Y-52035740D01*
X100843795Y-52053237D01*
X100668426Y-52220530D01*
X100659810Y-52228749D01*
X100488585Y-52445947D01*
X100449376Y-52513451D01*
X100351906Y-52681257D01*
X100351903Y-52681263D01*
X100349672Y-52685104D01*
X100348002Y-52689227D01*
X100247515Y-52937316D01*
X100247512Y-52937324D01*
X100245842Y-52941448D01*
X100179167Y-53209865D01*
X100155000Y-53445734D01*
X100155000Y-53711961D01*
X100169545Y-53917383D01*
X100170483Y-53921738D01*
X100170483Y-53921741D01*
X100221282Y-54157691D01*
X100227756Y-54187762D01*
X100323482Y-54447241D01*
X100325596Y-54451160D01*
X100325597Y-54451161D01*
X100404354Y-54597123D01*
X100454815Y-54690643D01*
X100619133Y-54913112D01*
X100622262Y-54916291D01*
X100622265Y-54916294D01*
X100666890Y-54961625D01*
X100813159Y-55110209D01*
X100816706Y-55112916D01*
X101029478Y-55275300D01*
X101029482Y-55275303D01*
X101033019Y-55278002D01*
X101055034Y-55290331D01*
X101270439Y-55410963D01*
X101270444Y-55410966D01*
X101274329Y-55413141D01*
X101278487Y-55414749D01*
X101278492Y-55414752D01*
X101528117Y-55511325D01*
X101528123Y-55511327D01*
X101532272Y-55512932D01*
X101536604Y-55513936D01*
X101536607Y-55513937D01*
X101603755Y-55529501D01*
X101801703Y-55575383D01*
X102077245Y-55599247D01*
X102081680Y-55599003D01*
X102081684Y-55599003D01*
X102184923Y-55593321D01*
X102353401Y-55584050D01*
X102357761Y-55583183D01*
X102357767Y-55583182D01*
X102490625Y-55556755D01*
X102624661Y-55530093D01*
X102885611Y-55438453D01*
X102945039Y-55407583D01*
X102972320Y-55393412D01*
X103041992Y-55379760D01*
X103110036Y-55407582D01*
X103141904Y-55433573D01*
X103322030Y-55527741D01*
X103517413Y-55583766D01*
X103549045Y-55586589D01*
X103634891Y-55594251D01*
X103634897Y-55594251D01*
X103637684Y-55594500D01*
X105658316Y-55594500D01*
X105661103Y-55594251D01*
X105661109Y-55594251D01*
X105746955Y-55586589D01*
X105778587Y-55583766D01*
X105973970Y-55527741D01*
X106114646Y-55454197D01*
X106148442Y-55436529D01*
X106148443Y-55436528D01*
X106154096Y-55433573D01*
X106203339Y-55393412D01*
X106306669Y-55309138D01*
X106311609Y-55305109D01*
X106381568Y-55219331D01*
X106436041Y-55152540D01*
X106436042Y-55152539D01*
X106440073Y-55147596D01*
X106534241Y-54967470D01*
X106590266Y-54772087D01*
X106601000Y-54651816D01*
X106601000Y-52536184D01*
X106590266Y-52415913D01*
X106534241Y-52220530D01*
X106440073Y-52040404D01*
X106416045Y-52010942D01*
X106315638Y-51887831D01*
X106311609Y-51882891D01*
X106206947Y-51797531D01*
X106159040Y-51758459D01*
X106159039Y-51758458D01*
X106154096Y-51754427D01*
X106125653Y-51739557D01*
X106057476Y-51703915D01*
X105973970Y-51660259D01*
X105974247Y-51659729D01*
X105921885Y-51618576D01*
X105898500Y-51545459D01*
X105898500Y-50340953D01*
X111595890Y-50340953D01*
X111612377Y-50626878D01*
X111613202Y-50631083D01*
X111613203Y-50631091D01*
X111642137Y-50778566D01*
X111667515Y-50907920D01*
X111668902Y-50911970D01*
X111668903Y-50911975D01*
X111754770Y-51162770D01*
X111760285Y-51178878D01*
X111762212Y-51182709D01*
X111861505Y-51380131D01*
X111888970Y-51434740D01*
X111891396Y-51438269D01*
X111891399Y-51438275D01*
X112048758Y-51667233D01*
X112051189Y-51670770D01*
X112054076Y-51673943D01*
X112054077Y-51673944D01*
X112237013Y-51874988D01*
X112243939Y-51882600D01*
X112463655Y-52066311D01*
X112467281Y-52068586D01*
X112467283Y-52068587D01*
X112484564Y-52079427D01*
X112706271Y-52218503D01*
X112710173Y-52220265D01*
X112710177Y-52220267D01*
X112963385Y-52334595D01*
X112963389Y-52334597D01*
X112967297Y-52336361D01*
X112971416Y-52337581D01*
X113237792Y-52416486D01*
X113237798Y-52416487D01*
X113241902Y-52417703D01*
X113241658Y-52418528D01*
X113300201Y-52450941D01*
X113333862Y-52513451D01*
X113328383Y-52584235D01*
X113309537Y-52617520D01*
X113188585Y-52770947D01*
X113186348Y-52774799D01*
X113051906Y-53006257D01*
X113051903Y-53006263D01*
X113049672Y-53010104D01*
X113048002Y-53014227D01*
X112947515Y-53262316D01*
X112947512Y-53262324D01*
X112945842Y-53266448D01*
X112879167Y-53534865D01*
X112855000Y-53770734D01*
X112855000Y-54036961D01*
X112869545Y-54242383D01*
X112870483Y-54246738D01*
X112870483Y-54246741D01*
X112915916Y-54457767D01*
X112927756Y-54512762D01*
X112929300Y-54516947D01*
X113021222Y-54766114D01*
X113023482Y-54772241D01*
X113025596Y-54776160D01*
X113025597Y-54776161D01*
X113132353Y-54974014D01*
X113154815Y-55015643D01*
X113319133Y-55238112D01*
X113322262Y-55241291D01*
X113322265Y-55241294D01*
X113370538Y-55290331D01*
X113513159Y-55435209D01*
X113516706Y-55437916D01*
X113729478Y-55600300D01*
X113729482Y-55600303D01*
X113733019Y-55603002D01*
X113736903Y-55605177D01*
X113970439Y-55735963D01*
X113970444Y-55735966D01*
X113974329Y-55738141D01*
X113978487Y-55739749D01*
X113978492Y-55739752D01*
X114228117Y-55836325D01*
X114228123Y-55836327D01*
X114232272Y-55837932D01*
X114236604Y-55838936D01*
X114236607Y-55838937D01*
X114303755Y-55854501D01*
X114501703Y-55900383D01*
X114777245Y-55924247D01*
X114781680Y-55924003D01*
X114781684Y-55924003D01*
X114884923Y-55918321D01*
X115053401Y-55909050D01*
X115057761Y-55908183D01*
X115057767Y-55908182D01*
X115190625Y-55881755D01*
X115324661Y-55855093D01*
X115585611Y-55763453D01*
X115589562Y-55761400D01*
X115589568Y-55761398D01*
X115775182Y-55664979D01*
X115831046Y-55635960D01*
X115834661Y-55633377D01*
X115834667Y-55633373D01*
X115979192Y-55530093D01*
X116005880Y-55511022D01*
X116072932Y-55487690D01*
X116141955Y-55504313D01*
X116155579Y-55513374D01*
X116269478Y-55600300D01*
X116269482Y-55600303D01*
X116273019Y-55603002D01*
X116276903Y-55605177D01*
X116510439Y-55735963D01*
X116510444Y-55735966D01*
X116514329Y-55738141D01*
X116518487Y-55739749D01*
X116518492Y-55739752D01*
X116768117Y-55836325D01*
X116768123Y-55836327D01*
X116772272Y-55837932D01*
X116776604Y-55838936D01*
X116776607Y-55838937D01*
X116843755Y-55854501D01*
X117041703Y-55900383D01*
X117317245Y-55924247D01*
X117321680Y-55924003D01*
X117321684Y-55924003D01*
X117424923Y-55918321D01*
X117593401Y-55909050D01*
X117597761Y-55908183D01*
X117597767Y-55908182D01*
X117730625Y-55881755D01*
X117864661Y-55855093D01*
X118125611Y-55763453D01*
X118206812Y-55721273D01*
X118212320Y-55718412D01*
X118281992Y-55704760D01*
X118350036Y-55732582D01*
X118381904Y-55758573D01*
X118562030Y-55852741D01*
X118757413Y-55908766D01*
X118789045Y-55911589D01*
X118874891Y-55919251D01*
X118874897Y-55919251D01*
X118877684Y-55919500D01*
X120898316Y-55919500D01*
X120901103Y-55919251D01*
X120901109Y-55919251D01*
X120986955Y-55911589D01*
X121018587Y-55908766D01*
X121213970Y-55852741D01*
X121354162Y-55779450D01*
X121388442Y-55761529D01*
X121388443Y-55761528D01*
X121394096Y-55758573D01*
X121439831Y-55721273D01*
X121546669Y-55634138D01*
X121551609Y-55630109D01*
X121589882Y-55583182D01*
X121676041Y-55477540D01*
X121676042Y-55477539D01*
X121680073Y-55472596D01*
X121774241Y-55292470D01*
X121830266Y-55097087D01*
X121836019Y-55032625D01*
X121840751Y-54979609D01*
X121840751Y-54979603D01*
X121841000Y-54976816D01*
X121841000Y-54816736D01*
X123671070Y-54816736D01*
X123671294Y-54821403D01*
X123671294Y-54821408D01*
X123675699Y-54913112D01*
X123683909Y-55084041D01*
X123736118Y-55346512D01*
X123737698Y-55350912D01*
X123737698Y-55350913D01*
X123768390Y-55436396D01*
X123826549Y-55598383D01*
X123828765Y-55602507D01*
X123914139Y-55761396D01*
X123953215Y-55834121D01*
X123956010Y-55837864D01*
X123956012Y-55837867D01*
X124110542Y-56044807D01*
X124113335Y-56048547D01*
X124116642Y-56051825D01*
X124116647Y-56051831D01*
X124285583Y-56219298D01*
X124303390Y-56236950D01*
X124519205Y-56395192D01*
X124523340Y-56397368D01*
X124523344Y-56397370D01*
X124648898Y-56463427D01*
X124756039Y-56519797D01*
X124825419Y-56544025D01*
X125004273Y-56606484D01*
X125004279Y-56606486D01*
X125008690Y-56608026D01*
X125271606Y-56657943D01*
X125398616Y-56662933D01*
X125534345Y-56668266D01*
X125534350Y-56668266D01*
X125539013Y-56668449D01*
X125634943Y-56657943D01*
X125800382Y-56639825D01*
X125800387Y-56639824D01*
X125805035Y-56639315D01*
X125920567Y-56608898D01*
X126059309Y-56572370D01*
X126063829Y-56571180D01*
X126303128Y-56468370D01*
X126305407Y-56467391D01*
X126305410Y-56467389D01*
X126309710Y-56465542D01*
X126313690Y-56463079D01*
X126313694Y-56463077D01*
X126533302Y-56327179D01*
X126533306Y-56327176D01*
X126537275Y-56324720D01*
X126560967Y-56304663D01*
X126737960Y-56154828D01*
X126737961Y-56154827D01*
X126741526Y-56151809D01*
X126852628Y-56025122D01*
X126914894Y-55954122D01*
X126914898Y-55954117D01*
X126917976Y-55950607D01*
X126944546Y-55909299D01*
X127060219Y-55729465D01*
X127060222Y-55729460D01*
X127062747Y-55725534D01*
X127172661Y-55481534D01*
X127201364Y-55379760D01*
X127244032Y-55228473D01*
X127244033Y-55228470D01*
X127245302Y-55223969D01*
X127263103Y-55084041D01*
X127278677Y-54961625D01*
X127278677Y-54961621D01*
X127279075Y-54958495D01*
X127279608Y-54938160D01*
X127280805Y-54892408D01*
X127280927Y-54887736D01*
X127735070Y-54887736D01*
X127735294Y-54892403D01*
X127735294Y-54892408D01*
X127741386Y-55019225D01*
X127747909Y-55155041D01*
X127800118Y-55417512D01*
X127801698Y-55421912D01*
X127801698Y-55421913D01*
X127821670Y-55477540D01*
X127890549Y-55669383D01*
X127892765Y-55673507D01*
X128014876Y-55900767D01*
X128017215Y-55905121D01*
X128020010Y-55908864D01*
X128020012Y-55908867D01*
X128126769Y-56051831D01*
X128177335Y-56119547D01*
X128180642Y-56122825D01*
X128180647Y-56122831D01*
X128364074Y-56304663D01*
X128367390Y-56307950D01*
X128371156Y-56310712D01*
X128371158Y-56310713D01*
X128490447Y-56398179D01*
X128583205Y-56466192D01*
X128587340Y-56468368D01*
X128587344Y-56468370D01*
X128716918Y-56536542D01*
X128820039Y-56590797D01*
X128824458Y-56592340D01*
X129068273Y-56677484D01*
X129068279Y-56677486D01*
X129072690Y-56679026D01*
X129335606Y-56728943D01*
X129462616Y-56733933D01*
X129598345Y-56739266D01*
X129598350Y-56739266D01*
X129603013Y-56739449D01*
X129698943Y-56728943D01*
X129864382Y-56710825D01*
X129864387Y-56710824D01*
X129869035Y-56710315D01*
X129984567Y-56679898D01*
X130123309Y-56643370D01*
X130127829Y-56642180D01*
X130252501Y-56588617D01*
X130369407Y-56538391D01*
X130369410Y-56538389D01*
X130373710Y-56536542D01*
X130377690Y-56534079D01*
X130377694Y-56534077D01*
X130597302Y-56398179D01*
X130597306Y-56398176D01*
X130601275Y-56395720D01*
X130688709Y-56321702D01*
X130801960Y-56225828D01*
X130801961Y-56225827D01*
X130805526Y-56222809D01*
X130899365Y-56115807D01*
X130978894Y-56025122D01*
X130978898Y-56025117D01*
X130981976Y-56021607D01*
X131025384Y-55954122D01*
X131124219Y-55800465D01*
X131124222Y-55800460D01*
X131126747Y-55796534D01*
X131236661Y-55552534D01*
X131259206Y-55472596D01*
X131308032Y-55299473D01*
X131308033Y-55299470D01*
X131309302Y-55294969D01*
X131318334Y-55223969D01*
X131342677Y-55032625D01*
X131342677Y-55032621D01*
X131343075Y-55029495D01*
X131345549Y-54935000D01*
X131344159Y-54916294D01*
X131326064Y-54672788D01*
X131326063Y-54672784D01*
X131325717Y-54668123D01*
X131315161Y-54621470D01*
X131280059Y-54466346D01*
X131266655Y-54407109D01*
X131218657Y-54283681D01*
X131171355Y-54162044D01*
X131171354Y-54162042D01*
X131169662Y-54157691D01*
X131036868Y-53925350D01*
X130871190Y-53715189D01*
X130676269Y-53531825D01*
X130456385Y-53379286D01*
X130452194Y-53377219D01*
X130220559Y-53262989D01*
X130220556Y-53262988D01*
X130216371Y-53260924D01*
X129961497Y-53179338D01*
X129816134Y-53155665D01*
X129701976Y-53137073D01*
X129701975Y-53137073D01*
X129697364Y-53136322D01*
X129563569Y-53134571D01*
X129434451Y-53132880D01*
X129434448Y-53132880D01*
X129429774Y-53132819D01*
X129164605Y-53168907D01*
X129160118Y-53170215D01*
X129160117Y-53170215D01*
X129128817Y-53179338D01*
X128907683Y-53243792D01*
X128903430Y-53245752D01*
X128903429Y-53245753D01*
X128858538Y-53266448D01*
X128664652Y-53355831D01*
X128660743Y-53358394D01*
X128444764Y-53499996D01*
X128444759Y-53500000D01*
X128440851Y-53502562D01*
X128399691Y-53539299D01*
X128285757Y-53640989D01*
X128241197Y-53680760D01*
X128070075Y-53886512D01*
X128067652Y-53890505D01*
X127945962Y-54091044D01*
X127931244Y-54115298D01*
X127929437Y-54119606D01*
X127929437Y-54119607D01*
X127857528Y-54291091D01*
X127827755Y-54362091D01*
X127826604Y-54366623D01*
X127826603Y-54366626D01*
X127763033Y-54616933D01*
X127761881Y-54621470D01*
X127761412Y-54626126D01*
X127761412Y-54626127D01*
X127758825Y-54651816D01*
X127735070Y-54887736D01*
X127280927Y-54887736D01*
X127281549Y-54864000D01*
X127279909Y-54841934D01*
X127262064Y-54601788D01*
X127262063Y-54601784D01*
X127261717Y-54597123D01*
X127251161Y-54550470D01*
X127203686Y-54340666D01*
X127202655Y-54336109D01*
X127105662Y-54086691D01*
X127096507Y-54070672D01*
X126975187Y-53858408D01*
X126972868Y-53854350D01*
X126807190Y-53644189D01*
X126612269Y-53460825D01*
X126392385Y-53308286D01*
X126388194Y-53306219D01*
X126156559Y-53191989D01*
X126156556Y-53191988D01*
X126152371Y-53189924D01*
X126119301Y-53179338D01*
X125901942Y-53109761D01*
X125901944Y-53109761D01*
X125897497Y-53108338D01*
X125752134Y-53084665D01*
X125637976Y-53066073D01*
X125637975Y-53066073D01*
X125633364Y-53065322D01*
X125499569Y-53063571D01*
X125370451Y-53061880D01*
X125370448Y-53061880D01*
X125365774Y-53061819D01*
X125100605Y-53097907D01*
X125096118Y-53099215D01*
X125096117Y-53099215D01*
X125064817Y-53108338D01*
X124843683Y-53172792D01*
X124839430Y-53174752D01*
X124839429Y-53174753D01*
X124787512Y-53198687D01*
X124600652Y-53284831D01*
X124596743Y-53287394D01*
X124380764Y-53428996D01*
X124380759Y-53429000D01*
X124376851Y-53431562D01*
X124177197Y-53609760D01*
X124006075Y-53815512D01*
X124003652Y-53819505D01*
X123870347Y-54039185D01*
X123867244Y-54044298D01*
X123865437Y-54048606D01*
X123865437Y-54048607D01*
X123768794Y-54279075D01*
X123763755Y-54291091D01*
X123762604Y-54295623D01*
X123762603Y-54295626D01*
X123706395Y-54516947D01*
X123697881Y-54550470D01*
X123671070Y-54816736D01*
X121841000Y-54816736D01*
X121841000Y-52861184D01*
X121830266Y-52740913D01*
X121774241Y-52545530D01*
X121680073Y-52365404D01*
X121594986Y-52261076D01*
X121555638Y-52212831D01*
X121551609Y-52207891D01*
X121394096Y-52079427D01*
X121216601Y-51986634D01*
X121213970Y-51985259D01*
X121214247Y-51984729D01*
X121161885Y-51943576D01*
X121138500Y-51870459D01*
X121138500Y-41000500D01*
X121158502Y-40932379D01*
X121212158Y-40885886D01*
X121264500Y-40874500D01*
X124127996Y-40874500D01*
X124196117Y-40894502D01*
X124216701Y-40911016D01*
X124300067Y-40993657D01*
X124300074Y-40993663D01*
X124303390Y-40996950D01*
X124307156Y-40999712D01*
X124307158Y-40999713D01*
X124371108Y-41046603D01*
X124519205Y-41155192D01*
X124523340Y-41157368D01*
X124523344Y-41157370D01*
X124648898Y-41223427D01*
X124756039Y-41279797D01*
X124824968Y-41303868D01*
X125004273Y-41366484D01*
X125004279Y-41366486D01*
X125008690Y-41368026D01*
X125271606Y-41417943D01*
X125398616Y-41422933D01*
X125534345Y-41428266D01*
X125534350Y-41428266D01*
X125539013Y-41428449D01*
X125634943Y-41417943D01*
X125800382Y-41399825D01*
X125800387Y-41399824D01*
X125805035Y-41399315D01*
X125860870Y-41384615D01*
X126059309Y-41332370D01*
X126063829Y-41331180D01*
X126303128Y-41228370D01*
X126305407Y-41227391D01*
X126305410Y-41227389D01*
X126309710Y-41225542D01*
X126313690Y-41223079D01*
X126313694Y-41223077D01*
X126533302Y-41087179D01*
X126533306Y-41087176D01*
X126537275Y-41084720D01*
X126636760Y-41000500D01*
X126737960Y-40914828D01*
X126737961Y-40914827D01*
X126741526Y-40911809D01*
X126769952Y-40879395D01*
X126914894Y-40714122D01*
X126914898Y-40714117D01*
X126917976Y-40710607D01*
X126944824Y-40668867D01*
X127060219Y-40489465D01*
X127060222Y-40489460D01*
X127062747Y-40485534D01*
X127172661Y-40241534D01*
X127245302Y-39983969D01*
X127263103Y-39844041D01*
X127278677Y-39721625D01*
X127278677Y-39721621D01*
X127279075Y-39718495D01*
X127280928Y-39647736D01*
X127735070Y-39647736D01*
X127735294Y-39652403D01*
X127735294Y-39652408D01*
X127738619Y-39721625D01*
X127747909Y-39915041D01*
X127800118Y-40177512D01*
X127801698Y-40181912D01*
X127801698Y-40181913D01*
X127823104Y-40241534D01*
X127890549Y-40429383D01*
X127892765Y-40433507D01*
X127997727Y-40628851D01*
X128017215Y-40665121D01*
X128020010Y-40668864D01*
X128020012Y-40668867D01*
X128167541Y-40866431D01*
X128177335Y-40879547D01*
X128180642Y-40882825D01*
X128180647Y-40882831D01*
X128364074Y-41064663D01*
X128367390Y-41067950D01*
X128371156Y-41070712D01*
X128371158Y-41070713D01*
X128490447Y-41158179D01*
X128583205Y-41226192D01*
X128587340Y-41228368D01*
X128587344Y-41228370D01*
X128714973Y-41295519D01*
X128820039Y-41350797D01*
X128889419Y-41375025D01*
X129068273Y-41437484D01*
X129068279Y-41437486D01*
X129072690Y-41439026D01*
X129335606Y-41488943D01*
X129462616Y-41493933D01*
X129598345Y-41499266D01*
X129598350Y-41499266D01*
X129603013Y-41499449D01*
X129698943Y-41488943D01*
X129864382Y-41470825D01*
X129864387Y-41470824D01*
X129869035Y-41470315D01*
X129924870Y-41455615D01*
X130123309Y-41403370D01*
X130127829Y-41402180D01*
X130252501Y-41348617D01*
X130369407Y-41298391D01*
X130369410Y-41298389D01*
X130373710Y-41296542D01*
X130377690Y-41294079D01*
X130377694Y-41294077D01*
X130597302Y-41158179D01*
X130597306Y-41158176D01*
X130601275Y-41155720D01*
X130634864Y-41127285D01*
X130801960Y-40985828D01*
X130801961Y-40985827D01*
X130805526Y-40982809D01*
X130862869Y-40917422D01*
X130922823Y-40879395D01*
X130957601Y-40874500D01*
X133751500Y-40874500D01*
X133819621Y-40894502D01*
X133866114Y-40948158D01*
X133877500Y-41000500D01*
X133877500Y-43668138D01*
X133876422Y-43684585D01*
X133873547Y-43706422D01*
X133873812Y-43712034D01*
X133877360Y-43787271D01*
X133877500Y-43793207D01*
X133877500Y-43815630D01*
X133877750Y-43818428D01*
X133879804Y-43841452D01*
X133880163Y-43846713D01*
X133884063Y-43929398D01*
X133885314Y-43934861D01*
X133885315Y-43934867D01*
X133888028Y-43946711D01*
X133890710Y-43963645D01*
X133892289Y-43981339D01*
X133893771Y-43986755D01*
X133893771Y-43986757D01*
X133914131Y-44061181D01*
X133915417Y-44066299D01*
X133932645Y-44141521D01*
X133933897Y-44146987D01*
X133936095Y-44152141D01*
X133936099Y-44152152D01*
X133940866Y-44163326D01*
X133946505Y-44179516D01*
X133951192Y-44196651D01*
X133986835Y-44271377D01*
X133988993Y-44276157D01*
X134021476Y-44352313D01*
X134031236Y-44367171D01*
X134039642Y-44382091D01*
X134047292Y-44398129D01*
X134050563Y-44402682D01*
X134050566Y-44402686D01*
X134095589Y-44465341D01*
X134098577Y-44469687D01*
X134144031Y-44538884D01*
X134147106Y-44542335D01*
X134162398Y-44559499D01*
X134170640Y-44569786D01*
X134177552Y-44579405D01*
X134181579Y-44583307D01*
X134253791Y-44653286D01*
X134255201Y-44654675D01*
X137647931Y-48047405D01*
X137681957Y-48109717D01*
X137676892Y-48180532D01*
X137634345Y-48237368D01*
X137567825Y-48262179D01*
X137558836Y-48262500D01*
X137109002Y-48262500D01*
X137106215Y-48262749D01*
X137106209Y-48262749D01*
X137020363Y-48270411D01*
X136988731Y-48273234D01*
X136793348Y-48329259D01*
X136667251Y-48395181D01*
X136645090Y-48406767D01*
X136613222Y-48423427D01*
X136608279Y-48427458D01*
X136608278Y-48427459D01*
X136520040Y-48499424D01*
X136455709Y-48551891D01*
X136451680Y-48556831D01*
X136364983Y-48663133D01*
X136327245Y-48709404D01*
X136233077Y-48889530D01*
X136177052Y-49084913D01*
X136166318Y-49205184D01*
X136166318Y-51520816D01*
X136166567Y-51523603D01*
X136166567Y-51523609D01*
X136174229Y-51609455D01*
X136177052Y-51641087D01*
X136233077Y-51836470D01*
X136327245Y-52016596D01*
X136331280Y-52021543D01*
X136331281Y-52021545D01*
X136454906Y-52173126D01*
X136482460Y-52238557D01*
X136470264Y-52308499D01*
X136430523Y-52355274D01*
X136423565Y-52360247D01*
X136419931Y-52362844D01*
X136416704Y-52365922D01*
X136416702Y-52365924D01*
X136228426Y-52545530D01*
X136219810Y-52553749D01*
X136048585Y-52770947D01*
X136046348Y-52774799D01*
X135911906Y-53006257D01*
X135911903Y-53006263D01*
X135909672Y-53010104D01*
X135908002Y-53014227D01*
X135807515Y-53262316D01*
X135807512Y-53262324D01*
X135805842Y-53266448D01*
X135739167Y-53534865D01*
X135715000Y-53770734D01*
X135715000Y-54036961D01*
X135729545Y-54242383D01*
X135730483Y-54246738D01*
X135730483Y-54246741D01*
X135775916Y-54457767D01*
X135787756Y-54512762D01*
X135789300Y-54516947D01*
X135881222Y-54766114D01*
X135883482Y-54772241D01*
X135885596Y-54776160D01*
X135885597Y-54776161D01*
X135992353Y-54974014D01*
X136014815Y-55015643D01*
X136179133Y-55238112D01*
X136182262Y-55241291D01*
X136182265Y-55241294D01*
X136230538Y-55290331D01*
X136373159Y-55435209D01*
X136376706Y-55437916D01*
X136589478Y-55600300D01*
X136589482Y-55600303D01*
X136593019Y-55603002D01*
X136596903Y-55605177D01*
X136830439Y-55735963D01*
X136830444Y-55735966D01*
X136834329Y-55738141D01*
X136838487Y-55739749D01*
X136838492Y-55739752D01*
X137088117Y-55836325D01*
X137088123Y-55836327D01*
X137092272Y-55837932D01*
X137096604Y-55838936D01*
X137096607Y-55838937D01*
X137163755Y-55854501D01*
X137361703Y-55900383D01*
X137637245Y-55924247D01*
X137641680Y-55924003D01*
X137641684Y-55924003D01*
X137744923Y-55918321D01*
X137913401Y-55909050D01*
X137917761Y-55908183D01*
X137917767Y-55908182D01*
X138050625Y-55881755D01*
X138184661Y-55855093D01*
X138445611Y-55763453D01*
X138526812Y-55721273D01*
X138532320Y-55718412D01*
X138601992Y-55704760D01*
X138670036Y-55732582D01*
X138701904Y-55758573D01*
X138882030Y-55852741D01*
X139077413Y-55908766D01*
X139109045Y-55911589D01*
X139194891Y-55919251D01*
X139194897Y-55919251D01*
X139197684Y-55919500D01*
X141218316Y-55919500D01*
X141221103Y-55919251D01*
X141221109Y-55919251D01*
X141306955Y-55911589D01*
X141338587Y-55908766D01*
X141533970Y-55852741D01*
X141674162Y-55779450D01*
X141708442Y-55761529D01*
X141708443Y-55761528D01*
X141714096Y-55758573D01*
X141759831Y-55721273D01*
X141866669Y-55634138D01*
X141871609Y-55630109D01*
X141909882Y-55583182D01*
X141996041Y-55477540D01*
X141996042Y-55477539D01*
X142000073Y-55472596D01*
X142094241Y-55292470D01*
X142150266Y-55097087D01*
X142156019Y-55032625D01*
X142160751Y-54979609D01*
X142160751Y-54979603D01*
X142161000Y-54976816D01*
X142161000Y-52861184D01*
X142150266Y-52740913D01*
X142094241Y-52545530D01*
X142000073Y-52365404D01*
X141914986Y-52261076D01*
X141875638Y-52212831D01*
X141871609Y-52207891D01*
X141714096Y-52079427D01*
X141536601Y-51986634D01*
X141533970Y-51985259D01*
X141534247Y-51984729D01*
X141481885Y-51943576D01*
X141458500Y-51870459D01*
X141458500Y-48929862D01*
X141459578Y-48913415D01*
X141461720Y-48897147D01*
X141461720Y-48897145D01*
X141462453Y-48891578D01*
X141458640Y-48810729D01*
X141458500Y-48804793D01*
X141458500Y-48782370D01*
X141456196Y-48756548D01*
X141455837Y-48751287D01*
X141454128Y-48715058D01*
X141451937Y-48668602D01*
X141450686Y-48663139D01*
X141450685Y-48663133D01*
X141447972Y-48651289D01*
X141445290Y-48634355D01*
X141445271Y-48634146D01*
X141443711Y-48616661D01*
X141432837Y-48576913D01*
X141421869Y-48536819D01*
X141420583Y-48531701D01*
X141403355Y-48456479D01*
X141403355Y-48456478D01*
X141402103Y-48451013D01*
X141399905Y-48445859D01*
X141399901Y-48445848D01*
X141395134Y-48434674D01*
X141389495Y-48418483D01*
X141386290Y-48406767D01*
X141384808Y-48401349D01*
X141349165Y-48326623D01*
X141347007Y-48321843D01*
X141336328Y-48296807D01*
X141314524Y-48245687D01*
X141304764Y-48230829D01*
X141296358Y-48215909D01*
X141288708Y-48199871D01*
X141285433Y-48195313D01*
X141240402Y-48132646D01*
X141237413Y-48128297D01*
X141234552Y-48123941D01*
X141191970Y-48059116D01*
X141188896Y-48055666D01*
X141188890Y-48055658D01*
X141173596Y-48038492D01*
X141165352Y-48028203D01*
X141158448Y-48018595D01*
X141082209Y-47944714D01*
X141080799Y-47943325D01*
X136415405Y-43277931D01*
X136381379Y-43215619D01*
X136378500Y-43188836D01*
X136378500Y-41570229D01*
X136398502Y-41502108D01*
X136452158Y-41455615D01*
X136490017Y-41445064D01*
X136695268Y-41421316D01*
X136772841Y-41399365D01*
X136841876Y-41399486D01*
X136851271Y-41402180D01*
X136964913Y-41434766D01*
X136995367Y-41437484D01*
X137082391Y-41445251D01*
X137082397Y-41445251D01*
X137085184Y-41445500D01*
X138250816Y-41445500D01*
X138253603Y-41445251D01*
X138253609Y-41445251D01*
X138340633Y-41437484D01*
X138371087Y-41434766D01*
X138566470Y-41378741D01*
X138746596Y-41284573D01*
X138818179Y-41226192D01*
X138899169Y-41160138D01*
X138904109Y-41156109D01*
X138927617Y-41127285D01*
X139028541Y-41003540D01*
X139028542Y-41003539D01*
X139032573Y-40998596D01*
X139126741Y-40818470D01*
X139182766Y-40623087D01*
X139189636Y-40546114D01*
X139193251Y-40505609D01*
X139193251Y-40505603D01*
X139193500Y-40502816D01*
X139193500Y-38887184D01*
X139192524Y-38876242D01*
X139183299Y-38772886D01*
X139182766Y-38766913D01*
X139126741Y-38571530D01*
X139032573Y-38391404D01*
X138974667Y-38320404D01*
X138946857Y-38286305D01*
X138919303Y-38220874D01*
X138918500Y-38206670D01*
X138918500Y-31149854D01*
X138919578Y-31133408D01*
X138921720Y-31117137D01*
X138922452Y-31111577D01*
X138921958Y-31101095D01*
X143799028Y-31101095D01*
X143824534Y-31368431D01*
X143825619Y-31372865D01*
X143825620Y-31372871D01*
X143866533Y-31540069D01*
X143888364Y-31629285D01*
X143989182Y-31878192D01*
X144039513Y-31964150D01*
X144082493Y-32037556D01*
X144099653Y-32106448D01*
X144077226Y-32173131D01*
X143963386Y-32336925D01*
X143870463Y-32539887D01*
X143814949Y-32756098D01*
X143803500Y-32896862D01*
X143803500Y-34221138D01*
X143803707Y-34223677D01*
X143803707Y-34223689D01*
X143807849Y-34274610D01*
X143814949Y-34361902D01*
X143870463Y-34578113D01*
X143872799Y-34583216D01*
X143872800Y-34583218D01*
X143878058Y-34594702D01*
X143963386Y-34781075D01*
X144090783Y-34964375D01*
X144248625Y-35122217D01*
X144253231Y-35125418D01*
X144253233Y-35125420D01*
X144427319Y-35246413D01*
X144431925Y-35249614D01*
X144558085Y-35307374D01*
X144629782Y-35340200D01*
X144629784Y-35340201D01*
X144634887Y-35342537D01*
X144851098Y-35398051D01*
X144915232Y-35403267D01*
X144989311Y-35409293D01*
X144989323Y-35409293D01*
X144991862Y-35409500D01*
X146566138Y-35409500D01*
X146568677Y-35409293D01*
X146568689Y-35409293D01*
X146642768Y-35403267D01*
X146706902Y-35398051D01*
X146923113Y-35342537D01*
X146928216Y-35340201D01*
X146928218Y-35340200D01*
X146999915Y-35307374D01*
X147126075Y-35249614D01*
X147130681Y-35246413D01*
X147304767Y-35125420D01*
X147304769Y-35125418D01*
X147309375Y-35122217D01*
X147467217Y-34964375D01*
X147594614Y-34781075D01*
X147679942Y-34594702D01*
X147685200Y-34583218D01*
X147685201Y-34583216D01*
X147687537Y-34578113D01*
X147743051Y-34361902D01*
X147750151Y-34274610D01*
X147754293Y-34223689D01*
X147754293Y-34223677D01*
X147754500Y-34221138D01*
X147754500Y-32896862D01*
X147743051Y-32756098D01*
X147687537Y-32539887D01*
X147594614Y-32336925D01*
X147483193Y-32176612D01*
X147460741Y-32109262D01*
X147479313Y-32039537D01*
X147479225Y-32039491D01*
X147479429Y-32039104D01*
X147479429Y-32039102D01*
X147566313Y-31873963D01*
X147602140Y-31805868D01*
X147602143Y-31805862D01*
X147604265Y-31801828D01*
X147663703Y-31633515D01*
X147692165Y-31552916D01*
X147692165Y-31552915D01*
X147693688Y-31548603D01*
X147745620Y-31285122D01*
X147747212Y-31253138D01*
X147758745Y-31021474D01*
X147758745Y-31021468D01*
X147758972Y-31016905D01*
X147733466Y-30749569D01*
X147717446Y-30684097D01*
X147670721Y-30493149D01*
X147669636Y-30488715D01*
X147660402Y-30465916D01*
X147570531Y-30244037D01*
X147570531Y-30244036D01*
X147568818Y-30239808D01*
X147433125Y-30008062D01*
X147338765Y-29890070D01*
X147311841Y-29824378D01*
X147324707Y-29754557D01*
X147335297Y-29737226D01*
X147354890Y-29710309D01*
X147394379Y-29656056D01*
X147476538Y-29543183D01*
X147476540Y-29543180D01*
X147479225Y-29539491D01*
X147571387Y-29364319D01*
X147602140Y-29305868D01*
X147602143Y-29305862D01*
X147604265Y-29301828D01*
X147623222Y-29248148D01*
X147692165Y-29052916D01*
X147692165Y-29052915D01*
X147693688Y-29048603D01*
X147730097Y-28863879D01*
X147744739Y-28789594D01*
X147744740Y-28789588D01*
X147745620Y-28785122D01*
X147746672Y-28763988D01*
X147758745Y-28521474D01*
X147758745Y-28521468D01*
X147758972Y-28516905D01*
X147733466Y-28249569D01*
X147669636Y-27988715D01*
X147667421Y-27983245D01*
X147570531Y-27744037D01*
X147570531Y-27744036D01*
X147568818Y-27739808D01*
X147433125Y-27508062D01*
X147322211Y-27369371D01*
X147268251Y-27301897D01*
X147268250Y-27301895D01*
X147265399Y-27298331D01*
X147069154Y-27115009D01*
X146909436Y-27004208D01*
X146852254Y-26964539D01*
X146852249Y-26964536D01*
X146848501Y-26961936D01*
X146844416Y-26959904D01*
X146844413Y-26959902D01*
X146672560Y-26874407D01*
X146608062Y-26842320D01*
X146603728Y-26840899D01*
X146603725Y-26840898D01*
X146357207Y-26760085D01*
X146357202Y-26760084D01*
X146352874Y-26758665D01*
X146348382Y-26757885D01*
X146092064Y-26713380D01*
X146092056Y-26713379D01*
X146088283Y-26712724D01*
X146079622Y-26712293D01*
X146005004Y-26708578D01*
X146004996Y-26708578D01*
X146003433Y-26708500D01*
X145585777Y-26708500D01*
X145583509Y-26708665D01*
X145583497Y-26708665D01*
X145453177Y-26718121D01*
X145386154Y-26722984D01*
X145381699Y-26723968D01*
X145381696Y-26723968D01*
X145128380Y-26779895D01*
X145128376Y-26779896D01*
X145123920Y-26780880D01*
X144998354Y-26828453D01*
X144877059Y-26874407D01*
X144877056Y-26874408D01*
X144872789Y-26876025D01*
X144638024Y-27006426D01*
X144634392Y-27009198D01*
X144428167Y-27166583D01*
X144428163Y-27166587D01*
X144424542Y-27169350D01*
X144236815Y-27361386D01*
X144234130Y-27365075D01*
X144094986Y-27556238D01*
X144078775Y-27578509D01*
X144052018Y-27629366D01*
X143955860Y-27812132D01*
X143955857Y-27812138D01*
X143953735Y-27816172D01*
X143952215Y-27820477D01*
X143952213Y-27820481D01*
X143891238Y-27993149D01*
X143864312Y-28069397D01*
X143812380Y-28332878D01*
X143812153Y-28337431D01*
X143812153Y-28337434D01*
X143799976Y-28582057D01*
X143799028Y-28601095D01*
X143824534Y-28868431D01*
X143825619Y-28872865D01*
X143825620Y-28872871D01*
X143886428Y-29121374D01*
X143888364Y-29129285D01*
X143890076Y-29133511D01*
X143890077Y-29133515D01*
X143938124Y-29252137D01*
X143989182Y-29378192D01*
X144124875Y-29609938D01*
X144219235Y-29727929D01*
X144246159Y-29793622D01*
X144233293Y-29863443D01*
X144222703Y-29880774D01*
X144111287Y-30033843D01*
X144078775Y-30078509D01*
X144034151Y-30163325D01*
X143955860Y-30312132D01*
X143955857Y-30312138D01*
X143953735Y-30316172D01*
X143952215Y-30320477D01*
X143952213Y-30320481D01*
X143882888Y-30516793D01*
X143864312Y-30569397D01*
X143812380Y-30832878D01*
X143812153Y-30837431D01*
X143812153Y-30837434D01*
X143802826Y-31024807D01*
X143799028Y-31101095D01*
X138921958Y-31101095D01*
X138918640Y-31030742D01*
X138918500Y-31024807D01*
X138918500Y-31002370D01*
X138918252Y-30999586D01*
X138918251Y-30999574D01*
X138916195Y-30976539D01*
X138915836Y-30971276D01*
X138912201Y-30894203D01*
X138911937Y-30888602D01*
X138910686Y-30883139D01*
X138910685Y-30883133D01*
X138907972Y-30871289D01*
X138905290Y-30854355D01*
X138904210Y-30842257D01*
X138903711Y-30836661D01*
X138881870Y-30756823D01*
X138880584Y-30751705D01*
X138863355Y-30676478D01*
X138863355Y-30676477D01*
X138862103Y-30671012D01*
X138855131Y-30654665D01*
X138849498Y-30638490D01*
X138846289Y-30626761D01*
X138846288Y-30626757D01*
X138844808Y-30621349D01*
X138809171Y-30546634D01*
X138807000Y-30541825D01*
X138776725Y-30470847D01*
X138776725Y-30470846D01*
X138774524Y-30465687D01*
X138764764Y-30450829D01*
X138756358Y-30435909D01*
X138748708Y-30419871D01*
X138745430Y-30415309D01*
X138700393Y-30352631D01*
X138697405Y-30348284D01*
X138684515Y-30328661D01*
X138651969Y-30279115D01*
X138633593Y-30258491D01*
X138625352Y-30248204D01*
X138618448Y-30238595D01*
X138542209Y-30164714D01*
X138540799Y-30163325D01*
X137067740Y-28690266D01*
X137033714Y-28627954D01*
X137030897Y-28597213D01*
X137033254Y-28522222D01*
X137033254Y-28522217D01*
X137033355Y-28519000D01*
X137014347Y-28250533D01*
X136957700Y-27987423D01*
X136938188Y-27934531D01*
X136866090Y-27739101D01*
X136866089Y-27739099D01*
X136864547Y-27734919D01*
X136807593Y-27629365D01*
X136792848Y-27559918D01*
X136820839Y-27489898D01*
X136863537Y-27437546D01*
X136863542Y-27437539D01*
X136867573Y-27432596D01*
X136961741Y-27252470D01*
X137017766Y-27057087D01*
X137028500Y-26936816D01*
X137028500Y-25021184D01*
X137017766Y-24900913D01*
X136961741Y-24705530D01*
X136867573Y-24525404D01*
X136739109Y-24367891D01*
X136581596Y-24239427D01*
X136401470Y-24145259D01*
X136206087Y-24089234D01*
X136174455Y-24086411D01*
X136088609Y-24078749D01*
X136088603Y-24078749D01*
X136085816Y-24078500D01*
X135857384Y-24078500D01*
X135789263Y-24058498D01*
X135742770Y-24004842D01*
X135732666Y-23934568D01*
X135762160Y-23869988D01*
X135807647Y-23836732D01*
X135961710Y-23770542D01*
X135965690Y-23768079D01*
X135965694Y-23768077D01*
X136185302Y-23632179D01*
X136185306Y-23632176D01*
X136189275Y-23629720D01*
X136203010Y-23618092D01*
X136389960Y-23459828D01*
X136389961Y-23459827D01*
X136393526Y-23456809D01*
X136487365Y-23349807D01*
X136566894Y-23259122D01*
X136566898Y-23259117D01*
X136569976Y-23255607D01*
X136572506Y-23251674D01*
X136712219Y-23034465D01*
X136712222Y-23034460D01*
X136714747Y-23030534D01*
X136824661Y-22786534D01*
X136897302Y-22528969D01*
X136915103Y-22389041D01*
X136930677Y-22266625D01*
X136930677Y-22266621D01*
X136931075Y-22263495D01*
X136933549Y-22169000D01*
X136913717Y-21902123D01*
X136903161Y-21855470D01*
X136855686Y-21645666D01*
X136854655Y-21641109D01*
X136757662Y-21391691D01*
X136624868Y-21159350D01*
X136459190Y-20949189D01*
X136264269Y-20765825D01*
X136044385Y-20613286D01*
X136040194Y-20611219D01*
X135808559Y-20496989D01*
X135808556Y-20496988D01*
X135804371Y-20494924D01*
X135549497Y-20413338D01*
X135404134Y-20389665D01*
X135289976Y-20371073D01*
X135289975Y-20371073D01*
X135285364Y-20370322D01*
X135151569Y-20368571D01*
X135022451Y-20366880D01*
X135022448Y-20366880D01*
X135017774Y-20366819D01*
X134752605Y-20402907D01*
X134748118Y-20404215D01*
X134748117Y-20404215D01*
X134716817Y-20413338D01*
X134495683Y-20477792D01*
X134491430Y-20479752D01*
X134491429Y-20479753D01*
X134439512Y-20503687D01*
X134252652Y-20589831D01*
X134248743Y-20592394D01*
X134032764Y-20733996D01*
X134032759Y-20734000D01*
X134028851Y-20736562D01*
X133829197Y-20914760D01*
X133658075Y-21120512D01*
X133519244Y-21349298D01*
X133415755Y-21596091D01*
X133414604Y-21600623D01*
X133414603Y-21600626D01*
X133351033Y-21850933D01*
X133349881Y-21855470D01*
X133323070Y-22121736D01*
X133335909Y-22389041D01*
X133388118Y-22651512D01*
X133478549Y-22903383D01*
X133480765Y-22907507D01*
X133548982Y-23034465D01*
X133605215Y-23139121D01*
X133608010Y-23142864D01*
X133608012Y-23142867D01*
X133692199Y-23255607D01*
X133765335Y-23353547D01*
X133768642Y-23356825D01*
X133768647Y-23356831D01*
X133952074Y-23538663D01*
X133955390Y-23541950D01*
X134171205Y-23700192D01*
X134175340Y-23702368D01*
X134175344Y-23702370D01*
X134304918Y-23770542D01*
X134408039Y-23824797D01*
X134433091Y-23833546D01*
X134490807Y-23874887D01*
X134517011Y-23940870D01*
X134503382Y-24010546D01*
X134454247Y-24061793D01*
X134391549Y-24078500D01*
X134170184Y-24078500D01*
X134167397Y-24078749D01*
X134167391Y-24078749D01*
X134081545Y-24086411D01*
X134049913Y-24089234D01*
X133854530Y-24145259D01*
X133674404Y-24239427D01*
X133516891Y-24367891D01*
X133388427Y-24525404D01*
X133294259Y-24705530D01*
X133238234Y-24900913D01*
X133227500Y-25021184D01*
X133227500Y-26936816D01*
X133238234Y-27057087D01*
X133294259Y-27252470D01*
X133388427Y-27432596D01*
X133392458Y-27437539D01*
X133392459Y-27437540D01*
X133434176Y-27488690D01*
X133461730Y-27554122D01*
X133449534Y-27624064D01*
X133445487Y-27631611D01*
X133419173Y-27676913D01*
X133419170Y-27676919D01*
X133416939Y-27680760D01*
X133415269Y-27684883D01*
X133394618Y-27735869D01*
X133315900Y-27930213D01*
X133314829Y-27934526D01*
X133314827Y-27934531D01*
X133282398Y-28065084D01*
X133251017Y-28191414D01*
X133223585Y-28459151D01*
X133223760Y-28463602D01*
X133232625Y-28689210D01*
X133234152Y-28728083D01*
X133282505Y-28992843D01*
X133367682Y-29248148D01*
X133369674Y-29252135D01*
X133369675Y-29252137D01*
X133428031Y-29368925D01*
X133487981Y-29488905D01*
X133641003Y-29710309D01*
X133644025Y-29713578D01*
X133820679Y-29904682D01*
X133820684Y-29904687D01*
X133823695Y-29907944D01*
X134032411Y-30077866D01*
X134036229Y-30080165D01*
X134036231Y-30080166D01*
X134133572Y-30138770D01*
X134262987Y-30216684D01*
X134267082Y-30218418D01*
X134267084Y-30218419D01*
X134506721Y-30319892D01*
X134506728Y-30319894D01*
X134510822Y-30321628D01*
X134604080Y-30346355D01*
X134766675Y-30389467D01*
X134766680Y-30389468D01*
X134770972Y-30390606D01*
X134775381Y-30391128D01*
X134775387Y-30391129D01*
X134951041Y-30411919D01*
X135038245Y-30422240D01*
X135094667Y-30420910D01*
X135203675Y-30418342D01*
X135272248Y-30436734D01*
X135295738Y-30455212D01*
X136380595Y-31540069D01*
X136414621Y-31602381D01*
X136417500Y-31629164D01*
X136417500Y-37819771D01*
X136397498Y-37887892D01*
X136343842Y-37934385D01*
X136305983Y-37944936D01*
X136100732Y-37968684D01*
X136095861Y-37970062D01*
X136095858Y-37970063D01*
X135923702Y-38018779D01*
X135864523Y-38035525D01*
X135815211Y-38058519D01*
X135745021Y-38069180D01*
X135716808Y-38061955D01*
X135615299Y-38022989D01*
X135560113Y-38001805D01*
X135555167Y-38000772D01*
X135555161Y-38000770D01*
X135324772Y-37952640D01*
X135324773Y-37952640D01*
X135319818Y-37951605D01*
X135314769Y-37951376D01*
X135314763Y-37951375D01*
X135202846Y-37946293D01*
X135074588Y-37940469D01*
X135069568Y-37941050D01*
X135069564Y-37941050D01*
X134848182Y-37966665D01*
X134830732Y-37968684D01*
X134825861Y-37970062D01*
X134825858Y-37970063D01*
X134726496Y-37998180D01*
X134594523Y-38035525D01*
X134483281Y-38087398D01*
X134376622Y-38137133D01*
X134376618Y-38137135D01*
X134372040Y-38139270D01*
X134367859Y-38142112D01*
X134367858Y-38142112D01*
X134173193Y-38274406D01*
X134173189Y-38274409D01*
X134169006Y-38277252D01*
X134165329Y-38280729D01*
X134165328Y-38280730D01*
X134103657Y-38339049D01*
X134040419Y-38371320D01*
X134017084Y-38373500D01*
X130813043Y-38373500D01*
X130744922Y-38353498D01*
X130726710Y-38339275D01*
X130679670Y-38295024D01*
X130679667Y-38295022D01*
X130676269Y-38291825D01*
X130456385Y-38139286D01*
X130452194Y-38137219D01*
X130220559Y-38022989D01*
X130220556Y-38022988D01*
X130216371Y-38020924D01*
X130204007Y-38016966D01*
X130053174Y-37968684D01*
X129961497Y-37939338D01*
X129714195Y-37899063D01*
X129701976Y-37897073D01*
X129701975Y-37897073D01*
X129697364Y-37896322D01*
X129563569Y-37894571D01*
X129434451Y-37892880D01*
X129434448Y-37892880D01*
X129429774Y-37892819D01*
X129164605Y-37928907D01*
X129160118Y-37930215D01*
X129160117Y-37930215D01*
X129128817Y-37939338D01*
X128907683Y-38003792D01*
X128903430Y-38005752D01*
X128903429Y-38005753D01*
X128851512Y-38029687D01*
X128664652Y-38115831D01*
X128660743Y-38118394D01*
X128444764Y-38259996D01*
X128444759Y-38260000D01*
X128440851Y-38262562D01*
X128401060Y-38298077D01*
X128285757Y-38400989D01*
X128241197Y-38440760D01*
X128070075Y-38646512D01*
X128067652Y-38650505D01*
X127945962Y-38851044D01*
X127931244Y-38875298D01*
X127929437Y-38879606D01*
X127929437Y-38879607D01*
X127830259Y-39116120D01*
X127827755Y-39122091D01*
X127826604Y-39126623D01*
X127826603Y-39126626D01*
X127763033Y-39376933D01*
X127761881Y-39381470D01*
X127735070Y-39647736D01*
X127280928Y-39647736D01*
X127281549Y-39624000D01*
X127272520Y-39502495D01*
X127262064Y-39361788D01*
X127262063Y-39361784D01*
X127261717Y-39357123D01*
X127251161Y-39310470D01*
X127203686Y-39100666D01*
X127202655Y-39096109D01*
X127150713Y-38962539D01*
X127107355Y-38851044D01*
X127107354Y-38851042D01*
X127105662Y-38846691D01*
X127086630Y-38813391D01*
X126975187Y-38618408D01*
X126972868Y-38614350D01*
X126807190Y-38404189D01*
X126612269Y-38220825D01*
X126392385Y-38068286D01*
X126388194Y-38066219D01*
X126156559Y-37951989D01*
X126156556Y-37951988D01*
X126152371Y-37949924D01*
X126133178Y-37943780D01*
X125989174Y-37897684D01*
X125897497Y-37868338D01*
X125752134Y-37844665D01*
X125637976Y-37826073D01*
X125637975Y-37826073D01*
X125633364Y-37825322D01*
X125499569Y-37823571D01*
X125370451Y-37821880D01*
X125370448Y-37821880D01*
X125365774Y-37821819D01*
X125100605Y-37857907D01*
X125096118Y-37859215D01*
X125096117Y-37859215D01*
X125049577Y-37872780D01*
X124843683Y-37932792D01*
X124839430Y-37934752D01*
X124839429Y-37934753D01*
X124800629Y-37952640D01*
X124600652Y-38044831D01*
X124574534Y-38061955D01*
X124380764Y-38188996D01*
X124380759Y-38189000D01*
X124376851Y-38191562D01*
X124309656Y-38251536D01*
X124208856Y-38341503D01*
X124144715Y-38371941D01*
X124124955Y-38373500D01*
X121074534Y-38373500D01*
X121006413Y-38353498D01*
X120980020Y-38330825D01*
X120954497Y-38301874D01*
X120954494Y-38301871D01*
X120951149Y-38298077D01*
X120940301Y-38289166D01*
X120765362Y-38145470D01*
X120765359Y-38145468D01*
X120761456Y-38142262D01*
X120549291Y-38018779D01*
X120320113Y-37930805D01*
X120315167Y-37929772D01*
X120315161Y-37929770D01*
X120084772Y-37881640D01*
X120084773Y-37881640D01*
X120079818Y-37880605D01*
X120074769Y-37880376D01*
X120074763Y-37880375D01*
X119962846Y-37875293D01*
X119834588Y-37869469D01*
X119829568Y-37870050D01*
X119829564Y-37870050D01*
X119603031Y-37896261D01*
X119590732Y-37897684D01*
X119585861Y-37899062D01*
X119585858Y-37899063D01*
X119438502Y-37940761D01*
X119354523Y-37964525D01*
X119305211Y-37987519D01*
X119235021Y-37998180D01*
X119206808Y-37990955D01*
X119134361Y-37963145D01*
X119050113Y-37930805D01*
X119045167Y-37929772D01*
X119045161Y-37929770D01*
X118814772Y-37881640D01*
X118814773Y-37881640D01*
X118809818Y-37880605D01*
X118804769Y-37880376D01*
X118804763Y-37880375D01*
X118718784Y-37876471D01*
X118651641Y-37853400D01*
X118607630Y-37797690D01*
X118598500Y-37750601D01*
X118598500Y-30006756D01*
X118618502Y-29938635D01*
X118640435Y-29912899D01*
X118712970Y-29847931D01*
X118716286Y-29844961D01*
X118759585Y-29793451D01*
X118886601Y-29642348D01*
X118886606Y-29642342D01*
X118889465Y-29638940D01*
X119031887Y-29410572D01*
X119052336Y-29364319D01*
X119108400Y-29237504D01*
X119140712Y-29164416D01*
X119213767Y-28905382D01*
X119232450Y-28766284D01*
X119249168Y-28641820D01*
X119249169Y-28641812D01*
X119249595Y-28638638D01*
X119249931Y-28627954D01*
X119253254Y-28522222D01*
X119253254Y-28522217D01*
X119253355Y-28519000D01*
X119234347Y-28250533D01*
X119177700Y-27987423D01*
X119158188Y-27934531D01*
X119086090Y-27739101D01*
X119086089Y-27739099D01*
X119084547Y-27734919D01*
X119027593Y-27629365D01*
X119012848Y-27559918D01*
X119040839Y-27489898D01*
X119083537Y-27437546D01*
X119083542Y-27437539D01*
X119087573Y-27432596D01*
X119181741Y-27252470D01*
X119237766Y-27057087D01*
X119248500Y-26936816D01*
X119248500Y-25021184D01*
X119237766Y-24900913D01*
X119181741Y-24705530D01*
X119087573Y-24525404D01*
X118959109Y-24367891D01*
X118801596Y-24239427D01*
X118621470Y-24145259D01*
X118426087Y-24089234D01*
X118394455Y-24086411D01*
X118308609Y-24078749D01*
X118308603Y-24078749D01*
X118305816Y-24078500D01*
X118077384Y-24078500D01*
X118009263Y-24058498D01*
X117962770Y-24004842D01*
X117952666Y-23934568D01*
X117982160Y-23869988D01*
X118027647Y-23836732D01*
X118181710Y-23770542D01*
X118185690Y-23768079D01*
X118185694Y-23768077D01*
X118405302Y-23632179D01*
X118405306Y-23632176D01*
X118409275Y-23629720D01*
X118423010Y-23618092D01*
X118609960Y-23459828D01*
X118609961Y-23459827D01*
X118613526Y-23456809D01*
X118707365Y-23349807D01*
X118786894Y-23259122D01*
X118786898Y-23259117D01*
X118789976Y-23255607D01*
X118792506Y-23251674D01*
X118932219Y-23034465D01*
X118932222Y-23034460D01*
X118934747Y-23030534D01*
X119044661Y-22786534D01*
X119117302Y-22528969D01*
X119135103Y-22389041D01*
X119150677Y-22266625D01*
X119150677Y-22266621D01*
X119151075Y-22263495D01*
X119153549Y-22169000D01*
X119133717Y-21902123D01*
X119123161Y-21855470D01*
X119075686Y-21645666D01*
X119074655Y-21641109D01*
X118977662Y-21391691D01*
X118844868Y-21159350D01*
X118679190Y-20949189D01*
X118484269Y-20765825D01*
X118264385Y-20613286D01*
X118260194Y-20611219D01*
X118028559Y-20496989D01*
X118028556Y-20496988D01*
X118024371Y-20494924D01*
X117769497Y-20413338D01*
X117624134Y-20389665D01*
X117509976Y-20371073D01*
X117509975Y-20371073D01*
X117505364Y-20370322D01*
X117371569Y-20368571D01*
X117242451Y-20366880D01*
X117242448Y-20366880D01*
X117237774Y-20366819D01*
X116972605Y-20402907D01*
X116968118Y-20404215D01*
X116968117Y-20404215D01*
X116936817Y-20413338D01*
X116715683Y-20477792D01*
X116711430Y-20479752D01*
X116711429Y-20479753D01*
X116659512Y-20503687D01*
X116472652Y-20589831D01*
X116468743Y-20592394D01*
X116252764Y-20733996D01*
X116252759Y-20734000D01*
X116248851Y-20736562D01*
X116049197Y-20914760D01*
X115878075Y-21120512D01*
X115739244Y-21349298D01*
X115635755Y-21596091D01*
X115634604Y-21600623D01*
X115634603Y-21600626D01*
X115571033Y-21850933D01*
X115569881Y-21855470D01*
X115543070Y-22121736D01*
X115555909Y-22389041D01*
X115608118Y-22651512D01*
X115698549Y-22903383D01*
X115700765Y-22907507D01*
X115768982Y-23034465D01*
X115825215Y-23139121D01*
X115828010Y-23142864D01*
X115828012Y-23142867D01*
X115912199Y-23255607D01*
X115985335Y-23353547D01*
X115988642Y-23356825D01*
X115988647Y-23356831D01*
X116172074Y-23538663D01*
X116175390Y-23541950D01*
X116391205Y-23700192D01*
X116395340Y-23702368D01*
X116395344Y-23702370D01*
X116524918Y-23770542D01*
X116628039Y-23824797D01*
X116653091Y-23833546D01*
X116710807Y-23874887D01*
X116737011Y-23940870D01*
X116723382Y-24010546D01*
X116674247Y-24061793D01*
X116611549Y-24078500D01*
X116390184Y-24078500D01*
X116387397Y-24078749D01*
X116387391Y-24078749D01*
X116301545Y-24086411D01*
X116269913Y-24089234D01*
X116074530Y-24145259D01*
X115894404Y-24239427D01*
X115736891Y-24367891D01*
X115608427Y-24525404D01*
X115514259Y-24705530D01*
X115458234Y-24900913D01*
X115447500Y-25021184D01*
X115447500Y-26936816D01*
X115458234Y-27057087D01*
X115514259Y-27252470D01*
X115608427Y-27432596D01*
X115612458Y-27437539D01*
X115612459Y-27437540D01*
X115654176Y-27488690D01*
X115681730Y-27554122D01*
X115669534Y-27624064D01*
X115665487Y-27631611D01*
X115639173Y-27676913D01*
X115639170Y-27676919D01*
X115636939Y-27680760D01*
X115635269Y-27684883D01*
X115614618Y-27735869D01*
X115535900Y-27930213D01*
X115534829Y-27934526D01*
X115534827Y-27934531D01*
X115502398Y-28065084D01*
X115471017Y-28191414D01*
X115443585Y-28459151D01*
X115443760Y-28463602D01*
X115452625Y-28689210D01*
X115454152Y-28728083D01*
X115502505Y-28992843D01*
X115587682Y-29248148D01*
X115589674Y-29252135D01*
X115589675Y-29252137D01*
X115648031Y-29368925D01*
X115707981Y-29488905D01*
X115861003Y-29710309D01*
X115920782Y-29774977D01*
X115988220Y-29847931D01*
X116043695Y-29907944D01*
X116047142Y-29910750D01*
X116047151Y-29910758D01*
X116051051Y-29913933D01*
X116091250Y-29972453D01*
X116097500Y-30011645D01*
X116097500Y-38135670D01*
X116077498Y-38203791D01*
X116069143Y-38215305D01*
X115983427Y-38320404D01*
X115889259Y-38500530D01*
X115833234Y-38695913D01*
X115822500Y-38816184D01*
X115822500Y-40431816D01*
X115833234Y-40552087D01*
X115889259Y-40747470D01*
X115983427Y-40927596D01*
X115987458Y-40932539D01*
X115987459Y-40932540D01*
X116100150Y-41070713D01*
X116111891Y-41085109D01*
X116116831Y-41089138D01*
X116197822Y-41155192D01*
X116269404Y-41213573D01*
X116449530Y-41307741D01*
X116644913Y-41363766D01*
X116673978Y-41366360D01*
X116762391Y-41374251D01*
X116762397Y-41374251D01*
X116765184Y-41374500D01*
X117930816Y-41374500D01*
X117933603Y-41374251D01*
X117933609Y-41374251D01*
X118022022Y-41366360D01*
X118051087Y-41363766D01*
X118097993Y-41350316D01*
X118171889Y-41329127D01*
X118232385Y-41326909D01*
X118399023Y-41361721D01*
X118426182Y-41367395D01*
X118498815Y-41370693D01*
X118517216Y-41371529D01*
X118584359Y-41394600D01*
X118628370Y-41450310D01*
X118637500Y-41497399D01*
X118637500Y-48136500D01*
X118617498Y-48204621D01*
X118563842Y-48251114D01*
X118511500Y-48262500D01*
X116353367Y-48262500D01*
X116350580Y-48262749D01*
X116350574Y-48262749D01*
X116264728Y-48270411D01*
X116233096Y-48273234D01*
X116037713Y-48329259D01*
X115911616Y-48395181D01*
X115889455Y-48406767D01*
X115857587Y-48423427D01*
X115852644Y-48427458D01*
X115852643Y-48427459D01*
X115764405Y-48499424D01*
X115700074Y-48551891D01*
X115696045Y-48556831D01*
X115609348Y-48663133D01*
X115571610Y-48709404D01*
X115477442Y-48889530D01*
X115475683Y-48895666D01*
X115473387Y-48903671D01*
X115435381Y-48963638D01*
X115370987Y-48993538D01*
X115300651Y-48983878D01*
X115259969Y-48954707D01*
X115145355Y-48831367D01*
X115145352Y-48831364D01*
X115142434Y-48828224D01*
X115139118Y-48825510D01*
X115139115Y-48825507D01*
X114982335Y-48697184D01*
X114920806Y-48646823D01*
X114676610Y-48497180D01*
X114658602Y-48489275D01*
X114418293Y-48383786D01*
X114418289Y-48383785D01*
X114414365Y-48382062D01*
X114138922Y-48303600D01*
X113913895Y-48271574D01*
X113859631Y-48263851D01*
X113859629Y-48263851D01*
X113855379Y-48263246D01*
X113703516Y-48262451D01*
X113573269Y-48261769D01*
X113573263Y-48261769D01*
X113568983Y-48261747D01*
X113564739Y-48262306D01*
X113564735Y-48262306D01*
X113441228Y-48278566D01*
X113285034Y-48299129D01*
X113280894Y-48300262D01*
X113280892Y-48300262D01*
X113204103Y-48321269D01*
X113008785Y-48374702D01*
X113004837Y-48376386D01*
X112749300Y-48485382D01*
X112749296Y-48485384D01*
X112745348Y-48487068D01*
X112499598Y-48634146D01*
X112496247Y-48636830D01*
X112496245Y-48636832D01*
X112398603Y-48715058D01*
X112276083Y-48813215D01*
X112078938Y-49020962D01*
X111911812Y-49253543D01*
X111777797Y-49506653D01*
X111752233Y-49576509D01*
X111693207Y-49737808D01*
X111679373Y-49775610D01*
X111618361Y-50055436D01*
X111595890Y-50340953D01*
X105898500Y-50340953D01*
X105898500Y-48421854D01*
X105899578Y-48405408D01*
X105901720Y-48389137D01*
X105902452Y-48383577D01*
X105902034Y-48374702D01*
X105898640Y-48302742D01*
X105898500Y-48296807D01*
X105898500Y-48274370D01*
X105898252Y-48271586D01*
X105898251Y-48271574D01*
X105896195Y-48248539D01*
X105895836Y-48243276D01*
X105892201Y-48166203D01*
X105891937Y-48160602D01*
X105890686Y-48155139D01*
X105890685Y-48155133D01*
X105887972Y-48143289D01*
X105885290Y-48126355D01*
X105885257Y-48125990D01*
X105883711Y-48108661D01*
X105867344Y-48048831D01*
X105861870Y-48028823D01*
X105860584Y-48023705D01*
X105843355Y-47948478D01*
X105843355Y-47948477D01*
X105842103Y-47943012D01*
X105835131Y-47926665D01*
X105829498Y-47910490D01*
X105826289Y-47898761D01*
X105826288Y-47898757D01*
X105824808Y-47893349D01*
X105790423Y-47821259D01*
X105789171Y-47818634D01*
X105787000Y-47813825D01*
X105756725Y-47742847D01*
X105756725Y-47742846D01*
X105754524Y-47737687D01*
X105744764Y-47722829D01*
X105736358Y-47707909D01*
X105728708Y-47691871D01*
X105714812Y-47672532D01*
X105680393Y-47624631D01*
X105677405Y-47620284D01*
X105631969Y-47551115D01*
X105613593Y-47530491D01*
X105605352Y-47520204D01*
X105598448Y-47510595D01*
X105522209Y-47436714D01*
X105520799Y-47435325D01*
X100347405Y-42261931D01*
X100313379Y-42199619D01*
X100310500Y-42172836D01*
X100310500Y-41499229D01*
X100330502Y-41431108D01*
X100384158Y-41384615D01*
X100422017Y-41374064D01*
X100627268Y-41350316D01*
X100704841Y-41328365D01*
X100773876Y-41328486D01*
X100783271Y-41331180D01*
X100896913Y-41363766D01*
X100925978Y-41366360D01*
X101014391Y-41374251D01*
X101014397Y-41374251D01*
X101017184Y-41374500D01*
X102182816Y-41374500D01*
X102185603Y-41374251D01*
X102185609Y-41374251D01*
X102274022Y-41366360D01*
X102303087Y-41363766D01*
X102498470Y-41307741D01*
X102678596Y-41213573D01*
X102750179Y-41155192D01*
X102831169Y-41089138D01*
X102836109Y-41085109D01*
X102847850Y-41070713D01*
X102960541Y-40932540D01*
X102960542Y-40932539D01*
X102964573Y-40927596D01*
X103058741Y-40747470D01*
X103114766Y-40552087D01*
X103125500Y-40431816D01*
X103125500Y-38816184D01*
X103114766Y-38695913D01*
X103058741Y-38500530D01*
X102964573Y-38320404D01*
X102878857Y-38215305D01*
X102851303Y-38149874D01*
X102850500Y-38135670D01*
X102850500Y-30641862D01*
X102851578Y-30625415D01*
X102853720Y-30609147D01*
X102853720Y-30609145D01*
X102854453Y-30603578D01*
X102850640Y-30522729D01*
X102850500Y-30516793D01*
X102850500Y-30494370D01*
X102848196Y-30468548D01*
X102847837Y-30463287D01*
X102845574Y-30415309D01*
X102843937Y-30380602D01*
X102842686Y-30375139D01*
X102842685Y-30375133D01*
X102839972Y-30363289D01*
X102837290Y-30346355D01*
X102836210Y-30334257D01*
X102835711Y-30328661D01*
X102833312Y-30319892D01*
X102813869Y-30248819D01*
X102812583Y-30243701D01*
X102795355Y-30168479D01*
X102795355Y-30168478D01*
X102794103Y-30163013D01*
X102791905Y-30157859D01*
X102791901Y-30157848D01*
X102787134Y-30146674D01*
X102781495Y-30130483D01*
X102778290Y-30118767D01*
X102776808Y-30113349D01*
X102741165Y-30038623D01*
X102739007Y-30033843D01*
X102731121Y-30015354D01*
X102706524Y-29957687D01*
X102696764Y-29942829D01*
X102688358Y-29927909D01*
X102680708Y-29911871D01*
X102665043Y-29890071D01*
X102632402Y-29844646D01*
X102629413Y-29840297D01*
X102607393Y-29806774D01*
X102583970Y-29771116D01*
X102580896Y-29767666D01*
X102580890Y-29767658D01*
X102565596Y-29750492D01*
X102557352Y-29740203D01*
X102550448Y-29730595D01*
X102474209Y-29656714D01*
X102472799Y-29655325D01*
X101507740Y-28690266D01*
X101473714Y-28627954D01*
X101470897Y-28597213D01*
X101473254Y-28522222D01*
X101473254Y-28522217D01*
X101473355Y-28519000D01*
X101454347Y-28250533D01*
X101397700Y-27987423D01*
X101378188Y-27934531D01*
X101306090Y-27739101D01*
X101306089Y-27739099D01*
X101304547Y-27734919D01*
X101247593Y-27629365D01*
X101232848Y-27559918D01*
X101260839Y-27489898D01*
X101303537Y-27437546D01*
X101303542Y-27437539D01*
X101307573Y-27432596D01*
X101401741Y-27252470D01*
X101457766Y-27057087D01*
X101468500Y-26936816D01*
X101468500Y-25021184D01*
X101457766Y-24900913D01*
X101401741Y-24705530D01*
X101307573Y-24525404D01*
X101179109Y-24367891D01*
X101021596Y-24239427D01*
X100841470Y-24145259D01*
X100646087Y-24089234D01*
X100614455Y-24086411D01*
X100528609Y-24078749D01*
X100528603Y-24078749D01*
X100525816Y-24078500D01*
X100297384Y-24078500D01*
X100229263Y-24058498D01*
X100182770Y-24004842D01*
X100172666Y-23934568D01*
X100202160Y-23869988D01*
X100247647Y-23836732D01*
X100401710Y-23770542D01*
X100405690Y-23768079D01*
X100405694Y-23768077D01*
X100625302Y-23632179D01*
X100625306Y-23632176D01*
X100629275Y-23629720D01*
X100643010Y-23618092D01*
X100829960Y-23459828D01*
X100829961Y-23459827D01*
X100833526Y-23456809D01*
X100927365Y-23349807D01*
X101006894Y-23259122D01*
X101006898Y-23259117D01*
X101009976Y-23255607D01*
X101012506Y-23251674D01*
X101152219Y-23034465D01*
X101152222Y-23034460D01*
X101154747Y-23030534D01*
X101264661Y-22786534D01*
X101337302Y-22528969D01*
X101355103Y-22389041D01*
X101370677Y-22266625D01*
X101370677Y-22266621D01*
X101371075Y-22263495D01*
X101373549Y-22169000D01*
X101353717Y-21902123D01*
X101343161Y-21855470D01*
X101295686Y-21645666D01*
X101294655Y-21641109D01*
X101197662Y-21391691D01*
X101064868Y-21159350D01*
X100899190Y-20949189D01*
X100704269Y-20765825D01*
X100484385Y-20613286D01*
X100480194Y-20611219D01*
X100248559Y-20496989D01*
X100248556Y-20496988D01*
X100244371Y-20494924D01*
X99989497Y-20413338D01*
X99844134Y-20389665D01*
X99729976Y-20371073D01*
X99729975Y-20371073D01*
X99725364Y-20370322D01*
X99591569Y-20368571D01*
X99462451Y-20366880D01*
X99462448Y-20366880D01*
X99457774Y-20366819D01*
X99192605Y-20402907D01*
X99188118Y-20404215D01*
X99188117Y-20404215D01*
X99156817Y-20413338D01*
X98935683Y-20477792D01*
X98931430Y-20479752D01*
X98931429Y-20479753D01*
X98879512Y-20503687D01*
X98692652Y-20589831D01*
X98688743Y-20592394D01*
X98472764Y-20733996D01*
X98472759Y-20734000D01*
X98468851Y-20736562D01*
X98269197Y-20914760D01*
X98098075Y-21120512D01*
X97959244Y-21349298D01*
X97855755Y-21596091D01*
X97854604Y-21600623D01*
X97854603Y-21600626D01*
X97791033Y-21850933D01*
X97789881Y-21855470D01*
X97763070Y-22121736D01*
X97775909Y-22389041D01*
X97828118Y-22651512D01*
X97918549Y-22903383D01*
X97920765Y-22907507D01*
X97988982Y-23034465D01*
X98045215Y-23139121D01*
X98048010Y-23142864D01*
X98048012Y-23142867D01*
X98132199Y-23255607D01*
X98205335Y-23353547D01*
X98208642Y-23356825D01*
X98208647Y-23356831D01*
X98392074Y-23538663D01*
X98395390Y-23541950D01*
X98611205Y-23700192D01*
X98615340Y-23702368D01*
X98615344Y-23702370D01*
X98744918Y-23770542D01*
X98848039Y-23824797D01*
X98873091Y-23833546D01*
X98930807Y-23874887D01*
X98957011Y-23940870D01*
X98943382Y-24010546D01*
X98894247Y-24061793D01*
X98831549Y-24078500D01*
X98610184Y-24078500D01*
X98607397Y-24078749D01*
X98607391Y-24078749D01*
X98521545Y-24086411D01*
X98489913Y-24089234D01*
X98294530Y-24145259D01*
X98114404Y-24239427D01*
X97956891Y-24367891D01*
X97828427Y-24525404D01*
X97734259Y-24705530D01*
X97678234Y-24900913D01*
X97667500Y-25021184D01*
X97667500Y-26936816D01*
X97678234Y-27057087D01*
X97734259Y-27252470D01*
X97828427Y-27432596D01*
X97832458Y-27437539D01*
X97832459Y-27437540D01*
X97874176Y-27488690D01*
X97901730Y-27554122D01*
X97889534Y-27624064D01*
X97885487Y-27631611D01*
X97859173Y-27676913D01*
X97859170Y-27676919D01*
X97856939Y-27680760D01*
X97855269Y-27684883D01*
X97834618Y-27735869D01*
X97755900Y-27930213D01*
X97754829Y-27934526D01*
X97754827Y-27934531D01*
X97722398Y-28065084D01*
X97691017Y-28191414D01*
X97663585Y-28459151D01*
X97663760Y-28463602D01*
X97672625Y-28689210D01*
X97674152Y-28728083D01*
X97722505Y-28992843D01*
X97807682Y-29248148D01*
X97809674Y-29252135D01*
X97809675Y-29252137D01*
X97868031Y-29368925D01*
X97927981Y-29488905D01*
X98081003Y-29710309D01*
X98084025Y-29713578D01*
X98260679Y-29904682D01*
X98260684Y-29904687D01*
X98263695Y-29907944D01*
X98472411Y-30077866D01*
X98476229Y-30080165D01*
X98476231Y-30080166D01*
X98573572Y-30138770D01*
X98702987Y-30216684D01*
X98707082Y-30218418D01*
X98707084Y-30218419D01*
X98946721Y-30319892D01*
X98946728Y-30319894D01*
X98950822Y-30321628D01*
X99044080Y-30346355D01*
X99206675Y-30389467D01*
X99206680Y-30389468D01*
X99210972Y-30390606D01*
X99215381Y-30391128D01*
X99215387Y-30391129D01*
X99391041Y-30411919D01*
X99478245Y-30422240D01*
X99535176Y-30420898D01*
X99643674Y-30418342D01*
X99712247Y-30436734D01*
X99735737Y-30455212D01*
X100312595Y-31032070D01*
X100346621Y-31094382D01*
X100349500Y-31121165D01*
X100349500Y-37748771D01*
X100329498Y-37816892D01*
X100275842Y-37863385D01*
X100237983Y-37873936D01*
X100032732Y-37897684D01*
X100027861Y-37899062D01*
X100027858Y-37899063D01*
X99880502Y-37940761D01*
X99796523Y-37964525D01*
X99747211Y-37987519D01*
X99677021Y-37998180D01*
X99648808Y-37990955D01*
X99576361Y-37963145D01*
X99492113Y-37930805D01*
X99487167Y-37929772D01*
X99487161Y-37929770D01*
X99256772Y-37881640D01*
X99256773Y-37881640D01*
X99251818Y-37880605D01*
X99246769Y-37880376D01*
X99246763Y-37880375D01*
X99134846Y-37875293D01*
X99006588Y-37869469D01*
X99001568Y-37870050D01*
X99001564Y-37870050D01*
X98775031Y-37896261D01*
X98762732Y-37897684D01*
X98757861Y-37899062D01*
X98757858Y-37899063D01*
X98654620Y-37928277D01*
X98526523Y-37964525D01*
X98415281Y-38016398D01*
X98308622Y-38066133D01*
X98308618Y-38066135D01*
X98304040Y-38068270D01*
X98101006Y-38206252D01*
X97985525Y-38315457D01*
X97960578Y-38339048D01*
X97897340Y-38371320D01*
X97874005Y-38373500D01*
X95328518Y-38373500D01*
X95260397Y-38353498D01*
X95242185Y-38339275D01*
X95119670Y-38224024D01*
X95119667Y-38224022D01*
X95116269Y-38220825D01*
X94896385Y-38068286D01*
X94892194Y-38066219D01*
X94660559Y-37951989D01*
X94660556Y-37951988D01*
X94656371Y-37949924D01*
X94637178Y-37943780D01*
X94493174Y-37897684D01*
X94401497Y-37868338D01*
X94256134Y-37844665D01*
X94141976Y-37826073D01*
X94141975Y-37826073D01*
X94137364Y-37825322D01*
X94003569Y-37823571D01*
X93874451Y-37821880D01*
X93874448Y-37821880D01*
X93869774Y-37821819D01*
X93604605Y-37857907D01*
X93600118Y-37859215D01*
X93600117Y-37859215D01*
X93553577Y-37872780D01*
X93347683Y-37932792D01*
X93343430Y-37934752D01*
X93343429Y-37934753D01*
X93304629Y-37952640D01*
X93104652Y-38044831D01*
X93078534Y-38061955D01*
X92884764Y-38188996D01*
X92884759Y-38189000D01*
X92880851Y-38191562D01*
X92813656Y-38251536D01*
X92715353Y-38339275D01*
X92681197Y-38369760D01*
X92510075Y-38575512D01*
X92507652Y-38579505D01*
X92387266Y-38777895D01*
X92371244Y-38804298D01*
X92369437Y-38808606D01*
X92369437Y-38808607D01*
X92305980Y-38959936D01*
X92267755Y-39051091D01*
X92266604Y-39055623D01*
X92266603Y-39055626D01*
X92238229Y-39167350D01*
X92201881Y-39310470D01*
X92175070Y-39576736D01*
X91718037Y-39576736D01*
X91712520Y-39502495D01*
X91702064Y-39361788D01*
X91702063Y-39361784D01*
X91701717Y-39357123D01*
X91691161Y-39310470D01*
X91643686Y-39100666D01*
X91642655Y-39096109D01*
X91590713Y-38962539D01*
X91547355Y-38851044D01*
X91547354Y-38851042D01*
X91545662Y-38846691D01*
X91526630Y-38813391D01*
X91415187Y-38618408D01*
X91412868Y-38614350D01*
X91247190Y-38404189D01*
X91052269Y-38220825D01*
X90832385Y-38068286D01*
X90828194Y-38066219D01*
X90596559Y-37951989D01*
X90596556Y-37951988D01*
X90592371Y-37949924D01*
X90573178Y-37943780D01*
X90429174Y-37897684D01*
X90337497Y-37868338D01*
X90192134Y-37844665D01*
X90077976Y-37826073D01*
X90077975Y-37826073D01*
X90073364Y-37825322D01*
X89939569Y-37823571D01*
X89810451Y-37821880D01*
X89810448Y-37821880D01*
X89805774Y-37821819D01*
X89540605Y-37857907D01*
X89536118Y-37859215D01*
X89536117Y-37859215D01*
X89489577Y-37872780D01*
X89283683Y-37932792D01*
X89279430Y-37934752D01*
X89279429Y-37934753D01*
X89240629Y-37952640D01*
X89040652Y-38044831D01*
X89014534Y-38061955D01*
X88820764Y-38188996D01*
X88820759Y-38189000D01*
X88816851Y-38191562D01*
X88749656Y-38251536D01*
X88648856Y-38341503D01*
X88584715Y-38371941D01*
X88564955Y-38373500D01*
X85514534Y-38373500D01*
X85446413Y-38353498D01*
X85420020Y-38330825D01*
X85394497Y-38301874D01*
X85394494Y-38301871D01*
X85391149Y-38298077D01*
X85380301Y-38289166D01*
X85205362Y-38145470D01*
X85205359Y-38145468D01*
X85201456Y-38142262D01*
X84989291Y-38018779D01*
X84760113Y-37930805D01*
X84755167Y-37929772D01*
X84755161Y-37929770D01*
X84524772Y-37881640D01*
X84524773Y-37881640D01*
X84519818Y-37880605D01*
X84514769Y-37880376D01*
X84514763Y-37880375D01*
X84402846Y-37875293D01*
X84274588Y-37869469D01*
X84269568Y-37870050D01*
X84269564Y-37870050D01*
X84043031Y-37896261D01*
X84030732Y-37897684D01*
X84025861Y-37899062D01*
X84025858Y-37899063D01*
X83878502Y-37940761D01*
X83794523Y-37964525D01*
X83745211Y-37987519D01*
X83675021Y-37998180D01*
X83646808Y-37990955D01*
X83574361Y-37963145D01*
X83490113Y-37930805D01*
X83485167Y-37929772D01*
X83485161Y-37929770D01*
X83254772Y-37881640D01*
X83254773Y-37881640D01*
X83249818Y-37880605D01*
X83244769Y-37880376D01*
X83244763Y-37880375D01*
X83158784Y-37876471D01*
X83091641Y-37853400D01*
X83047630Y-37797690D01*
X83038500Y-37750601D01*
X83038500Y-30006756D01*
X83058502Y-29938635D01*
X83080435Y-29912899D01*
X83152970Y-29847931D01*
X83156286Y-29844961D01*
X83199585Y-29793451D01*
X83326601Y-29642348D01*
X83326606Y-29642342D01*
X83329465Y-29638940D01*
X83471887Y-29410572D01*
X83492336Y-29364319D01*
X83548400Y-29237504D01*
X83580712Y-29164416D01*
X83653767Y-28905382D01*
X83672450Y-28766284D01*
X83689168Y-28641820D01*
X83689169Y-28641812D01*
X83689595Y-28638638D01*
X83689931Y-28627954D01*
X83693254Y-28522222D01*
X83693254Y-28522217D01*
X83693355Y-28519000D01*
X83674347Y-28250533D01*
X83617700Y-27987423D01*
X83598188Y-27934531D01*
X83526090Y-27739101D01*
X83526089Y-27739099D01*
X83524547Y-27734919D01*
X83467593Y-27629365D01*
X83452848Y-27559918D01*
X83480839Y-27489898D01*
X83523537Y-27437546D01*
X83523542Y-27437539D01*
X83527573Y-27432596D01*
X83621741Y-27252470D01*
X83677766Y-27057087D01*
X83688500Y-26936816D01*
X83688500Y-25021184D01*
X83677766Y-24900913D01*
X83621741Y-24705530D01*
X83527573Y-24525404D01*
X83399109Y-24367891D01*
X83241596Y-24239427D01*
X83061470Y-24145259D01*
X82866087Y-24089234D01*
X82834455Y-24086411D01*
X82748609Y-24078749D01*
X82748603Y-24078749D01*
X82745816Y-24078500D01*
X82517384Y-24078500D01*
X82449263Y-24058498D01*
X82402770Y-24004842D01*
X82392666Y-23934568D01*
X82422160Y-23869988D01*
X82467647Y-23836732D01*
X82621710Y-23770542D01*
X82625690Y-23768079D01*
X82625694Y-23768077D01*
X82845302Y-23632179D01*
X82845306Y-23632176D01*
X82849275Y-23629720D01*
X82863010Y-23618092D01*
X83049960Y-23459828D01*
X83049961Y-23459827D01*
X83053526Y-23456809D01*
X83147365Y-23349807D01*
X83226894Y-23259122D01*
X83226898Y-23259117D01*
X83229976Y-23255607D01*
X83232506Y-23251674D01*
X83372219Y-23034465D01*
X83372222Y-23034460D01*
X83374747Y-23030534D01*
X83484661Y-22786534D01*
X83557302Y-22528969D01*
X83575103Y-22389041D01*
X83590677Y-22266625D01*
X83590677Y-22266621D01*
X83591075Y-22263495D01*
X83593549Y-22169000D01*
X83573717Y-21902123D01*
X83563161Y-21855470D01*
X83515686Y-21645666D01*
X83514655Y-21641109D01*
X83417662Y-21391691D01*
X83284868Y-21159350D01*
X83119190Y-20949189D01*
X82924269Y-20765825D01*
X82704385Y-20613286D01*
X82700194Y-20611219D01*
X82468559Y-20496989D01*
X82468556Y-20496988D01*
X82464371Y-20494924D01*
X82209497Y-20413338D01*
X82064134Y-20389665D01*
X81949976Y-20371073D01*
X81949975Y-20371073D01*
X81945364Y-20370322D01*
X81811569Y-20368571D01*
X81682451Y-20366880D01*
X81682448Y-20366880D01*
X81677774Y-20366819D01*
X81412605Y-20402907D01*
X81408118Y-20404215D01*
X81408117Y-20404215D01*
X81376817Y-20413338D01*
X81155683Y-20477792D01*
X81151430Y-20479752D01*
X81151429Y-20479753D01*
X81099512Y-20503687D01*
X80912652Y-20589831D01*
X80908743Y-20592394D01*
X80692764Y-20733996D01*
X80692759Y-20734000D01*
X80688851Y-20736562D01*
X80489197Y-20914760D01*
X80318075Y-21120512D01*
X80179244Y-21349298D01*
X80075755Y-21596091D01*
X80074604Y-21600623D01*
X80074603Y-21600626D01*
X80011033Y-21850933D01*
X80009881Y-21855470D01*
X79983070Y-22121736D01*
X79995909Y-22389041D01*
X80048118Y-22651512D01*
X80138549Y-22903383D01*
X80140765Y-22907507D01*
X80208982Y-23034465D01*
X80265215Y-23139121D01*
X80268010Y-23142864D01*
X80268012Y-23142867D01*
X80352199Y-23255607D01*
X80425335Y-23353547D01*
X80428642Y-23356825D01*
X80428647Y-23356831D01*
X80612074Y-23538663D01*
X80615390Y-23541950D01*
X80831205Y-23700192D01*
X80835340Y-23702368D01*
X80835344Y-23702370D01*
X80964918Y-23770542D01*
X81068039Y-23824797D01*
X81093091Y-23833546D01*
X81150807Y-23874887D01*
X81177011Y-23940870D01*
X81163382Y-24010546D01*
X81114247Y-24061793D01*
X81051549Y-24078500D01*
X80830184Y-24078500D01*
X80827397Y-24078749D01*
X80827391Y-24078749D01*
X80741545Y-24086411D01*
X80709913Y-24089234D01*
X80514530Y-24145259D01*
X80334404Y-24239427D01*
X80176891Y-24367891D01*
X80048427Y-24525404D01*
X79954259Y-24705530D01*
X79898234Y-24900913D01*
X79887500Y-25021184D01*
X79887500Y-26936816D01*
X79898234Y-27057087D01*
X79954259Y-27252470D01*
X80048427Y-27432596D01*
X80052458Y-27437539D01*
X80052459Y-27437540D01*
X80094176Y-27488690D01*
X80121730Y-27554122D01*
X80109534Y-27624064D01*
X80105487Y-27631611D01*
X80079173Y-27676913D01*
X80079170Y-27676919D01*
X80076939Y-27680760D01*
X80075269Y-27684883D01*
X80054618Y-27735869D01*
X79975900Y-27930213D01*
X79974829Y-27934526D01*
X79974827Y-27934531D01*
X79942398Y-28065084D01*
X79911017Y-28191414D01*
X79883585Y-28459151D01*
X79883760Y-28463602D01*
X79892625Y-28689210D01*
X79894152Y-28728083D01*
X79942505Y-28992843D01*
X80027682Y-29248148D01*
X80029674Y-29252135D01*
X80029675Y-29252137D01*
X80088031Y-29368925D01*
X80147981Y-29488905D01*
X80301003Y-29710309D01*
X80360782Y-29774977D01*
X80428220Y-29847931D01*
X80483695Y-29907944D01*
X80487142Y-29910750D01*
X80487151Y-29910758D01*
X80491051Y-29913933D01*
X80531250Y-29972453D01*
X80537500Y-30011645D01*
X80537500Y-38135670D01*
X80517498Y-38203791D01*
X80509143Y-38215305D01*
X80423427Y-38320404D01*
X80329259Y-38500530D01*
X80273234Y-38695913D01*
X80262500Y-38816184D01*
X80262500Y-40431816D01*
X80273234Y-40552087D01*
X80329259Y-40747470D01*
X80423427Y-40927596D01*
X80427458Y-40932539D01*
X80427459Y-40932540D01*
X80540150Y-41070713D01*
X80551891Y-41085109D01*
X80556831Y-41089138D01*
X80637822Y-41155192D01*
X80709404Y-41213573D01*
X80889530Y-41307741D01*
X81084913Y-41363766D01*
X81113978Y-41366360D01*
X81202391Y-41374251D01*
X81202397Y-41374251D01*
X81205184Y-41374500D01*
X82370816Y-41374500D01*
X82373603Y-41374251D01*
X82373609Y-41374251D01*
X82462022Y-41366360D01*
X82491087Y-41363766D01*
X82537993Y-41350316D01*
X82611889Y-41329127D01*
X82672385Y-41326909D01*
X82839023Y-41361721D01*
X82866182Y-41367395D01*
X82938815Y-41370693D01*
X82957216Y-41371529D01*
X83024359Y-41394600D01*
X83068370Y-41450310D01*
X83077500Y-41497399D01*
X83077500Y-47901001D01*
X83057498Y-47969122D01*
X83003842Y-48015615D01*
X82933568Y-48025719D01*
X82885666Y-48008434D01*
X82857914Y-47991428D01*
X82857910Y-47991426D01*
X82854245Y-47989180D01*
X82836237Y-47981275D01*
X82595928Y-47875786D01*
X82595924Y-47875785D01*
X82592000Y-47874062D01*
X82316557Y-47795600D01*
X82099449Y-47764701D01*
X82037266Y-47755851D01*
X82037264Y-47755851D01*
X82033014Y-47755246D01*
X81881151Y-47754451D01*
X81750904Y-47753769D01*
X81750898Y-47753769D01*
X81746618Y-47753747D01*
X81742374Y-47754306D01*
X81742370Y-47754306D01*
X81659364Y-47765234D01*
X81462669Y-47791129D01*
X81458529Y-47792262D01*
X81458527Y-47792262D01*
X81442027Y-47796776D01*
X81186420Y-47866702D01*
X81182472Y-47868386D01*
X80926935Y-47977382D01*
X80926931Y-47977384D01*
X80922983Y-47979068D01*
X80677233Y-48126146D01*
X80673882Y-48128830D01*
X80673880Y-48128832D01*
X80579280Y-48204621D01*
X80453718Y-48305215D01*
X80450760Y-48308332D01*
X80450759Y-48308333D01*
X80318990Y-48447188D01*
X80257590Y-48482832D01*
X80186666Y-48479623D01*
X80128736Y-48438578D01*
X80106473Y-48395181D01*
X80104319Y-48387667D01*
X80104318Y-48387665D01*
X80102559Y-48381530D01*
X80008391Y-48201404D01*
X80003424Y-48195313D01*
X79883956Y-48048831D01*
X79879927Y-48043891D01*
X79857646Y-48025719D01*
X79727358Y-47919459D01*
X79727357Y-47919458D01*
X79722414Y-47915427D01*
X79712971Y-47910490D01*
X79643290Y-47874062D01*
X79542288Y-47821259D01*
X79346905Y-47765234D01*
X79315273Y-47762411D01*
X79229427Y-47754749D01*
X79229421Y-47754749D01*
X79226634Y-47754500D01*
X76911002Y-47754500D01*
X76908215Y-47754749D01*
X76908209Y-47754749D01*
X76822363Y-47762411D01*
X76790731Y-47765234D01*
X76595348Y-47821259D01*
X76494346Y-47874062D01*
X76424666Y-47910490D01*
X76415222Y-47915427D01*
X76410279Y-47919458D01*
X76410278Y-47919459D01*
X76279990Y-48025719D01*
X76257709Y-48043891D01*
X76253680Y-48048831D01*
X76134213Y-48195313D01*
X76129245Y-48201404D01*
X76035077Y-48381530D01*
X75979052Y-48576913D01*
X75968318Y-48697184D01*
X75968318Y-51012816D01*
X70338500Y-51012816D01*
X70338500Y-48421854D01*
X70339578Y-48405408D01*
X70341720Y-48389137D01*
X70342452Y-48383577D01*
X70342034Y-48374702D01*
X70338640Y-48302742D01*
X70338500Y-48296807D01*
X70338500Y-48274370D01*
X70338252Y-48271586D01*
X70338251Y-48271574D01*
X70336195Y-48248539D01*
X70335836Y-48243276D01*
X70332201Y-48166203D01*
X70331937Y-48160602D01*
X70330686Y-48155139D01*
X70330685Y-48155133D01*
X70327972Y-48143289D01*
X70325290Y-48126355D01*
X70325257Y-48125990D01*
X70323711Y-48108661D01*
X70307344Y-48048831D01*
X70301870Y-48028823D01*
X70300584Y-48023705D01*
X70283355Y-47948478D01*
X70283355Y-47948477D01*
X70282103Y-47943012D01*
X70275131Y-47926665D01*
X70269498Y-47910490D01*
X70266289Y-47898761D01*
X70266288Y-47898757D01*
X70264808Y-47893349D01*
X70230423Y-47821259D01*
X70229171Y-47818634D01*
X70227000Y-47813825D01*
X70196725Y-47742847D01*
X70196725Y-47742846D01*
X70194524Y-47737687D01*
X70184764Y-47722829D01*
X70176358Y-47707909D01*
X70168708Y-47691871D01*
X70154812Y-47672532D01*
X70120393Y-47624631D01*
X70117405Y-47620284D01*
X70071969Y-47551115D01*
X70053593Y-47530491D01*
X70045352Y-47520204D01*
X70038448Y-47510595D01*
X69962209Y-47436714D01*
X69960799Y-47435325D01*
X64787405Y-42261931D01*
X64753379Y-42199619D01*
X64750500Y-42172836D01*
X64750500Y-41570229D01*
X64770502Y-41502108D01*
X64824158Y-41455615D01*
X64862017Y-41445064D01*
X65067268Y-41421316D01*
X65144841Y-41399365D01*
X65213876Y-41399486D01*
X65223271Y-41402180D01*
X65336913Y-41434766D01*
X65367367Y-41437484D01*
X65454391Y-41445251D01*
X65454397Y-41445251D01*
X65457184Y-41445500D01*
X66622816Y-41445500D01*
X66625603Y-41445251D01*
X66625609Y-41445251D01*
X66712633Y-41437484D01*
X66743087Y-41434766D01*
X66938470Y-41378741D01*
X67118596Y-41284573D01*
X67190179Y-41226192D01*
X67271169Y-41160138D01*
X67276109Y-41156109D01*
X67299617Y-41127285D01*
X67400541Y-41003540D01*
X67400542Y-41003539D01*
X67404573Y-40998596D01*
X67498741Y-40818470D01*
X67554766Y-40623087D01*
X67561636Y-40546114D01*
X67565251Y-40505609D01*
X67565251Y-40505603D01*
X67565500Y-40502816D01*
X67565500Y-38887184D01*
X67564524Y-38876242D01*
X67555299Y-38772886D01*
X67554766Y-38766913D01*
X67498741Y-38571530D01*
X67404573Y-38391404D01*
X67346667Y-38320404D01*
X67318857Y-38286305D01*
X67291303Y-38220874D01*
X67290500Y-38206670D01*
X67290500Y-30641862D01*
X67291578Y-30625415D01*
X67293720Y-30609147D01*
X67293720Y-30609145D01*
X67294453Y-30603578D01*
X67290640Y-30522729D01*
X67290500Y-30516793D01*
X67290500Y-30494370D01*
X67288196Y-30468548D01*
X67287837Y-30463287D01*
X67285574Y-30415309D01*
X67283937Y-30380602D01*
X67282686Y-30375139D01*
X67282685Y-30375133D01*
X67279972Y-30363289D01*
X67277290Y-30346355D01*
X67276210Y-30334257D01*
X67275711Y-30328661D01*
X67273312Y-30319892D01*
X67253869Y-30248819D01*
X67252583Y-30243701D01*
X67235355Y-30168479D01*
X67235355Y-30168478D01*
X67234103Y-30163013D01*
X67231905Y-30157859D01*
X67231901Y-30157848D01*
X67227134Y-30146674D01*
X67221495Y-30130483D01*
X67218290Y-30118767D01*
X67216808Y-30113349D01*
X67181165Y-30038623D01*
X67179007Y-30033843D01*
X67171121Y-30015354D01*
X67146524Y-29957687D01*
X67136764Y-29942829D01*
X67128358Y-29927909D01*
X67120708Y-29911871D01*
X67105043Y-29890071D01*
X67072402Y-29844646D01*
X67069413Y-29840297D01*
X67047393Y-29806774D01*
X67023970Y-29771116D01*
X67020896Y-29767666D01*
X67020890Y-29767658D01*
X67005596Y-29750492D01*
X66997352Y-29740203D01*
X66990448Y-29730595D01*
X66914209Y-29656714D01*
X66912799Y-29655325D01*
X65947740Y-28690266D01*
X65913714Y-28627954D01*
X65910897Y-28597213D01*
X65913254Y-28522222D01*
X65913254Y-28522217D01*
X65913355Y-28519000D01*
X65894347Y-28250533D01*
X65837700Y-27987423D01*
X65818188Y-27934531D01*
X65746090Y-27739101D01*
X65746089Y-27739099D01*
X65744547Y-27734919D01*
X65687593Y-27629365D01*
X65672848Y-27559918D01*
X65700839Y-27489898D01*
X65743537Y-27437546D01*
X65743542Y-27437539D01*
X65747573Y-27432596D01*
X65841741Y-27252470D01*
X65897766Y-27057087D01*
X65908500Y-26936816D01*
X65908500Y-25021184D01*
X65897766Y-24900913D01*
X65841741Y-24705530D01*
X65747573Y-24525404D01*
X65619109Y-24367891D01*
X65461596Y-24239427D01*
X65281470Y-24145259D01*
X65086087Y-24089234D01*
X65054455Y-24086411D01*
X64968609Y-24078749D01*
X64968603Y-24078749D01*
X64965816Y-24078500D01*
X64737384Y-24078500D01*
X64669263Y-24058498D01*
X64622770Y-24004842D01*
X64612666Y-23934568D01*
X64642160Y-23869988D01*
X64687647Y-23836732D01*
X64841710Y-23770542D01*
X64845690Y-23768079D01*
X64845694Y-23768077D01*
X65065302Y-23632179D01*
X65065306Y-23632176D01*
X65069275Y-23629720D01*
X65083010Y-23618092D01*
X65269960Y-23459828D01*
X65269961Y-23459827D01*
X65273526Y-23456809D01*
X65367365Y-23349807D01*
X65446894Y-23259122D01*
X65446898Y-23259117D01*
X65449976Y-23255607D01*
X65452506Y-23251674D01*
X65592219Y-23034465D01*
X65592222Y-23034460D01*
X65594747Y-23030534D01*
X65704661Y-22786534D01*
X65777302Y-22528969D01*
X65795103Y-22389041D01*
X65810677Y-22266625D01*
X65810677Y-22266621D01*
X65811075Y-22263495D01*
X65813549Y-22169000D01*
X65793717Y-21902123D01*
X65783161Y-21855470D01*
X65735686Y-21645666D01*
X65734655Y-21641109D01*
X65637662Y-21391691D01*
X65504868Y-21159350D01*
X65339190Y-20949189D01*
X65144269Y-20765825D01*
X64924385Y-20613286D01*
X64920194Y-20611219D01*
X64688559Y-20496989D01*
X64688556Y-20496988D01*
X64684371Y-20494924D01*
X64429497Y-20413338D01*
X64284134Y-20389665D01*
X64169976Y-20371073D01*
X64169975Y-20371073D01*
X64165364Y-20370322D01*
X64031569Y-20368571D01*
X63902451Y-20366880D01*
X63902448Y-20366880D01*
X63897774Y-20366819D01*
X63632605Y-20402907D01*
X63628118Y-20404215D01*
X63628117Y-20404215D01*
X63596817Y-20413338D01*
X63375683Y-20477792D01*
X63371430Y-20479752D01*
X63371429Y-20479753D01*
X63319512Y-20503687D01*
X63132652Y-20589831D01*
X63128743Y-20592394D01*
X62912764Y-20733996D01*
X62912759Y-20734000D01*
X62908851Y-20736562D01*
X62709197Y-20914760D01*
X62538075Y-21120512D01*
X62399244Y-21349298D01*
X62295755Y-21596091D01*
X62294604Y-21600623D01*
X62294603Y-21600626D01*
X62231033Y-21850933D01*
X62229881Y-21855470D01*
X62203070Y-22121736D01*
X62215909Y-22389041D01*
X62268118Y-22651512D01*
X62358549Y-22903383D01*
X62360765Y-22907507D01*
X62428982Y-23034465D01*
X62485215Y-23139121D01*
X62488010Y-23142864D01*
X62488012Y-23142867D01*
X62572199Y-23255607D01*
X62645335Y-23353547D01*
X62648642Y-23356825D01*
X62648647Y-23356831D01*
X62832074Y-23538663D01*
X62835390Y-23541950D01*
X63051205Y-23700192D01*
X63055340Y-23702368D01*
X63055344Y-23702370D01*
X63184918Y-23770542D01*
X63288039Y-23824797D01*
X63313091Y-23833546D01*
X63370807Y-23874887D01*
X63397011Y-23940870D01*
X63383382Y-24010546D01*
X63334247Y-24061793D01*
X63271549Y-24078500D01*
X63050184Y-24078500D01*
X63047397Y-24078749D01*
X63047391Y-24078749D01*
X62961545Y-24086411D01*
X62929913Y-24089234D01*
X62734530Y-24145259D01*
X62554404Y-24239427D01*
X62396891Y-24367891D01*
X62268427Y-24525404D01*
X62174259Y-24705530D01*
X62118234Y-24900913D01*
X62107500Y-25021184D01*
X62107500Y-26936816D01*
X62118234Y-27057087D01*
X62174259Y-27252470D01*
X62268427Y-27432596D01*
X62272458Y-27437539D01*
X62272459Y-27437540D01*
X62314176Y-27488690D01*
X62341730Y-27554122D01*
X62329534Y-27624064D01*
X62325487Y-27631611D01*
X62299173Y-27676913D01*
X62299170Y-27676919D01*
X62296939Y-27680760D01*
X62295269Y-27684883D01*
X62274618Y-27735869D01*
X62195900Y-27930213D01*
X62194829Y-27934526D01*
X62194827Y-27934531D01*
X62162398Y-28065084D01*
X62131017Y-28191414D01*
X62103585Y-28459151D01*
X62103760Y-28463602D01*
X62112625Y-28689210D01*
X62114152Y-28728083D01*
X62162505Y-28992843D01*
X62247682Y-29248148D01*
X62249674Y-29252135D01*
X62249675Y-29252137D01*
X62308031Y-29368925D01*
X62367981Y-29488905D01*
X62521003Y-29710309D01*
X62524025Y-29713578D01*
X62700679Y-29904682D01*
X62700684Y-29904687D01*
X62703695Y-29907944D01*
X62912411Y-30077866D01*
X62916229Y-30080165D01*
X62916231Y-30080166D01*
X63013572Y-30138770D01*
X63142987Y-30216684D01*
X63147082Y-30218418D01*
X63147084Y-30218419D01*
X63386721Y-30319892D01*
X63386728Y-30319894D01*
X63390822Y-30321628D01*
X63484080Y-30346355D01*
X63646675Y-30389467D01*
X63646680Y-30389468D01*
X63650972Y-30390606D01*
X63655381Y-30391128D01*
X63655387Y-30391129D01*
X63831041Y-30411919D01*
X63918245Y-30422240D01*
X63975176Y-30420898D01*
X64083674Y-30418342D01*
X64152247Y-30436734D01*
X64175737Y-30455212D01*
X64752595Y-31032070D01*
X64786621Y-31094382D01*
X64789500Y-31121165D01*
X64789500Y-37819771D01*
X64769498Y-37887892D01*
X64715842Y-37934385D01*
X64677983Y-37944936D01*
X64472732Y-37968684D01*
X64467861Y-37970062D01*
X64467858Y-37970063D01*
X64295702Y-38018779D01*
X64236523Y-38035525D01*
X64187211Y-38058519D01*
X64117021Y-38069180D01*
X64088808Y-38061955D01*
X63987299Y-38022989D01*
X63932113Y-38001805D01*
X63927167Y-38000772D01*
X63927161Y-38000770D01*
X63696772Y-37952640D01*
X63696773Y-37952640D01*
X63691818Y-37951605D01*
X63686769Y-37951376D01*
X63686763Y-37951375D01*
X63574846Y-37946293D01*
X63446588Y-37940469D01*
X63441568Y-37941050D01*
X63441564Y-37941050D01*
X63220182Y-37966665D01*
X63202732Y-37968684D01*
X63197861Y-37970062D01*
X63197858Y-37970063D01*
X63098496Y-37998180D01*
X62966523Y-38035525D01*
X62855281Y-38087398D01*
X62748622Y-38137133D01*
X62748618Y-38137135D01*
X62744040Y-38139270D01*
X62739859Y-38142112D01*
X62739858Y-38142112D01*
X62545193Y-38274406D01*
X62545189Y-38274409D01*
X62541006Y-38277252D01*
X62537329Y-38280729D01*
X62537328Y-38280730D01*
X62475657Y-38339049D01*
X62412419Y-38371320D01*
X62389084Y-38373500D01*
X59768518Y-38373500D01*
X59700397Y-38353498D01*
X59682185Y-38339275D01*
X59559670Y-38224024D01*
X59559667Y-38224022D01*
X59556269Y-38220825D01*
X59336385Y-38068286D01*
X59332194Y-38066219D01*
X59100559Y-37951989D01*
X59100556Y-37951988D01*
X59096371Y-37949924D01*
X59077178Y-37943780D01*
X58933174Y-37897684D01*
X58841497Y-37868338D01*
X58696134Y-37844665D01*
X58581976Y-37826073D01*
X58581975Y-37826073D01*
X58577364Y-37825322D01*
X58443569Y-37823571D01*
X58314451Y-37821880D01*
X58314448Y-37821880D01*
X58309774Y-37821819D01*
X58044605Y-37857907D01*
X58040118Y-37859215D01*
X58040117Y-37859215D01*
X57993577Y-37872780D01*
X57787683Y-37932792D01*
X57783430Y-37934752D01*
X57783429Y-37934753D01*
X57744629Y-37952640D01*
X57544652Y-38044831D01*
X57518534Y-38061955D01*
X57324764Y-38188996D01*
X57324759Y-38189000D01*
X57320851Y-38191562D01*
X57253656Y-38251536D01*
X57155353Y-38339275D01*
X57121197Y-38369760D01*
X56950075Y-38575512D01*
X56947652Y-38579505D01*
X56827266Y-38777895D01*
X56811244Y-38804298D01*
X56809437Y-38808606D01*
X56809437Y-38808607D01*
X56745980Y-38959936D01*
X56707755Y-39051091D01*
X56706604Y-39055623D01*
X56706603Y-39055626D01*
X56678229Y-39167350D01*
X56641881Y-39310470D01*
X56615070Y-39576736D01*
X56158037Y-39576736D01*
X56152520Y-39502495D01*
X56142064Y-39361788D01*
X56142063Y-39361784D01*
X56141717Y-39357123D01*
X56131161Y-39310470D01*
X56083686Y-39100666D01*
X56082655Y-39096109D01*
X56030713Y-38962539D01*
X55987355Y-38851044D01*
X55987354Y-38851042D01*
X55985662Y-38846691D01*
X55966630Y-38813391D01*
X55855187Y-38618408D01*
X55852868Y-38614350D01*
X55687190Y-38404189D01*
X55492269Y-38220825D01*
X55272385Y-38068286D01*
X55268194Y-38066219D01*
X55036559Y-37951989D01*
X55036556Y-37951988D01*
X55032371Y-37949924D01*
X55013178Y-37943780D01*
X54869174Y-37897684D01*
X54777497Y-37868338D01*
X54632134Y-37844665D01*
X54517976Y-37826073D01*
X54517975Y-37826073D01*
X54513364Y-37825322D01*
X54379569Y-37823571D01*
X54250451Y-37821880D01*
X54250448Y-37821880D01*
X54245774Y-37821819D01*
X53980605Y-37857907D01*
X53976118Y-37859215D01*
X53976117Y-37859215D01*
X53929577Y-37872780D01*
X53723683Y-37932792D01*
X53719430Y-37934752D01*
X53719429Y-37934753D01*
X53680629Y-37952640D01*
X53480652Y-38044831D01*
X53454534Y-38061955D01*
X53260764Y-38188996D01*
X53260759Y-38189000D01*
X53256851Y-38191562D01*
X53189656Y-38251536D01*
X53088856Y-38341503D01*
X53024715Y-38371941D01*
X53004955Y-38373500D01*
X49954534Y-38373500D01*
X49886413Y-38353498D01*
X49860020Y-38330825D01*
X49834497Y-38301874D01*
X49834494Y-38301871D01*
X49831149Y-38298077D01*
X49820301Y-38289166D01*
X49645362Y-38145470D01*
X49645359Y-38145468D01*
X49641456Y-38142262D01*
X49429291Y-38018779D01*
X49200113Y-37930805D01*
X49195167Y-37929772D01*
X49195161Y-37929770D01*
X48964772Y-37881640D01*
X48964773Y-37881640D01*
X48959818Y-37880605D01*
X48954769Y-37880376D01*
X48954763Y-37880375D01*
X48842846Y-37875293D01*
X48714588Y-37869469D01*
X48709568Y-37870050D01*
X48709564Y-37870050D01*
X48483031Y-37896261D01*
X48470732Y-37897684D01*
X48465861Y-37899062D01*
X48465858Y-37899063D01*
X48318502Y-37940761D01*
X48234523Y-37964525D01*
X48185211Y-37987519D01*
X48115021Y-37998180D01*
X48086808Y-37990955D01*
X48014361Y-37963145D01*
X47930113Y-37930805D01*
X47925167Y-37929772D01*
X47925161Y-37929770D01*
X47694772Y-37881640D01*
X47694773Y-37881640D01*
X47689818Y-37880605D01*
X47684769Y-37880376D01*
X47684763Y-37880375D01*
X47598784Y-37876471D01*
X47531641Y-37853400D01*
X47487630Y-37797690D01*
X47478500Y-37750601D01*
X47478500Y-30006756D01*
X47498502Y-29938635D01*
X47520435Y-29912899D01*
X47592970Y-29847931D01*
X47596286Y-29844961D01*
X47639585Y-29793451D01*
X47766601Y-29642348D01*
X47766606Y-29642342D01*
X47769465Y-29638940D01*
X47911887Y-29410572D01*
X47932336Y-29364319D01*
X47988400Y-29237504D01*
X48020712Y-29164416D01*
X48093767Y-28905382D01*
X48112450Y-28766284D01*
X48129168Y-28641820D01*
X48129169Y-28641812D01*
X48129595Y-28638638D01*
X48129931Y-28627954D01*
X48133254Y-28522222D01*
X48133254Y-28522217D01*
X48133355Y-28519000D01*
X48114347Y-28250533D01*
X48057700Y-27987423D01*
X48038188Y-27934531D01*
X47966090Y-27739101D01*
X47966089Y-27739099D01*
X47964547Y-27734919D01*
X47907593Y-27629365D01*
X47892848Y-27559918D01*
X47920839Y-27489898D01*
X47963537Y-27437546D01*
X47963542Y-27437539D01*
X47967573Y-27432596D01*
X48061741Y-27252470D01*
X48117766Y-27057087D01*
X48128500Y-26936816D01*
X48128500Y-25021184D01*
X48117766Y-24900913D01*
X48061741Y-24705530D01*
X47967573Y-24525404D01*
X47839109Y-24367891D01*
X47681596Y-24239427D01*
X47501470Y-24145259D01*
X47306087Y-24089234D01*
X47274455Y-24086411D01*
X47188609Y-24078749D01*
X47188603Y-24078749D01*
X47185816Y-24078500D01*
X46957384Y-24078500D01*
X46889263Y-24058498D01*
X46842770Y-24004842D01*
X46832666Y-23934568D01*
X46862160Y-23869988D01*
X46907647Y-23836732D01*
X47061710Y-23770542D01*
X47065690Y-23768079D01*
X47065694Y-23768077D01*
X47285302Y-23632179D01*
X47285306Y-23632176D01*
X47289275Y-23629720D01*
X47303010Y-23618092D01*
X47489960Y-23459828D01*
X47489961Y-23459827D01*
X47493526Y-23456809D01*
X47587365Y-23349807D01*
X47666894Y-23259122D01*
X47666898Y-23259117D01*
X47669976Y-23255607D01*
X47672506Y-23251674D01*
X47812219Y-23034465D01*
X47812222Y-23034460D01*
X47814747Y-23030534D01*
X47924661Y-22786534D01*
X47997302Y-22528969D01*
X48015103Y-22389041D01*
X48030677Y-22266625D01*
X48030677Y-22266621D01*
X48031075Y-22263495D01*
X48033549Y-22169000D01*
X48013717Y-21902123D01*
X48003161Y-21855470D01*
X47955686Y-21645666D01*
X47954655Y-21641109D01*
X47857662Y-21391691D01*
X47724868Y-21159350D01*
X47559190Y-20949189D01*
X47364269Y-20765825D01*
X47144385Y-20613286D01*
X47140194Y-20611219D01*
X46908559Y-20496989D01*
X46908556Y-20496988D01*
X46904371Y-20494924D01*
X46649497Y-20413338D01*
X46504134Y-20389665D01*
X46389976Y-20371073D01*
X46389975Y-20371073D01*
X46385364Y-20370322D01*
X46251569Y-20368571D01*
X46122451Y-20366880D01*
X46122448Y-20366880D01*
X46117774Y-20366819D01*
X45852605Y-20402907D01*
X45848118Y-20404215D01*
X45848117Y-20404215D01*
X45816817Y-20413338D01*
X45595683Y-20477792D01*
X45591430Y-20479752D01*
X45591429Y-20479753D01*
X45539512Y-20503687D01*
X45352652Y-20589831D01*
X45348743Y-20592394D01*
X45132764Y-20733996D01*
X45132759Y-20734000D01*
X45128851Y-20736562D01*
X44929197Y-20914760D01*
X44758075Y-21120512D01*
X44619244Y-21349298D01*
X44515755Y-21596091D01*
X44514604Y-21600623D01*
X44514603Y-21600626D01*
X44451033Y-21850933D01*
X44449881Y-21855470D01*
X44423070Y-22121736D01*
X44435909Y-22389041D01*
X44488118Y-22651512D01*
X44578549Y-22903383D01*
X44580765Y-22907507D01*
X44648982Y-23034465D01*
X44705215Y-23139121D01*
X44708010Y-23142864D01*
X44708012Y-23142867D01*
X44792199Y-23255607D01*
X44865335Y-23353547D01*
X44868642Y-23356825D01*
X44868647Y-23356831D01*
X45052074Y-23538663D01*
X45055390Y-23541950D01*
X45271205Y-23700192D01*
X45275340Y-23702368D01*
X45275344Y-23702370D01*
X45404918Y-23770542D01*
X45508039Y-23824797D01*
X45533091Y-23833546D01*
X45590807Y-23874887D01*
X45617011Y-23940870D01*
X45603382Y-24010546D01*
X45554247Y-24061793D01*
X45491549Y-24078500D01*
X45270184Y-24078500D01*
X45267397Y-24078749D01*
X45267391Y-24078749D01*
X45181545Y-24086411D01*
X45149913Y-24089234D01*
X44954530Y-24145259D01*
X44774404Y-24239427D01*
X44616891Y-24367891D01*
X44488427Y-24525404D01*
X44394259Y-24705530D01*
X44338234Y-24900913D01*
X44327500Y-25021184D01*
X44327500Y-26936816D01*
X44338234Y-27057087D01*
X44394259Y-27252470D01*
X44488427Y-27432596D01*
X44492458Y-27437539D01*
X44492459Y-27437540D01*
X44534176Y-27488690D01*
X44561730Y-27554122D01*
X44549534Y-27624064D01*
X44545487Y-27631611D01*
X44519173Y-27676913D01*
X44519170Y-27676919D01*
X44516939Y-27680760D01*
X44515269Y-27684883D01*
X44494618Y-27735869D01*
X44415900Y-27930213D01*
X44414829Y-27934526D01*
X44414827Y-27934531D01*
X44382398Y-28065084D01*
X44351017Y-28191414D01*
X44323585Y-28459151D01*
X44323760Y-28463602D01*
X44332625Y-28689210D01*
X44334152Y-28728083D01*
X44382505Y-28992843D01*
X44467682Y-29248148D01*
X44469674Y-29252135D01*
X44469675Y-29252137D01*
X44528031Y-29368925D01*
X44587981Y-29488905D01*
X44741003Y-29710309D01*
X44800782Y-29774977D01*
X44868220Y-29847931D01*
X44923695Y-29907944D01*
X44927142Y-29910750D01*
X44927151Y-29910758D01*
X44931051Y-29913933D01*
X44971250Y-29972453D01*
X44977500Y-30011645D01*
X44977500Y-38135670D01*
X44957498Y-38203791D01*
X44949143Y-38215305D01*
X44863427Y-38320404D01*
X44769259Y-38500530D01*
X44713234Y-38695913D01*
X44702500Y-38816184D01*
X44702500Y-40431816D01*
X44713234Y-40552087D01*
X44769259Y-40747470D01*
X44863427Y-40927596D01*
X44867458Y-40932539D01*
X44867459Y-40932540D01*
X44980150Y-41070713D01*
X44991891Y-41085109D01*
X44996831Y-41089138D01*
X45077822Y-41155192D01*
X45149404Y-41213573D01*
X45329530Y-41307741D01*
X45524913Y-41363766D01*
X45553978Y-41366360D01*
X45642391Y-41374251D01*
X45642397Y-41374251D01*
X45645184Y-41374500D01*
X46810816Y-41374500D01*
X46813603Y-41374251D01*
X46813609Y-41374251D01*
X46902022Y-41366360D01*
X46931087Y-41363766D01*
X46977993Y-41350316D01*
X47051889Y-41329127D01*
X47112385Y-41326909D01*
X47279023Y-41361721D01*
X47306182Y-41367395D01*
X47378815Y-41370693D01*
X47397216Y-41371529D01*
X47464359Y-41394600D01*
X47508370Y-41450310D01*
X47517500Y-41497399D01*
X47517500Y-47901001D01*
X47497498Y-47969122D01*
X47443842Y-48015615D01*
X47373568Y-48025719D01*
X47325666Y-48008434D01*
X47297914Y-47991428D01*
X47297910Y-47991426D01*
X47294245Y-47989180D01*
X47276237Y-47981275D01*
X47035928Y-47875786D01*
X47035924Y-47875785D01*
X47032000Y-47874062D01*
X46756557Y-47795600D01*
X46539449Y-47764701D01*
X46477266Y-47755851D01*
X46477264Y-47755851D01*
X46473014Y-47755246D01*
X46321151Y-47754451D01*
X46190904Y-47753769D01*
X46190898Y-47753769D01*
X46186618Y-47753747D01*
X46182374Y-47754306D01*
X46182370Y-47754306D01*
X46099364Y-47765234D01*
X45902669Y-47791129D01*
X45898529Y-47792262D01*
X45898527Y-47792262D01*
X45882027Y-47796776D01*
X45626420Y-47866702D01*
X45622472Y-47868386D01*
X45366935Y-47977382D01*
X45366931Y-47977384D01*
X45362983Y-47979068D01*
X45117233Y-48126146D01*
X45113882Y-48128830D01*
X45113880Y-48128832D01*
X45019280Y-48204621D01*
X44893718Y-48305215D01*
X44890760Y-48308332D01*
X44890759Y-48308333D01*
X44758990Y-48447188D01*
X44697590Y-48482832D01*
X44626666Y-48479623D01*
X44568736Y-48438578D01*
X44546473Y-48395181D01*
X44544319Y-48387667D01*
X44544318Y-48387665D01*
X44542559Y-48381530D01*
X44448391Y-48201404D01*
X44443424Y-48195313D01*
X44323956Y-48048831D01*
X44319927Y-48043891D01*
X44297646Y-48025719D01*
X44167358Y-47919459D01*
X44167357Y-47919458D01*
X44162414Y-47915427D01*
X44152971Y-47910490D01*
X44083290Y-47874062D01*
X43982288Y-47821259D01*
X43786905Y-47765234D01*
X43755273Y-47762411D01*
X43669427Y-47754749D01*
X43669421Y-47754749D01*
X43666634Y-47754500D01*
X41351002Y-47754500D01*
X41348215Y-47754749D01*
X41348209Y-47754749D01*
X41262363Y-47762411D01*
X41230731Y-47765234D01*
X41035348Y-47821259D01*
X40934346Y-47874062D01*
X40864666Y-47910490D01*
X40855222Y-47915427D01*
X40850279Y-47919458D01*
X40850278Y-47919459D01*
X40719990Y-48025719D01*
X40697709Y-48043891D01*
X40693680Y-48048831D01*
X40574213Y-48195313D01*
X40569245Y-48201404D01*
X40475077Y-48381530D01*
X40419052Y-48576913D01*
X40408318Y-48697184D01*
X40408318Y-51012816D01*
X29099347Y-51012816D01*
X29144620Y-50783122D01*
X29144847Y-50778566D01*
X29157745Y-50519474D01*
X29157745Y-50519468D01*
X29157972Y-50514905D01*
X29132466Y-50247569D01*
X29084428Y-50051250D01*
X29069721Y-49991149D01*
X29068636Y-49986715D01*
X28983130Y-49775610D01*
X28969531Y-49742037D01*
X28969531Y-49742036D01*
X28967818Y-49737808D01*
X28832125Y-49506062D01*
X28737765Y-49388070D01*
X28710841Y-49322378D01*
X28723707Y-49252557D01*
X28734297Y-49235226D01*
X28875538Y-49041183D01*
X28875540Y-49041180D01*
X28878225Y-49037491D01*
X28952841Y-48895668D01*
X29001140Y-48803868D01*
X29001143Y-48803862D01*
X29003265Y-48799828D01*
X29033201Y-48715058D01*
X29091165Y-48550916D01*
X29091165Y-48550915D01*
X29092688Y-48546603D01*
X29120250Y-48406767D01*
X29143739Y-48287594D01*
X29143740Y-48287588D01*
X29144620Y-48283122D01*
X29145195Y-48271574D01*
X29157745Y-48019474D01*
X29157745Y-48019468D01*
X29157972Y-48014905D01*
X29132466Y-47747569D01*
X29128903Y-47733006D01*
X29069721Y-47491149D01*
X29068636Y-47486715D01*
X29048384Y-47436714D01*
X28969531Y-47242037D01*
X28969531Y-47242036D01*
X28967818Y-47237808D01*
X28832125Y-47006062D01*
X28737765Y-46888070D01*
X28710841Y-46822378D01*
X28723707Y-46752557D01*
X28734297Y-46735226D01*
X28875538Y-46541183D01*
X28875540Y-46541180D01*
X28878225Y-46537491D01*
X28965313Y-46371963D01*
X29001140Y-46303868D01*
X29001143Y-46303862D01*
X29003265Y-46299828D01*
X29062703Y-46131515D01*
X29091165Y-46050916D01*
X29091165Y-46050915D01*
X29092688Y-46046603D01*
X29144620Y-45783122D01*
X29144847Y-45778566D01*
X29157745Y-45519474D01*
X29157745Y-45519468D01*
X29157972Y-45514905D01*
X29132466Y-45247569D01*
X29068636Y-44986715D01*
X28967818Y-44737808D01*
X28832125Y-44506062D01*
X28737765Y-44388070D01*
X28710841Y-44322378D01*
X28723707Y-44252557D01*
X28734297Y-44235226D01*
X28875538Y-44041183D01*
X28875540Y-44041180D01*
X28878225Y-44037491D01*
X28981366Y-43841452D01*
X29001140Y-43803868D01*
X29001143Y-43803862D01*
X29003265Y-43799828D01*
X29006652Y-43790239D01*
X29091165Y-43550916D01*
X29091165Y-43550915D01*
X29092688Y-43546603D01*
X29129097Y-43361879D01*
X29143739Y-43287594D01*
X29143740Y-43287588D01*
X29144620Y-43283122D01*
X29144847Y-43278566D01*
X29157745Y-43019474D01*
X29157745Y-43019468D01*
X29157972Y-43014905D01*
X29132466Y-42747569D01*
X29118483Y-42690422D01*
X29069721Y-42491149D01*
X29068636Y-42486715D01*
X28967818Y-42237808D01*
X28832125Y-42006062D01*
X28737765Y-41888070D01*
X28710841Y-41822378D01*
X28723707Y-41752557D01*
X28734297Y-41735226D01*
X28875538Y-41541183D01*
X28875540Y-41541180D01*
X28878225Y-41537491D01*
X28949415Y-41402180D01*
X29001140Y-41303868D01*
X29001143Y-41303862D01*
X29003265Y-41299828D01*
X29007609Y-41287529D01*
X29091165Y-41050916D01*
X29091165Y-41050915D01*
X29092688Y-41046603D01*
X29124365Y-40885886D01*
X29143739Y-40787594D01*
X29143740Y-40787588D01*
X29144620Y-40783122D01*
X29146395Y-40747470D01*
X29157745Y-40519474D01*
X29157745Y-40519468D01*
X29157972Y-40514905D01*
X29132466Y-40247569D01*
X29130990Y-40241534D01*
X29069721Y-39991149D01*
X29068636Y-39986715D01*
X29037714Y-39910371D01*
X28969531Y-39742037D01*
X28969531Y-39742036D01*
X28967818Y-39737808D01*
X28832125Y-39506062D01*
X28721211Y-39367371D01*
X28667251Y-39299897D01*
X28667250Y-39299895D01*
X28664399Y-39296331D01*
X28468154Y-39113009D01*
X28308436Y-39002208D01*
X28251254Y-38962539D01*
X28251249Y-38962536D01*
X28247501Y-38959936D01*
X28243416Y-38957904D01*
X28243413Y-38957902D01*
X28071560Y-38872407D01*
X28007062Y-38840320D01*
X28002728Y-38838899D01*
X28002725Y-38838898D01*
X27756207Y-38758085D01*
X27756202Y-38758084D01*
X27751874Y-38756665D01*
X27747382Y-38755885D01*
X27491064Y-38711380D01*
X27491056Y-38711379D01*
X27487283Y-38710724D01*
X27478622Y-38710293D01*
X27404004Y-38706578D01*
X27403996Y-38706578D01*
X27402433Y-38706500D01*
X26984777Y-38706500D01*
X26982509Y-38706665D01*
X26982497Y-38706665D01*
X26852177Y-38716121D01*
X26785154Y-38720984D01*
X26780699Y-38721968D01*
X26780696Y-38721968D01*
X26527380Y-38777895D01*
X26527376Y-38777896D01*
X26522920Y-38778880D01*
X26444457Y-38808607D01*
X26276059Y-38872407D01*
X26276056Y-38872408D01*
X26271789Y-38874025D01*
X26037024Y-39004426D01*
X26033392Y-39007198D01*
X25827167Y-39164583D01*
X25827163Y-39164587D01*
X25823542Y-39167350D01*
X25635815Y-39359386D01*
X25477775Y-39576509D01*
X25442750Y-39643081D01*
X25354860Y-39810132D01*
X25354857Y-39810138D01*
X25352735Y-39814172D01*
X25351215Y-39818477D01*
X25351213Y-39818481D01*
X25292773Y-39983969D01*
X25263312Y-40067397D01*
X25211380Y-40330878D01*
X25211153Y-40335431D01*
X25211153Y-40335434D01*
X25198276Y-40594121D01*
X25198028Y-40599095D01*
X25223534Y-40866431D01*
X25224619Y-40870865D01*
X25224620Y-40870871D01*
X25286279Y-41122851D01*
X25287364Y-41127285D01*
X25289076Y-41131511D01*
X25289077Y-41131515D01*
X25369950Y-41331180D01*
X25388182Y-41376192D01*
X25523875Y-41607938D01*
X25526728Y-41611505D01*
X25618235Y-41725929D01*
X25645159Y-41791622D01*
X25632293Y-41861443D01*
X25621704Y-41878772D01*
X25477775Y-42076509D01*
X25475651Y-42080547D01*
X25354860Y-42310132D01*
X25354857Y-42310138D01*
X25352735Y-42314172D01*
X25351215Y-42318477D01*
X25351213Y-42318481D01*
X25291804Y-42486715D01*
X25263312Y-42567397D01*
X25239064Y-42690422D01*
X25218092Y-42796826D01*
X25211380Y-42830878D01*
X25211153Y-42835431D01*
X25211153Y-42835434D01*
X25200712Y-43045181D01*
X25198028Y-43099095D01*
X25223534Y-43366431D01*
X25224619Y-43370865D01*
X25224620Y-43370871D01*
X25286279Y-43622851D01*
X25287364Y-43627285D01*
X25289076Y-43631511D01*
X25289077Y-43631515D01*
X25355506Y-43795519D01*
X25388182Y-43876192D01*
X25523875Y-44107938D01*
X25618235Y-44225929D01*
X25645159Y-44291622D01*
X25632293Y-44361443D01*
X25621703Y-44378774D01*
X25502650Y-44542335D01*
X25477775Y-44576509D01*
X25437381Y-44653286D01*
X25354860Y-44810132D01*
X25354857Y-44810138D01*
X25352735Y-44814172D01*
X25351215Y-44818477D01*
X25351213Y-44818481D01*
X25291804Y-44986715D01*
X25263312Y-45067397D01*
X25211380Y-45330878D01*
X25211153Y-45335431D01*
X25211153Y-45335434D01*
X25201992Y-45519474D01*
X25198028Y-45599095D01*
X25223534Y-45866431D01*
X25287364Y-46127285D01*
X25388182Y-46376192D01*
X25523875Y-46607938D01*
X25526728Y-46611505D01*
X25618235Y-46725929D01*
X25645159Y-46791622D01*
X25632293Y-46861443D01*
X25621704Y-46878772D01*
X25477775Y-47076509D01*
X25475651Y-47080547D01*
X25354860Y-47310132D01*
X25354857Y-47310138D01*
X25352735Y-47314172D01*
X25351215Y-47318477D01*
X25351213Y-47318481D01*
X25278084Y-47525567D01*
X25263312Y-47567397D01*
X25262429Y-47571879D01*
X25212693Y-47824217D01*
X25211380Y-47830878D01*
X25211153Y-47835431D01*
X25211153Y-47835434D01*
X25200977Y-48039862D01*
X25198028Y-48099095D01*
X25223534Y-48366431D01*
X25224619Y-48370865D01*
X25224620Y-48370871D01*
X25263975Y-48531701D01*
X25287364Y-48627285D01*
X25289076Y-48631511D01*
X25289077Y-48631515D01*
X25367652Y-48825507D01*
X25388182Y-48876192D01*
X25523875Y-49107938D01*
X25618235Y-49225929D01*
X25645159Y-49291622D01*
X25632293Y-49361443D01*
X25621704Y-49378772D01*
X25477775Y-49576509D01*
X25475651Y-49580547D01*
X25354860Y-49810132D01*
X25354857Y-49810138D01*
X25352735Y-49814172D01*
X25351215Y-49818477D01*
X25351213Y-49818481D01*
X25291804Y-49986715D01*
X25263312Y-50067397D01*
X25211380Y-50330878D01*
X25211153Y-50335431D01*
X25211153Y-50335434D01*
X25201992Y-50519474D01*
X25198028Y-50599095D01*
X19780500Y-50599095D01*
X19780500Y-35495825D01*
X19800502Y-35427704D01*
X19817405Y-35406730D01*
X22635729Y-32588405D01*
X22698041Y-32554379D01*
X22724824Y-32551500D01*
X23794671Y-32551500D01*
X23825047Y-32555216D01*
X23867138Y-32565672D01*
X23867143Y-32565673D01*
X23871459Y-32566745D01*
X23875887Y-32567199D01*
X23875889Y-32567199D01*
X23951589Y-32574955D01*
X24113072Y-32591500D01*
X25472170Y-32591500D01*
X25682593Y-32576601D01*
X25686948Y-32575663D01*
X25686951Y-32575663D01*
X25955200Y-32517911D01*
X25955202Y-32517911D01*
X25959547Y-32516975D01*
X26143020Y-32449288D01*
X26186632Y-32441500D01*
X26212138Y-32441500D01*
X26214677Y-32441293D01*
X26214689Y-32441293D01*
X26288768Y-32435267D01*
X26352902Y-32430051D01*
X26569113Y-32374537D01*
X26574216Y-32372201D01*
X26574218Y-32372200D01*
X26661325Y-32332319D01*
X26772075Y-32281614D01*
X26923150Y-32176614D01*
X26950767Y-32157420D01*
X26950769Y-32157418D01*
X26955375Y-32154217D01*
X27113217Y-31996375D01*
X27195357Y-31878192D01*
X27237413Y-31817681D01*
X27237414Y-31817679D01*
X27240614Y-31813075D01*
X27322823Y-31633515D01*
X27331200Y-31615218D01*
X27331201Y-31615216D01*
X27333537Y-31610113D01*
X27389051Y-31393902D01*
X27400500Y-31253138D01*
X27400500Y-30684097D01*
X27400970Y-30673225D01*
X27402577Y-30654665D01*
X27405363Y-30622503D01*
X27404322Y-30603578D01*
X27400690Y-30537594D01*
X27400500Y-30530670D01*
X27400500Y-29928862D01*
X27398748Y-29907313D01*
X27394267Y-29852232D01*
X27389051Y-29788098D01*
X27333537Y-29571887D01*
X27240614Y-29368925D01*
X27196788Y-29305868D01*
X27116420Y-29190233D01*
X27116418Y-29190231D01*
X27113217Y-29185625D01*
X26955375Y-29027783D01*
X26950769Y-29024582D01*
X26950767Y-29024580D01*
X26776681Y-28903587D01*
X26776679Y-28903586D01*
X26772075Y-28900386D01*
X26645915Y-28842626D01*
X26574218Y-28809800D01*
X26574216Y-28809799D01*
X26569113Y-28807463D01*
X26352902Y-28751949D01*
X26288768Y-28746733D01*
X26214689Y-28740707D01*
X26214677Y-28740707D01*
X26212138Y-28740500D01*
X26184915Y-28740500D01*
X26137613Y-28731284D01*
X26023894Y-28685223D01*
X26023891Y-28685222D01*
X26019768Y-28683552D01*
X26015455Y-28682481D01*
X26015450Y-28682479D01*
X25749144Y-28616328D01*
X25749139Y-28616327D01*
X25744823Y-28615255D01*
X25740395Y-28614801D01*
X25740393Y-28614801D01*
X25646040Y-28605134D01*
X25503210Y-28590500D01*
X24597893Y-28590500D01*
X24567517Y-28586784D01*
X24525426Y-28576328D01*
X24525421Y-28576327D01*
X24521105Y-28575255D01*
X24516677Y-28574801D01*
X24516675Y-28574801D01*
X24440975Y-28567045D01*
X24279492Y-28550500D01*
X21873376Y-28550500D01*
X21870407Y-28550465D01*
X21869275Y-28550438D01*
X21749523Y-28547616D01*
X21658591Y-28558379D01*
X21652692Y-28558935D01*
X21561407Y-28565399D01*
X21520967Y-28574106D01*
X21509277Y-28576052D01*
X21485728Y-28578839D01*
X21472612Y-28580391D01*
X21472610Y-28580391D01*
X21468186Y-28580915D01*
X21463886Y-28582055D01*
X21463876Y-28582057D01*
X21379709Y-28604374D01*
X21373936Y-28605760D01*
X21288800Y-28624089D01*
X21288798Y-28624089D01*
X21284453Y-28625025D01*
X21280278Y-28626565D01*
X21280279Y-28626565D01*
X21245645Y-28639342D01*
X21234327Y-28642922D01*
X21198647Y-28652382D01*
X21198645Y-28652383D01*
X21194348Y-28653522D01*
X21110050Y-28689218D01*
X21104550Y-28691395D01*
X21018663Y-28723080D01*
X20982263Y-28742721D01*
X20971561Y-28747860D01*
X20937572Y-28762252D01*
X20937568Y-28762254D01*
X20933473Y-28763988D01*
X20855057Y-28811199D01*
X20849898Y-28814141D01*
X20773272Y-28855485D01*
X20773267Y-28855488D01*
X20769340Y-28857607D01*
X20765749Y-28860259D01*
X20765748Y-28860260D01*
X20736061Y-28882187D01*
X20726195Y-28888779D01*
X20690764Y-28910111D01*
X20628611Y-28960711D01*
X20619790Y-28967892D01*
X20615100Y-28971530D01*
X20541460Y-29025922D01*
X20538289Y-29029043D01*
X20538285Y-29029047D01*
X20511981Y-29054942D01*
X20507238Y-29059189D01*
X20507302Y-29059260D01*
X20504913Y-29061417D01*
X20502413Y-29063452D01*
X20444491Y-29121374D01*
X20443789Y-29122071D01*
X20339570Y-29224666D01*
X20336869Y-29228205D01*
X20333921Y-29231549D01*
X20333723Y-29231375D01*
X20328361Y-29237504D01*
X16386222Y-33179644D01*
X16384098Y-33181719D01*
X16296588Y-33265199D01*
X16293832Y-33268695D01*
X16239910Y-33337094D01*
X16236126Y-33341668D01*
X16196522Y-33387309D01*
X16176145Y-33410791D01*
X16173730Y-33414532D01*
X16153711Y-33445536D01*
X16146809Y-33455194D01*
X16121199Y-33487680D01*
X16118965Y-33491526D01*
X16118963Y-33491529D01*
X16075223Y-33566834D01*
X16072120Y-33571897D01*
X16022471Y-33648789D01*
X16020603Y-33652842D01*
X16020602Y-33652843D01*
X16005155Y-33686350D01*
X15999684Y-33696884D01*
X15978907Y-33732654D01*
X15977239Y-33736772D01*
X15944543Y-33817493D01*
X15942185Y-33822940D01*
X15905732Y-33902013D01*
X15905728Y-33902024D01*
X15903864Y-33906067D01*
X15902587Y-33910337D01*
X15892014Y-33945692D01*
X15888081Y-33956893D01*
X15872552Y-33995232D01*
X15871477Y-33999561D01*
X15850489Y-34084053D01*
X15848922Y-34089781D01*
X15822691Y-34177490D01*
X15822030Y-34181887D01*
X15822029Y-34181891D01*
X15816540Y-34218402D01*
X15814224Y-34230044D01*
X15804255Y-34270177D01*
X15803801Y-34274610D01*
X15794926Y-34361222D01*
X15794183Y-34367105D01*
X15780572Y-34457642D01*
X15780537Y-34462098D01*
X15780537Y-34462099D01*
X15780248Y-34499004D01*
X15779896Y-34505369D01*
X15779993Y-34505374D01*
X15779829Y-34508580D01*
X15779500Y-34511790D01*
X15779500Y-34593713D01*
X15779496Y-34594701D01*
X15778348Y-34740933D01*
X15778941Y-34745350D01*
X15779221Y-34749798D01*
X15778958Y-34749815D01*
X15779500Y-34757937D01*
X15779500Y-57953625D01*
X15779465Y-57956594D01*
X15776616Y-58077477D01*
X14208000Y-58077477D01*
X14208000Y-14405000D01*
X14228002Y-14336879D01*
X14281658Y-14290386D01*
X14334000Y-14279000D01*
X154322000Y-14279000D01*
X154390121Y-14299002D01*
G37*
G04 #@! TD.AperFunction*
M02*
