G04 #@! TF.GenerationSoftware,KiCad,Pcbnew,(6.0.2)*
G04 #@! TF.CreationDate,2022-03-10T23:04:52+00:00*
G04 #@! TF.ProjectId,ESC1,45534331-2e6b-4696-9361-645f70636258,rev?*
G04 #@! TF.SameCoordinates,Original*
G04 #@! TF.FileFunction,Copper,L1,Top*
G04 #@! TF.FilePolarity,Positive*
%FSLAX46Y46*%
G04 Gerber Fmt 4.6, Leading zero omitted, Abs format (unit mm)*
G04 Created by KiCad (PCBNEW (6.0.2)) date 2022-03-10 23:04:52*
%MOMM*%
%LPD*%
G01*
G04 APERTURE LIST*
G04 Aperture macros list*
%AMRoundRect*
0 Rectangle with rounded corners*
0 $1 Rounding radius*
0 $2 $3 $4 $5 $6 $7 $8 $9 X,Y pos of 4 corners*
0 Add a 4 corners polygon primitive as box body*
4,1,4,$2,$3,$4,$5,$6,$7,$8,$9,$2,$3,0*
0 Add four circle primitives for the rounded corners*
1,1,$1+$1,$2,$3*
1,1,$1+$1,$4,$5*
1,1,$1+$1,$6,$7*
1,1,$1+$1,$8,$9*
0 Add four rect primitives between the rounded corners*
20,1,$1+$1,$2,$3,$4,$5,0*
20,1,$1+$1,$4,$5,$6,$7,0*
20,1,$1+$1,$6,$7,$8,$9,0*
20,1,$1+$1,$8,$9,$2,$3,0*%
G04 Aperture macros list end*
G04 #@! TA.AperFunction,ComponentPad*
%ADD10R,1.800000X1.800000*%
G04 #@! TD*
G04 #@! TA.AperFunction,ComponentPad*
%ADD11C,1.800000*%
G04 #@! TD*
G04 #@! TA.AperFunction,ComponentPad*
%ADD12R,1.905000X2.000000*%
G04 #@! TD*
G04 #@! TA.AperFunction,ComponentPad*
%ADD13O,1.905000X2.000000*%
G04 #@! TD*
G04 #@! TA.AperFunction,ComponentPad*
%ADD14C,1.600000*%
G04 #@! TD*
G04 #@! TA.AperFunction,ComponentPad*
%ADD15O,1.600000X1.600000*%
G04 #@! TD*
G04 #@! TA.AperFunction,ComponentPad*
%ADD16RoundRect,0.250000X-0.750000X0.600000X-0.750000X-0.600000X0.750000X-0.600000X0.750000X0.600000X0*%
G04 #@! TD*
G04 #@! TA.AperFunction,ComponentPad*
%ADD17O,2.000000X1.700000*%
G04 #@! TD*
G04 #@! TA.AperFunction,ComponentPad*
%ADD18R,1.050000X1.500000*%
G04 #@! TD*
G04 #@! TA.AperFunction,ComponentPad*
%ADD19O,1.050000X1.500000*%
G04 #@! TD*
G04 #@! TA.AperFunction,ComponentPad*
%ADD20R,2.200000X2.200000*%
G04 #@! TD*
G04 #@! TA.AperFunction,ComponentPad*
%ADD21O,2.200000X2.200000*%
G04 #@! TD*
G04 #@! TA.AperFunction,ComponentPad*
%ADD22RoundRect,0.250000X0.725000X-0.600000X0.725000X0.600000X-0.725000X0.600000X-0.725000X-0.600000X0*%
G04 #@! TD*
G04 #@! TA.AperFunction,ComponentPad*
%ADD23O,1.950000X1.700000*%
G04 #@! TD*
G04 #@! TA.AperFunction,ViaPad*
%ADD24C,1.000000*%
G04 #@! TD*
G04 #@! TA.AperFunction,Conductor*
%ADD25C,0.500000*%
G04 #@! TD*
G04 #@! TA.AperFunction,Conductor*
%ADD26C,1.000000*%
G04 #@! TD*
G04 #@! TA.AperFunction,Conductor*
%ADD27C,0.250000*%
G04 #@! TD*
G04 APERTURE END LIST*
D10*
X135128000Y-25979000D03*
D11*
X135128000Y-28519000D03*
D12*
X119888000Y-53919000D03*
D13*
X117348000Y-53919000D03*
X114808000Y-53919000D03*
D12*
X140208000Y-53919000D03*
D13*
X137668000Y-53919000D03*
X135128000Y-53919000D03*
D14*
X64008000Y-22169000D03*
D15*
X48768000Y-22169000D03*
D16*
X25400000Y-30591000D03*
D17*
X25400000Y-33091000D03*
D18*
X137668000Y-39695000D03*
D19*
X136398000Y-39695000D03*
X135128000Y-39695000D03*
D12*
X84328000Y-53594000D03*
D13*
X81788000Y-53594000D03*
X79248000Y-53594000D03*
D18*
X101600000Y-39624000D03*
D19*
X100330000Y-39624000D03*
X99060000Y-39624000D03*
D12*
X69088000Y-53594000D03*
D13*
X66548000Y-53594000D03*
X64008000Y-53594000D03*
D20*
X102362000Y-49855000D03*
D21*
X98552000Y-49855000D03*
D20*
X78068818Y-49855000D03*
D21*
X81878818Y-49855000D03*
D18*
X46228000Y-39624000D03*
D19*
X47498000Y-39624000D03*
X48768000Y-39624000D03*
D22*
X145779000Y-33559000D03*
D23*
X145779000Y-31059000D03*
X145779000Y-28559000D03*
D14*
X129540000Y-39695000D03*
D15*
X129540000Y-54935000D03*
D14*
X81788000Y-22169000D03*
D15*
X66548000Y-22169000D03*
D14*
X93980000Y-39624000D03*
D15*
X93980000Y-54864000D03*
D12*
X104648000Y-53594000D03*
D13*
X102108000Y-53594000D03*
X99568000Y-53594000D03*
D18*
X66040000Y-39695000D03*
D19*
X64770000Y-39695000D03*
X63500000Y-39695000D03*
D14*
X46228000Y-22169000D03*
D15*
X30988000Y-22169000D03*
D18*
X117348000Y-39624000D03*
D19*
X118618000Y-39624000D03*
X119888000Y-39624000D03*
D18*
X81788000Y-39624000D03*
D19*
X83058000Y-39624000D03*
X84328000Y-39624000D03*
D14*
X54356000Y-39624000D03*
D15*
X54356000Y-54864000D03*
D10*
X64008000Y-25979000D03*
D11*
X64008000Y-28519000D03*
D20*
X138266818Y-50363000D03*
D21*
X134456818Y-50363000D03*
D12*
X48768000Y-53594000D03*
D13*
X46228000Y-53594000D03*
X43688000Y-53594000D03*
D14*
X58420000Y-39624000D03*
D15*
X58420000Y-54864000D03*
D20*
X117511183Y-50363000D03*
D21*
X113701183Y-50363000D03*
D14*
X117348000Y-22169000D03*
D15*
X102108000Y-22169000D03*
D10*
X117348000Y-25979000D03*
D11*
X117348000Y-28519000D03*
D14*
X99568000Y-22169000D03*
D15*
X84328000Y-22169000D03*
D14*
X125476000Y-39624000D03*
D15*
X125476000Y-54864000D03*
D10*
X99568000Y-25979000D03*
D11*
X99568000Y-28519000D03*
D22*
X27178000Y-53057000D03*
D23*
X27178000Y-50557000D03*
X27178000Y-48057000D03*
X27178000Y-45557000D03*
X27178000Y-43057000D03*
X27178000Y-40557000D03*
D14*
X135128000Y-22169000D03*
D15*
X119888000Y-22169000D03*
D14*
X89916000Y-39624000D03*
D15*
X89916000Y-54864000D03*
D20*
X42508818Y-49855000D03*
D21*
X46318818Y-49855000D03*
D10*
X46228000Y-25979000D03*
D11*
X46228000Y-28519000D03*
D20*
X67056000Y-49855000D03*
D21*
X63246000Y-49855000D03*
D10*
X81788000Y-25979000D03*
D11*
X81788000Y-28519000D03*
D24*
X129540000Y-64079000D03*
X58420000Y-64079000D03*
X54356000Y-64079000D03*
X38100000Y-64079000D03*
X89916000Y-64079000D03*
X93980000Y-64079000D03*
X74168000Y-64079000D03*
X125476000Y-64079000D03*
X109728000Y-64079000D03*
D25*
X46228000Y-25979000D02*
X46228000Y-22169000D01*
X81788000Y-25979000D02*
X81788000Y-22169000D01*
X117348000Y-25979000D02*
X117348000Y-22169000D01*
X64008000Y-25979000D02*
X64008000Y-22169000D01*
X99568000Y-25979000D02*
X99568000Y-22169000D01*
X135128000Y-25979000D02*
X135128000Y-22169000D01*
D26*
X43688000Y-51034182D02*
X42508818Y-49855000D01*
X125476000Y-54864000D02*
X125476000Y-64079000D01*
X113701183Y-52812183D02*
X114808000Y-53919000D01*
X58420000Y-54864000D02*
X58420000Y-64079000D01*
X109728000Y-51887000D02*
X109728000Y-64079000D01*
X111252000Y-50363000D02*
X109728000Y-51887000D01*
X113701183Y-50363000D02*
X113701183Y-52812183D01*
X129540000Y-54935000D02*
X129540000Y-64079000D01*
X113701183Y-50363000D02*
X111252000Y-50363000D01*
X93980000Y-54864000D02*
X93980000Y-64079000D01*
X89916000Y-54864000D02*
X89916000Y-64079000D01*
X40132000Y-49855000D02*
X38100000Y-51887000D01*
X74168000Y-52395000D02*
X74168000Y-64079000D01*
X38100000Y-51887000D02*
X38100000Y-64079000D01*
X76708000Y-49855000D02*
X74168000Y-52395000D01*
X43688000Y-53594000D02*
X43688000Y-51034182D01*
X54356000Y-54864000D02*
X54356000Y-64079000D01*
X42508818Y-49855000D02*
X40132000Y-49855000D01*
X78068818Y-52414818D02*
X79248000Y-53594000D01*
X78068818Y-49855000D02*
X78068818Y-52414818D01*
D27*
X78068818Y-49855000D02*
X76708000Y-49855000D01*
X136398000Y-44521000D02*
X136398000Y-39695000D01*
X29310000Y-53057000D02*
X35052000Y-47315000D01*
X27178000Y-53057000D02*
X29310000Y-53057000D01*
X35052000Y-47315000D02*
X133604000Y-47315000D01*
X133604000Y-47315000D02*
X136398000Y-44521000D01*
X115824000Y-46299000D02*
X118618000Y-43505000D01*
X30286000Y-50557000D02*
X34544000Y-46299000D01*
X118618000Y-43505000D02*
X118618000Y-39624000D01*
X27178000Y-50557000D02*
X30286000Y-50557000D01*
X34544000Y-46299000D02*
X115824000Y-46299000D01*
X100330000Y-44013000D02*
X100330000Y-39624000D01*
X31262000Y-48057000D02*
X34036000Y-45283000D01*
X34036000Y-45283000D02*
X99060000Y-45283000D01*
X99060000Y-45283000D02*
X100330000Y-44013000D01*
X27178000Y-48057000D02*
X31262000Y-48057000D01*
X33020000Y-44267000D02*
X81280000Y-44267000D01*
X27178000Y-45557000D02*
X31730000Y-45557000D01*
X83058000Y-42489000D02*
X83058000Y-39624000D01*
X31730000Y-45557000D02*
X33020000Y-44267000D01*
X81280000Y-44267000D02*
X83058000Y-42489000D01*
X27178000Y-43057000D02*
X63694000Y-43057000D01*
X63694000Y-43057000D02*
X64770000Y-41981000D01*
X64770000Y-41981000D02*
X64770000Y-39695000D01*
X47498000Y-40624000D02*
X47498000Y-39624000D01*
X27178000Y-40557000D02*
X28348000Y-41727000D01*
X46395000Y-41727000D02*
X47498000Y-40624000D01*
X28348000Y-41727000D02*
X46395000Y-41727000D01*
D26*
X46228000Y-53594000D02*
X46228000Y-49945818D01*
X150876000Y-61031000D02*
X150876000Y-31059000D01*
X136652000Y-71191000D02*
X140208000Y-67635000D01*
X63246000Y-67381000D02*
X66548000Y-64079000D01*
X144272000Y-67635000D02*
X150876000Y-61031000D01*
D27*
X46228000Y-49945818D02*
X46318818Y-49855000D01*
D26*
X85852000Y-71191000D02*
X136652000Y-71191000D01*
X61976000Y-68651000D02*
X83312000Y-68651000D01*
X150876000Y-31059000D02*
X148376000Y-28559000D01*
X66548000Y-53594000D02*
X66548000Y-50363000D01*
X46228000Y-64079000D02*
X50800000Y-68651000D01*
X61976000Y-68651000D02*
X63246000Y-67381000D01*
X140208000Y-67635000D02*
X144272000Y-67635000D01*
X46228000Y-53594000D02*
X46228000Y-64079000D01*
X50800000Y-68651000D02*
X61976000Y-68651000D01*
X66548000Y-64079000D02*
X66548000Y-53594000D01*
X83312000Y-68651000D02*
X85852000Y-71191000D01*
X148376000Y-28559000D02*
X145779000Y-28559000D01*
X99568000Y-67127000D02*
X117856000Y-67127000D01*
X135128000Y-68651000D02*
X138684000Y-65095000D01*
X119380000Y-68651000D02*
X135128000Y-68651000D01*
X148336000Y-33091000D02*
X146304000Y-31059000D01*
X146304000Y-31059000D02*
X145779000Y-31059000D01*
D27*
X102108000Y-50109000D02*
X102362000Y-49855000D01*
D26*
X81788000Y-64587000D02*
X81788000Y-53594000D01*
X99568000Y-67127000D02*
X84328000Y-67127000D01*
D27*
X81788000Y-49945818D02*
X81878818Y-49855000D01*
D26*
X102108000Y-53594000D02*
X102108000Y-50109000D01*
X100584000Y-66111000D02*
X99568000Y-67127000D01*
X117856000Y-67127000D02*
X119380000Y-68651000D01*
X84328000Y-67127000D02*
X81788000Y-64587000D01*
X102108000Y-53594000D02*
X102108000Y-64587000D01*
X148336000Y-59507000D02*
X148336000Y-33091000D01*
X138684000Y-65095000D02*
X142748000Y-65095000D01*
X102108000Y-64587000D02*
X100584000Y-66111000D01*
X142748000Y-65095000D02*
X148336000Y-59507000D01*
X81788000Y-53594000D02*
X81788000Y-49945818D01*
X137668000Y-53919000D02*
X137668000Y-50961818D01*
X120904000Y-66111000D02*
X117348000Y-62555000D01*
X117348000Y-62555000D02*
X117348000Y-53919000D01*
X134112000Y-66111000D02*
X120904000Y-66111000D01*
X145779000Y-33559000D02*
X145779000Y-58508000D01*
X137668000Y-62555000D02*
X134112000Y-66111000D01*
X117511183Y-50363000D02*
X117511183Y-53755817D01*
X141732000Y-62555000D02*
X137668000Y-62555000D01*
X137668000Y-53919000D02*
X137668000Y-62555000D01*
X145779000Y-58508000D02*
X141732000Y-62555000D01*
M02*
