G04 #@! TF.GenerationSoftware,KiCad,Pcbnew,(6.0.2)*
G04 #@! TF.CreationDate,2022-03-10T23:04:52+00:00*
G04 #@! TF.ProjectId,ESC1,45534331-2e6b-4696-9361-645f70636258,rev?*
G04 #@! TF.SameCoordinates,Original*
G04 #@! TF.FileFunction,Legend,Top*
G04 #@! TF.FilePolarity,Positive*
%FSLAX46Y46*%
G04 Gerber Fmt 4.6, Leading zero omitted, Abs format (unit mm)*
G04 Created by KiCad (PCBNEW (6.0.2)) date 2022-03-10 23:04:52*
%MOMM*%
%LPD*%
G01*
G04 APERTURE LIST*
%ADD10C,0.150000*%
%ADD11C,0.120000*%
G04 APERTURE END LIST*
D10*
X142041523Y-33956142D02*
X141993904Y-34003761D01*
X141851047Y-34051380D01*
X141755809Y-34051380D01*
X141612952Y-34003761D01*
X141517714Y-33908523D01*
X141470095Y-33813285D01*
X141422476Y-33622809D01*
X141422476Y-33479952D01*
X141470095Y-33289476D01*
X141517714Y-33194238D01*
X141612952Y-33099000D01*
X141755809Y-33051380D01*
X141851047Y-33051380D01*
X141993904Y-33099000D01*
X142041523Y-33146619D01*
X141803428Y-30987571D02*
X141946285Y-31035190D01*
X141993904Y-31082809D01*
X142041523Y-31178047D01*
X142041523Y-31320904D01*
X141993904Y-31416142D01*
X141946285Y-31463761D01*
X141851047Y-31511380D01*
X141470095Y-31511380D01*
X141470095Y-30511380D01*
X141803428Y-30511380D01*
X141898666Y-30559000D01*
X141946285Y-30606619D01*
X141993904Y-30701857D01*
X141993904Y-30797095D01*
X141946285Y-30892333D01*
X141898666Y-30939952D01*
X141803428Y-30987571D01*
X141470095Y-30987571D01*
X141493904Y-28685666D02*
X141970095Y-28685666D01*
X141398666Y-28971380D02*
X141732000Y-27971380D01*
X142065333Y-28971380D01*
X138374476Y-29384142D02*
X138326857Y-29431761D01*
X138184000Y-29479380D01*
X138088761Y-29479380D01*
X137945904Y-29431761D01*
X137850666Y-29336523D01*
X137803047Y-29241285D01*
X137755428Y-29050809D01*
X137755428Y-28907952D01*
X137803047Y-28717476D01*
X137850666Y-28622238D01*
X137945904Y-28527000D01*
X138088761Y-28479380D01*
X138184000Y-28479380D01*
X138326857Y-28527000D01*
X138374476Y-28574619D01*
X138803047Y-29098428D02*
X139564952Y-29098428D01*
X120594476Y-29384142D02*
X120546857Y-29431761D01*
X120404000Y-29479380D01*
X120308761Y-29479380D01*
X120165904Y-29431761D01*
X120070666Y-29336523D01*
X120023047Y-29241285D01*
X119975428Y-29050809D01*
X119975428Y-28907952D01*
X120023047Y-28717476D01*
X120070666Y-28622238D01*
X120165904Y-28527000D01*
X120308761Y-28479380D01*
X120404000Y-28479380D01*
X120546857Y-28527000D01*
X120594476Y-28574619D01*
X121023047Y-29098428D02*
X121784952Y-29098428D01*
X121404000Y-29479380D02*
X121404000Y-28717476D01*
X102576380Y-28955571D02*
X102719238Y-29003190D01*
X102766857Y-29050809D01*
X102814476Y-29146047D01*
X102814476Y-29288904D01*
X102766857Y-29384142D01*
X102719238Y-29431761D01*
X102624000Y-29479380D01*
X102243047Y-29479380D01*
X102243047Y-28479380D01*
X102576380Y-28479380D01*
X102671619Y-28527000D01*
X102719238Y-28574619D01*
X102766857Y-28669857D01*
X102766857Y-28765095D01*
X102719238Y-28860333D01*
X102671619Y-28907952D01*
X102576380Y-28955571D01*
X102243047Y-28955571D01*
X103243047Y-29098428D02*
X104004952Y-29098428D01*
X84796380Y-28955571D02*
X84939238Y-29003190D01*
X84986857Y-29050809D01*
X85034476Y-29146047D01*
X85034476Y-29288904D01*
X84986857Y-29384142D01*
X84939238Y-29431761D01*
X84844000Y-29479380D01*
X84463047Y-29479380D01*
X84463047Y-28479380D01*
X84796380Y-28479380D01*
X84891619Y-28527000D01*
X84939238Y-28574619D01*
X84986857Y-28669857D01*
X84986857Y-28765095D01*
X84939238Y-28860333D01*
X84891619Y-28907952D01*
X84796380Y-28955571D01*
X84463047Y-28955571D01*
X85463047Y-29098428D02*
X86224952Y-29098428D01*
X85844000Y-29479380D02*
X85844000Y-28717476D01*
X66706857Y-29193666D02*
X67183047Y-29193666D01*
X66611619Y-29479380D02*
X66944952Y-28479380D01*
X67278285Y-29479380D01*
X67611619Y-29098428D02*
X68373523Y-29098428D01*
X48926857Y-29193666D02*
X49403047Y-29193666D01*
X48831619Y-29479380D02*
X49164952Y-28479380D01*
X49498285Y-29479380D01*
X49831619Y-29098428D02*
X50593523Y-29098428D01*
X50212571Y-29479380D02*
X50212571Y-28717476D01*
X22002857Y-42909666D02*
X22479047Y-42909666D01*
X21907619Y-43195380D02*
X22240952Y-42195380D01*
X22574285Y-43195380D01*
X22907619Y-42814428D02*
X23669523Y-42814428D01*
X28892666Y-30003380D02*
X29226000Y-31003380D01*
X29559333Y-30003380D01*
X30464095Y-30908142D02*
X30416476Y-30955761D01*
X30273619Y-31003380D01*
X30178380Y-31003380D01*
X30035523Y-30955761D01*
X29940285Y-30860523D01*
X29892666Y-30765285D01*
X29845047Y-30574809D01*
X29845047Y-30431952D01*
X29892666Y-30241476D01*
X29940285Y-30146238D01*
X30035523Y-30051000D01*
X30178380Y-30003380D01*
X30273619Y-30003380D01*
X30416476Y-30051000D01*
X30464095Y-30098619D01*
X31464095Y-30908142D02*
X31416476Y-30955761D01*
X31273619Y-31003380D01*
X31178380Y-31003380D01*
X31035523Y-30955761D01*
X30940285Y-30860523D01*
X30892666Y-30765285D01*
X30845047Y-30574809D01*
X30845047Y-30431952D01*
X30892666Y-30241476D01*
X30940285Y-30146238D01*
X31035523Y-30051000D01*
X31178380Y-30003380D01*
X31273619Y-30003380D01*
X31416476Y-30051000D01*
X31464095Y-30098619D01*
X22312380Y-47751571D02*
X22455238Y-47799190D01*
X22502857Y-47846809D01*
X22550476Y-47942047D01*
X22550476Y-48084904D01*
X22502857Y-48180142D01*
X22455238Y-48227761D01*
X22360000Y-48275380D01*
X21979047Y-48275380D01*
X21979047Y-47275380D01*
X22312380Y-47275380D01*
X22407619Y-47323000D01*
X22455238Y-47370619D01*
X22502857Y-47465857D01*
X22502857Y-47561095D01*
X22455238Y-47656333D01*
X22407619Y-47703952D01*
X22312380Y-47751571D01*
X21979047Y-47751571D01*
X22979047Y-47894428D02*
X23740952Y-47894428D01*
X22550476Y-52752142D02*
X22502857Y-52799761D01*
X22360000Y-52847380D01*
X22264761Y-52847380D01*
X22121904Y-52799761D01*
X22026666Y-52704523D01*
X21979047Y-52609285D01*
X21931428Y-52418809D01*
X21931428Y-52275952D01*
X21979047Y-52085476D01*
X22026666Y-51990238D01*
X22121904Y-51895000D01*
X22264761Y-51847380D01*
X22360000Y-51847380D01*
X22502857Y-51895000D01*
X22550476Y-51942619D01*
X22979047Y-52466428D02*
X23740952Y-52466428D01*
X22550476Y-51228142D02*
X22502857Y-51275761D01*
X22360000Y-51323380D01*
X22264761Y-51323380D01*
X22121904Y-51275761D01*
X22026666Y-51180523D01*
X21979047Y-51085285D01*
X21931428Y-50894809D01*
X21931428Y-50751952D01*
X21979047Y-50561476D01*
X22026666Y-50466238D01*
X22121904Y-50371000D01*
X22264761Y-50323380D01*
X22360000Y-50323380D01*
X22502857Y-50371000D01*
X22550476Y-50418619D01*
X22979047Y-50942428D02*
X23740952Y-50942428D01*
X23360000Y-51323380D02*
X23360000Y-50561476D01*
X22312380Y-46227571D02*
X22455238Y-46275190D01*
X22502857Y-46322809D01*
X22550476Y-46418047D01*
X22550476Y-46560904D01*
X22502857Y-46656142D01*
X22455238Y-46703761D01*
X22360000Y-46751380D01*
X21979047Y-46751380D01*
X21979047Y-45751380D01*
X22312380Y-45751380D01*
X22407619Y-45799000D01*
X22455238Y-45846619D01*
X22502857Y-45941857D01*
X22502857Y-46037095D01*
X22455238Y-46132333D01*
X22407619Y-46179952D01*
X22312380Y-46227571D01*
X21979047Y-46227571D01*
X22979047Y-46370428D02*
X23740952Y-46370428D01*
X23360000Y-46751380D02*
X23360000Y-45989476D01*
X15472285Y-71500571D02*
X15805619Y-71500571D01*
X15948476Y-72024380D02*
X15472285Y-72024380D01*
X15472285Y-71024380D01*
X15948476Y-71024380D01*
X16329428Y-71976761D02*
X16472285Y-72024380D01*
X16710380Y-72024380D01*
X16805619Y-71976761D01*
X16853238Y-71929142D01*
X16900857Y-71833904D01*
X16900857Y-71738666D01*
X16853238Y-71643428D01*
X16805619Y-71595809D01*
X16710380Y-71548190D01*
X16519904Y-71500571D01*
X16424666Y-71452952D01*
X16377047Y-71405333D01*
X16329428Y-71310095D01*
X16329428Y-71214857D01*
X16377047Y-71119619D01*
X16424666Y-71072000D01*
X16519904Y-71024380D01*
X16757999Y-71024380D01*
X16900857Y-71072000D01*
X17900857Y-71929142D02*
X17853238Y-71976761D01*
X17710380Y-72024380D01*
X17615142Y-72024380D01*
X17472285Y-71976761D01*
X17377047Y-71881523D01*
X17329428Y-71786285D01*
X17281809Y-71595809D01*
X17281809Y-71452952D01*
X17329428Y-71262476D01*
X17377047Y-71167238D01*
X17472285Y-71072000D01*
X17615142Y-71024380D01*
X17710380Y-71024380D01*
X17853238Y-71072000D01*
X17900857Y-71119619D01*
X19424666Y-71500571D02*
X19567523Y-71548190D01*
X19615142Y-71595809D01*
X19662761Y-71691047D01*
X19662761Y-71833904D01*
X19615142Y-71929142D01*
X19567523Y-71976761D01*
X19472285Y-72024380D01*
X19091333Y-72024380D01*
X19091333Y-71024380D01*
X19424666Y-71024380D01*
X19519904Y-71072000D01*
X19567523Y-71119619D01*
X19615142Y-71214857D01*
X19615142Y-71310095D01*
X19567523Y-71405333D01*
X19519904Y-71452952D01*
X19424666Y-71500571D01*
X19091333Y-71500571D01*
X20234190Y-72024380D02*
X20138952Y-71976761D01*
X20091333Y-71929142D01*
X20043714Y-71833904D01*
X20043714Y-71548190D01*
X20091333Y-71452952D01*
X20138952Y-71405333D01*
X20234190Y-71357714D01*
X20377047Y-71357714D01*
X20472285Y-71405333D01*
X20519904Y-71452952D01*
X20567523Y-71548190D01*
X20567523Y-71833904D01*
X20519904Y-71929142D01*
X20472285Y-71976761D01*
X20377047Y-72024380D01*
X20234190Y-72024380D01*
X21424666Y-72024380D02*
X21424666Y-71500571D01*
X21377047Y-71405333D01*
X21281809Y-71357714D01*
X21091333Y-71357714D01*
X20996095Y-71405333D01*
X21424666Y-71976761D02*
X21329428Y-72024380D01*
X21091333Y-72024380D01*
X20996095Y-71976761D01*
X20948476Y-71881523D01*
X20948476Y-71786285D01*
X20996095Y-71691047D01*
X21091333Y-71643428D01*
X21329428Y-71643428D01*
X21424666Y-71595809D01*
X21900857Y-72024380D02*
X21900857Y-71357714D01*
X21900857Y-71548190D02*
X21948476Y-71452952D01*
X21996095Y-71405333D01*
X22091333Y-71357714D01*
X22186571Y-71357714D01*
X22948476Y-72024380D02*
X22948476Y-71024380D01*
X22948476Y-71976761D02*
X22853238Y-72024380D01*
X22662761Y-72024380D01*
X22567523Y-71976761D01*
X22519904Y-71929142D01*
X22472285Y-71833904D01*
X22472285Y-71548190D01*
X22519904Y-71452952D01*
X22567523Y-71405333D01*
X22662761Y-71357714D01*
X22853238Y-71357714D01*
X22948476Y-71405333D01*
X24091333Y-71024380D02*
X24710380Y-71024380D01*
X24377047Y-71405333D01*
X24519904Y-71405333D01*
X24615142Y-71452952D01*
X24662761Y-71500571D01*
X24710380Y-71595809D01*
X24710380Y-71833904D01*
X24662761Y-71929142D01*
X24615142Y-71976761D01*
X24519904Y-72024380D01*
X24234190Y-72024380D01*
X24138952Y-71976761D01*
X24091333Y-71929142D01*
X26710380Y-71262476D02*
X26615142Y-71214857D01*
X26424666Y-71214857D01*
X26329428Y-71262476D01*
X26234190Y-71357714D01*
X26186571Y-71452952D01*
X26186571Y-71643428D01*
X26234190Y-71738666D01*
X26329428Y-71833904D01*
X26424666Y-71881523D01*
X26615142Y-71881523D01*
X26710380Y-71833904D01*
X26519904Y-70881523D02*
X26281809Y-70929142D01*
X26043714Y-71072000D01*
X25900857Y-71310095D01*
X25853238Y-71548190D01*
X25900857Y-71786285D01*
X26043714Y-72024380D01*
X26281809Y-72167238D01*
X26519904Y-72214857D01*
X26757999Y-72167238D01*
X26996095Y-72024380D01*
X27138952Y-71786285D01*
X27186571Y-71548190D01*
X27138952Y-71310095D01*
X26996095Y-71072000D01*
X26757999Y-70929142D01*
X26519904Y-70881523D01*
X27567523Y-71119619D02*
X27615142Y-71072000D01*
X27710380Y-71024380D01*
X27948476Y-71024380D01*
X28043714Y-71072000D01*
X28091333Y-71119619D01*
X28138952Y-71214857D01*
X28138952Y-71310095D01*
X28091333Y-71452952D01*
X27519904Y-72024380D01*
X28138952Y-72024380D01*
X28757999Y-71024380D02*
X28853238Y-71024380D01*
X28948476Y-71072000D01*
X28996095Y-71119619D01*
X29043714Y-71214857D01*
X29091333Y-71405333D01*
X29091333Y-71643428D01*
X29043714Y-71833904D01*
X28996095Y-71929142D01*
X28948476Y-71976761D01*
X28853238Y-72024380D01*
X28757999Y-72024380D01*
X28662761Y-71976761D01*
X28615142Y-71929142D01*
X28567523Y-71833904D01*
X28519904Y-71643428D01*
X28519904Y-71405333D01*
X28567523Y-71214857D01*
X28615142Y-71119619D01*
X28662761Y-71072000D01*
X28757999Y-71024380D01*
X29472285Y-71119619D02*
X29519904Y-71072000D01*
X29615142Y-71024380D01*
X29853238Y-71024380D01*
X29948476Y-71072000D01*
X29996095Y-71119619D01*
X30043714Y-71214857D01*
X30043714Y-71310095D01*
X29996095Y-71452952D01*
X29424666Y-72024380D01*
X30043714Y-72024380D01*
X30424666Y-71119619D02*
X30472285Y-71072000D01*
X30567523Y-71024380D01*
X30805619Y-71024380D01*
X30900857Y-71072000D01*
X30948476Y-71119619D01*
X30996095Y-71214857D01*
X30996095Y-71310095D01*
X30948476Y-71452952D01*
X30377047Y-72024380D01*
X30996095Y-72024380D01*
X32138952Y-71738666D02*
X32615142Y-71738666D01*
X32043714Y-72024380D02*
X32377047Y-71024380D01*
X32710380Y-72024380D01*
X33043714Y-71357714D02*
X33043714Y-72024380D01*
X33043714Y-71452952D02*
X33091333Y-71405333D01*
X33186571Y-71357714D01*
X33329428Y-71357714D01*
X33424666Y-71405333D01*
X33472285Y-71500571D01*
X33472285Y-72024380D01*
X34377047Y-72024380D02*
X34377047Y-71024380D01*
X34377047Y-71976761D02*
X34281809Y-72024380D01*
X34091333Y-72024380D01*
X33996095Y-71976761D01*
X33948476Y-71929142D01*
X33900857Y-71833904D01*
X33900857Y-71548190D01*
X33948476Y-71452952D01*
X33996095Y-71405333D01*
X34091333Y-71357714D01*
X34281809Y-71357714D01*
X34377047Y-71405333D01*
X34853238Y-72024380D02*
X34853238Y-71357714D01*
X34853238Y-71548190D02*
X34900857Y-71452952D01*
X34948476Y-71405333D01*
X35043714Y-71357714D01*
X35138952Y-71357714D01*
X35853238Y-71976761D02*
X35757999Y-72024380D01*
X35567523Y-72024380D01*
X35472285Y-71976761D01*
X35424666Y-71881523D01*
X35424666Y-71500571D01*
X35472285Y-71405333D01*
X35567523Y-71357714D01*
X35757999Y-71357714D01*
X35853238Y-71405333D01*
X35900857Y-71500571D01*
X35900857Y-71595809D01*
X35424666Y-71691047D01*
X36234190Y-71357714D02*
X36424666Y-72024380D01*
X36615142Y-71548190D01*
X36805619Y-72024380D01*
X36996095Y-71357714D01*
X38043714Y-71024380D02*
X38281809Y-72024380D01*
X38472285Y-71310095D01*
X38662761Y-72024380D01*
X38900857Y-71024380D01*
X39424666Y-72024380D02*
X39329428Y-71976761D01*
X39281809Y-71929142D01*
X39234190Y-71833904D01*
X39234190Y-71548190D01*
X39281809Y-71452952D01*
X39329428Y-71405333D01*
X39424666Y-71357714D01*
X39567523Y-71357714D01*
X39662761Y-71405333D01*
X39710380Y-71452952D01*
X39757999Y-71548190D01*
X39757999Y-71833904D01*
X39710380Y-71929142D01*
X39662761Y-71976761D01*
X39567523Y-72024380D01*
X39424666Y-72024380D01*
X40329428Y-72024380D02*
X40234190Y-71976761D01*
X40186571Y-71929142D01*
X40138952Y-71833904D01*
X40138952Y-71548190D01*
X40186571Y-71452952D01*
X40234190Y-71405333D01*
X40329428Y-71357714D01*
X40472285Y-71357714D01*
X40567523Y-71405333D01*
X40615142Y-71452952D01*
X40662761Y-71548190D01*
X40662761Y-71833904D01*
X40615142Y-71929142D01*
X40567523Y-71976761D01*
X40472285Y-72024380D01*
X40329428Y-72024380D01*
X41519904Y-72024380D02*
X41519904Y-71024380D01*
X41519904Y-71976761D02*
X41424666Y-72024380D01*
X41234190Y-72024380D01*
X41138952Y-71976761D01*
X41091333Y-71929142D01*
X41043714Y-71833904D01*
X41043714Y-71548190D01*
X41091333Y-71452952D01*
X41138952Y-71405333D01*
X41234190Y-71357714D01*
X41424666Y-71357714D01*
X41519904Y-71405333D01*
X41900857Y-71357714D02*
X42091333Y-72024380D01*
X42281809Y-71548190D01*
X42472285Y-72024380D01*
X42662761Y-71357714D01*
X43472285Y-72024380D02*
X43472285Y-71500571D01*
X43424666Y-71405333D01*
X43329428Y-71357714D01*
X43138952Y-71357714D01*
X43043714Y-71405333D01*
X43472285Y-71976761D02*
X43377047Y-72024380D01*
X43138952Y-72024380D01*
X43043714Y-71976761D01*
X42996095Y-71881523D01*
X42996095Y-71786285D01*
X43043714Y-71691047D01*
X43138952Y-71643428D01*
X43377047Y-71643428D01*
X43472285Y-71595809D01*
X43948476Y-72024380D02*
X43948476Y-71357714D01*
X43948476Y-71548190D02*
X43996095Y-71452952D01*
X44043714Y-71405333D01*
X44138952Y-71357714D01*
X44234190Y-71357714D01*
X44996095Y-72024380D02*
X44996095Y-71024380D01*
X44996095Y-71976761D02*
X44900857Y-72024380D01*
X44710380Y-72024380D01*
X44615142Y-71976761D01*
X44567523Y-71929142D01*
X44519904Y-71833904D01*
X44519904Y-71548190D01*
X44567523Y-71452952D01*
X44615142Y-71405333D01*
X44710380Y-71357714D01*
X44900857Y-71357714D01*
X44996095Y-71405333D01*
X45472285Y-71643428D02*
X46234190Y-71643428D01*
X46710380Y-72024380D02*
X46710380Y-71024380D01*
X47043714Y-71738666D01*
X47377047Y-71024380D01*
X47377047Y-72024380D01*
X48281809Y-72024380D02*
X48281809Y-71500571D01*
X48234190Y-71405333D01*
X48138952Y-71357714D01*
X47948476Y-71357714D01*
X47853238Y-71405333D01*
X48281809Y-71976761D02*
X48186571Y-72024380D01*
X47948476Y-72024380D01*
X47853238Y-71976761D01*
X47805619Y-71881523D01*
X47805619Y-71786285D01*
X47853238Y-71691047D01*
X47948476Y-71643428D01*
X48186571Y-71643428D01*
X48281809Y-71595809D01*
X48662761Y-71357714D02*
X48900857Y-72024380D01*
X49138952Y-71357714D02*
X48900857Y-72024380D01*
X48805619Y-72262476D01*
X48757999Y-72310095D01*
X48662761Y-72357714D01*
X29464095Y-32718000D02*
X29368857Y-32670380D01*
X29226000Y-32670380D01*
X29083142Y-32718000D01*
X28987904Y-32813238D01*
X28940285Y-32908476D01*
X28892666Y-33098952D01*
X28892666Y-33241809D01*
X28940285Y-33432285D01*
X28987904Y-33527523D01*
X29083142Y-33622761D01*
X29226000Y-33670380D01*
X29321238Y-33670380D01*
X29464095Y-33622761D01*
X29511714Y-33575142D01*
X29511714Y-33241809D01*
X29321238Y-33241809D01*
X29940285Y-33670380D02*
X29940285Y-32670380D01*
X30511714Y-33670380D01*
X30511714Y-32670380D01*
X30987904Y-33670380D02*
X30987904Y-32670380D01*
X31226000Y-32670380D01*
X31368857Y-32718000D01*
X31464095Y-32813238D01*
X31511714Y-32908476D01*
X31559333Y-33098952D01*
X31559333Y-33241809D01*
X31511714Y-33432285D01*
X31464095Y-33527523D01*
X31368857Y-33622761D01*
X31226000Y-33670380D01*
X30987904Y-33670380D01*
X22002857Y-41385666D02*
X22479047Y-41385666D01*
X21907619Y-41671380D02*
X22240952Y-40671380D01*
X22574285Y-41671380D01*
X22907619Y-41290428D02*
X23669523Y-41290428D01*
X23288571Y-41671380D02*
X23288571Y-40909476D01*
X134389904Y-31511380D02*
X134389904Y-30511380D01*
X134628000Y-30511380D01*
X134770857Y-30559000D01*
X134866095Y-30654238D01*
X134913714Y-30749476D01*
X134961333Y-30939952D01*
X134961333Y-31082809D01*
X134913714Y-31273285D01*
X134866095Y-31368523D01*
X134770857Y-31463761D01*
X134628000Y-31511380D01*
X134389904Y-31511380D01*
X135818476Y-30511380D02*
X135628000Y-30511380D01*
X135532761Y-30559000D01*
X135485142Y-30606619D01*
X135389904Y-30749476D01*
X135342285Y-30939952D01*
X135342285Y-31320904D01*
X135389904Y-31416142D01*
X135437523Y-31463761D01*
X135532761Y-31511380D01*
X135723238Y-31511380D01*
X135818476Y-31463761D01*
X135866095Y-31416142D01*
X135913714Y-31320904D01*
X135913714Y-31082809D01*
X135866095Y-30987571D01*
X135818476Y-30939952D01*
X135723238Y-30892333D01*
X135532761Y-30892333D01*
X135437523Y-30939952D01*
X135389904Y-30987571D01*
X135342285Y-31082809D01*
X112680761Y-58911619D02*
X112585523Y-58864000D01*
X112490285Y-58768761D01*
X112347428Y-58625904D01*
X112252190Y-58578285D01*
X112156952Y-58578285D01*
X112204571Y-58816380D02*
X112109333Y-58768761D01*
X112014095Y-58673523D01*
X111966476Y-58483047D01*
X111966476Y-58149714D01*
X112014095Y-57959238D01*
X112109333Y-57864000D01*
X112204571Y-57816380D01*
X112395047Y-57816380D01*
X112490285Y-57864000D01*
X112585523Y-57959238D01*
X112633142Y-58149714D01*
X112633142Y-58483047D01*
X112585523Y-58673523D01*
X112490285Y-58768761D01*
X112395047Y-58816380D01*
X112204571Y-58816380D01*
X112966476Y-57816380D02*
X113585523Y-57816380D01*
X113252190Y-58197333D01*
X113395047Y-58197333D01*
X113490285Y-58244952D01*
X113537904Y-58292571D01*
X113585523Y-58387809D01*
X113585523Y-58625904D01*
X113537904Y-58721142D01*
X113490285Y-58768761D01*
X113395047Y-58816380D01*
X113109333Y-58816380D01*
X113014095Y-58768761D01*
X112966476Y-58721142D01*
X133254761Y-58911619D02*
X133159523Y-58864000D01*
X133064285Y-58768761D01*
X132921428Y-58625904D01*
X132826190Y-58578285D01*
X132730952Y-58578285D01*
X132778571Y-58816380D02*
X132683333Y-58768761D01*
X132588095Y-58673523D01*
X132540476Y-58483047D01*
X132540476Y-58149714D01*
X132588095Y-57959238D01*
X132683333Y-57864000D01*
X132778571Y-57816380D01*
X132969047Y-57816380D01*
X133064285Y-57864000D01*
X133159523Y-57959238D01*
X133207142Y-58149714D01*
X133207142Y-58483047D01*
X133159523Y-58673523D01*
X133064285Y-58768761D01*
X132969047Y-58816380D01*
X132778571Y-58816380D01*
X133683333Y-58816380D02*
X133873809Y-58816380D01*
X133969047Y-58768761D01*
X134016666Y-58721142D01*
X134111904Y-58578285D01*
X134159523Y-58387809D01*
X134159523Y-58006857D01*
X134111904Y-57911619D01*
X134064285Y-57864000D01*
X133969047Y-57816380D01*
X133778571Y-57816380D01*
X133683333Y-57864000D01*
X133635714Y-57911619D01*
X133588095Y-58006857D01*
X133588095Y-58244952D01*
X133635714Y-58340190D01*
X133683333Y-58387809D01*
X133778571Y-58435428D01*
X133969047Y-58435428D01*
X134064285Y-58387809D01*
X134111904Y-58340190D01*
X134159523Y-58244952D01*
X55745142Y-25341380D02*
X55411809Y-24865190D01*
X55173714Y-25341380D02*
X55173714Y-24341380D01*
X55554666Y-24341380D01*
X55649904Y-24389000D01*
X55697523Y-24436619D01*
X55745142Y-24531857D01*
X55745142Y-24674714D01*
X55697523Y-24769952D01*
X55649904Y-24817571D01*
X55554666Y-24865190D01*
X55173714Y-24865190D01*
X56697523Y-25341380D02*
X56126095Y-25341380D01*
X56411809Y-25341380D02*
X56411809Y-24341380D01*
X56316571Y-24484238D01*
X56221333Y-24579476D01*
X56126095Y-24627095D01*
X57316571Y-24341380D02*
X57411809Y-24341380D01*
X57507047Y-24389000D01*
X57554666Y-24436619D01*
X57602285Y-24531857D01*
X57649904Y-24722333D01*
X57649904Y-24960428D01*
X57602285Y-25150904D01*
X57554666Y-25246142D01*
X57507047Y-25293761D01*
X57411809Y-25341380D01*
X57316571Y-25341380D01*
X57221333Y-25293761D01*
X57173714Y-25246142D01*
X57126095Y-25150904D01*
X57078476Y-24960428D01*
X57078476Y-24722333D01*
X57126095Y-24531857D01*
X57173714Y-24436619D01*
X57221333Y-24389000D01*
X57316571Y-24341380D01*
X21764666Y-25431380D02*
X21764666Y-26145666D01*
X21717047Y-26288523D01*
X21621809Y-26383761D01*
X21478952Y-26431380D01*
X21383714Y-26431380D01*
X22764666Y-26431380D02*
X22193238Y-26431380D01*
X22478952Y-26431380D02*
X22478952Y-25431380D01*
X22383714Y-25574238D01*
X22288476Y-25669476D01*
X22193238Y-25717095D01*
X135826571Y-36686619D02*
X135731333Y-36639000D01*
X135636095Y-36543761D01*
X135493238Y-36400904D01*
X135398000Y-36353285D01*
X135302761Y-36353285D01*
X135350380Y-36591380D02*
X135255142Y-36543761D01*
X135159904Y-36448523D01*
X135112285Y-36258047D01*
X135112285Y-35924714D01*
X135159904Y-35734238D01*
X135255142Y-35639000D01*
X135350380Y-35591380D01*
X135540857Y-35591380D01*
X135636095Y-35639000D01*
X135731333Y-35734238D01*
X135778952Y-35924714D01*
X135778952Y-36258047D01*
X135731333Y-36448523D01*
X135636095Y-36543761D01*
X135540857Y-36591380D01*
X135350380Y-36591380D01*
X136731333Y-36591380D02*
X136159904Y-36591380D01*
X136445619Y-36591380D02*
X136445619Y-35591380D01*
X136350380Y-35734238D01*
X136255142Y-35829476D01*
X136159904Y-35877095D01*
X137112285Y-35686619D02*
X137159904Y-35639000D01*
X137255142Y-35591380D01*
X137493238Y-35591380D01*
X137588476Y-35639000D01*
X137636095Y-35686619D01*
X137683714Y-35781857D01*
X137683714Y-35877095D01*
X137636095Y-36019952D01*
X137064666Y-36591380D01*
X137683714Y-36591380D01*
X77374761Y-58657619D02*
X77279523Y-58610000D01*
X77184285Y-58514761D01*
X77041428Y-58371904D01*
X76946190Y-58324285D01*
X76850952Y-58324285D01*
X76898571Y-58562380D02*
X76803333Y-58514761D01*
X76708095Y-58419523D01*
X76660476Y-58229047D01*
X76660476Y-57895714D01*
X76708095Y-57705238D01*
X76803333Y-57610000D01*
X76898571Y-57562380D01*
X77089047Y-57562380D01*
X77184285Y-57610000D01*
X77279523Y-57705238D01*
X77327142Y-57895714D01*
X77327142Y-58229047D01*
X77279523Y-58419523D01*
X77184285Y-58514761D01*
X77089047Y-58562380D01*
X76898571Y-58562380D01*
X77708095Y-57657619D02*
X77755714Y-57610000D01*
X77850952Y-57562380D01*
X78089047Y-57562380D01*
X78184285Y-57610000D01*
X78231904Y-57657619D01*
X78279523Y-57752857D01*
X78279523Y-57848095D01*
X78231904Y-57990952D01*
X77660476Y-58562380D01*
X78279523Y-58562380D01*
X99758571Y-36686619D02*
X99663333Y-36639000D01*
X99568095Y-36543761D01*
X99425238Y-36400904D01*
X99330000Y-36353285D01*
X99234761Y-36353285D01*
X99282380Y-36591380D02*
X99187142Y-36543761D01*
X99091904Y-36448523D01*
X99044285Y-36258047D01*
X99044285Y-35924714D01*
X99091904Y-35734238D01*
X99187142Y-35639000D01*
X99282380Y-35591380D01*
X99472857Y-35591380D01*
X99568095Y-35639000D01*
X99663333Y-35734238D01*
X99710952Y-35924714D01*
X99710952Y-36258047D01*
X99663333Y-36448523D01*
X99568095Y-36543761D01*
X99472857Y-36591380D01*
X99282380Y-36591380D01*
X100663333Y-36591380D02*
X100091904Y-36591380D01*
X100377619Y-36591380D02*
X100377619Y-35591380D01*
X100282380Y-35734238D01*
X100187142Y-35829476D01*
X100091904Y-35877095D01*
X101615714Y-36591380D02*
X101044285Y-36591380D01*
X101330000Y-36591380D02*
X101330000Y-35591380D01*
X101234761Y-35734238D01*
X101139523Y-35829476D01*
X101044285Y-35877095D01*
X62134761Y-58657619D02*
X62039523Y-58610000D01*
X61944285Y-58514761D01*
X61801428Y-58371904D01*
X61706190Y-58324285D01*
X61610952Y-58324285D01*
X61658571Y-58562380D02*
X61563333Y-58514761D01*
X61468095Y-58419523D01*
X61420476Y-58229047D01*
X61420476Y-57895714D01*
X61468095Y-57705238D01*
X61563333Y-57610000D01*
X61658571Y-57562380D01*
X61849047Y-57562380D01*
X61944285Y-57610000D01*
X62039523Y-57705238D01*
X62087142Y-57895714D01*
X62087142Y-58229047D01*
X62039523Y-58419523D01*
X61944285Y-58514761D01*
X61849047Y-58562380D01*
X61658571Y-58562380D01*
X62420476Y-57562380D02*
X63087142Y-57562380D01*
X62658571Y-58562380D01*
X97032914Y-47868980D02*
X97032914Y-46868980D01*
X97271009Y-46868980D01*
X97413866Y-46916600D01*
X97509104Y-47011838D01*
X97556723Y-47107076D01*
X97604342Y-47297552D01*
X97604342Y-47440409D01*
X97556723Y-47630885D01*
X97509104Y-47726123D01*
X97413866Y-47821361D01*
X97271009Y-47868980D01*
X97032914Y-47868980D01*
X98556723Y-47868980D02*
X97985295Y-47868980D01*
X98271009Y-47868980D02*
X98271009Y-46868980D01*
X98175771Y-47011838D01*
X98080533Y-47107076D01*
X97985295Y-47154695D01*
X99509104Y-47868980D02*
X98937676Y-47868980D01*
X99223390Y-47868980D02*
X99223390Y-46868980D01*
X99128152Y-47011838D01*
X99032914Y-47107076D01*
X98937676Y-47154695D01*
X103065295Y-47868980D02*
X103065295Y-46868980D01*
X103636723Y-47868980D02*
X103208152Y-47297552D01*
X103636723Y-46868980D02*
X103065295Y-47440409D01*
X76528704Y-47818180D02*
X76528704Y-46818180D01*
X76766800Y-46818180D01*
X76909657Y-46865800D01*
X77004895Y-46961038D01*
X77052514Y-47056276D01*
X77100133Y-47246752D01*
X77100133Y-47389609D01*
X77052514Y-47580085D01*
X77004895Y-47675323D01*
X76909657Y-47770561D01*
X76766800Y-47818180D01*
X76528704Y-47818180D01*
X77671561Y-47246752D02*
X77576323Y-47199133D01*
X77528704Y-47151514D01*
X77481085Y-47056276D01*
X77481085Y-47008657D01*
X77528704Y-46913419D01*
X77576323Y-46865800D01*
X77671561Y-46818180D01*
X77862038Y-46818180D01*
X77957276Y-46865800D01*
X78004895Y-46913419D01*
X78052514Y-47008657D01*
X78052514Y-47056276D01*
X78004895Y-47151514D01*
X77957276Y-47199133D01*
X77862038Y-47246752D01*
X77671561Y-47246752D01*
X77576323Y-47294371D01*
X77528704Y-47341990D01*
X77481085Y-47437228D01*
X77481085Y-47627704D01*
X77528704Y-47722942D01*
X77576323Y-47770561D01*
X77671561Y-47818180D01*
X77862038Y-47818180D01*
X77957276Y-47770561D01*
X78004895Y-47722942D01*
X78052514Y-47627704D01*
X78052514Y-47437228D01*
X78004895Y-47341990D01*
X77957276Y-47294371D01*
X77862038Y-47246752D01*
X82565904Y-47532466D02*
X83042095Y-47532466D01*
X82470666Y-47818180D02*
X82804000Y-46818180D01*
X83137333Y-47818180D01*
X47402761Y-36611619D02*
X47307523Y-36564000D01*
X47212285Y-36468761D01*
X47069428Y-36325904D01*
X46974190Y-36278285D01*
X46878952Y-36278285D01*
X46926571Y-36516380D02*
X46831333Y-36468761D01*
X46736095Y-36373523D01*
X46688476Y-36183047D01*
X46688476Y-35849714D01*
X46736095Y-35659238D01*
X46831333Y-35564000D01*
X46926571Y-35516380D01*
X47117047Y-35516380D01*
X47212285Y-35564000D01*
X47307523Y-35659238D01*
X47355142Y-35849714D01*
X47355142Y-36183047D01*
X47307523Y-36373523D01*
X47212285Y-36468761D01*
X47117047Y-36516380D01*
X46926571Y-36516380D01*
X48212285Y-35849714D02*
X48212285Y-36516380D01*
X47974190Y-35468761D02*
X47736095Y-36183047D01*
X48355142Y-36183047D01*
X143684666Y-24161380D02*
X143684666Y-24875666D01*
X143637047Y-25018523D01*
X143541809Y-25113761D01*
X143398952Y-25161380D01*
X143303714Y-25161380D01*
X144065619Y-24161380D02*
X144684666Y-24161380D01*
X144351333Y-24542333D01*
X144494190Y-24542333D01*
X144589428Y-24589952D01*
X144637047Y-24637571D01*
X144684666Y-24732809D01*
X144684666Y-24970904D01*
X144637047Y-25066142D01*
X144589428Y-25113761D01*
X144494190Y-25161380D01*
X144208476Y-25161380D01*
X144113238Y-25113761D01*
X144065619Y-25066142D01*
X129246333Y-37226380D02*
X128913000Y-36750190D01*
X128674904Y-37226380D02*
X128674904Y-36226380D01*
X129055857Y-36226380D01*
X129151095Y-36274000D01*
X129198714Y-36321619D01*
X129246333Y-36416857D01*
X129246333Y-36559714D01*
X129198714Y-36654952D01*
X129151095Y-36702571D01*
X129055857Y-36750190D01*
X128674904Y-36750190D01*
X129722523Y-37226380D02*
X129913000Y-37226380D01*
X130008238Y-37178761D01*
X130055857Y-37131142D01*
X130151095Y-36988285D01*
X130198714Y-36797809D01*
X130198714Y-36416857D01*
X130151095Y-36321619D01*
X130103476Y-36274000D01*
X130008238Y-36226380D01*
X129817761Y-36226380D01*
X129722523Y-36274000D01*
X129674904Y-36321619D01*
X129627285Y-36416857D01*
X129627285Y-36654952D01*
X129674904Y-36750190D01*
X129722523Y-36797809D01*
X129817761Y-36845428D01*
X130008238Y-36845428D01*
X130103476Y-36797809D01*
X130151095Y-36750190D01*
X130198714Y-36654952D01*
X74001333Y-25341380D02*
X73668000Y-24865190D01*
X73429904Y-25341380D02*
X73429904Y-24341380D01*
X73810857Y-24341380D01*
X73906095Y-24389000D01*
X73953714Y-24436619D01*
X74001333Y-24531857D01*
X74001333Y-24674714D01*
X73953714Y-24769952D01*
X73906095Y-24817571D01*
X73810857Y-24865190D01*
X73429904Y-24865190D01*
X74906095Y-24341380D02*
X74429904Y-24341380D01*
X74382285Y-24817571D01*
X74429904Y-24769952D01*
X74525142Y-24722333D01*
X74763238Y-24722333D01*
X74858476Y-24769952D01*
X74906095Y-24817571D01*
X74953714Y-24912809D01*
X74953714Y-25150904D01*
X74906095Y-25246142D01*
X74858476Y-25293761D01*
X74763238Y-25341380D01*
X74525142Y-25341380D01*
X74429904Y-25293761D01*
X74382285Y-25246142D01*
X93686333Y-37226380D02*
X93353000Y-36750190D01*
X93114904Y-37226380D02*
X93114904Y-36226380D01*
X93495857Y-36226380D01*
X93591095Y-36274000D01*
X93638714Y-36321619D01*
X93686333Y-36416857D01*
X93686333Y-36559714D01*
X93638714Y-36654952D01*
X93591095Y-36702571D01*
X93495857Y-36750190D01*
X93114904Y-36750190D01*
X94257761Y-36654952D02*
X94162523Y-36607333D01*
X94114904Y-36559714D01*
X94067285Y-36464476D01*
X94067285Y-36416857D01*
X94114904Y-36321619D01*
X94162523Y-36274000D01*
X94257761Y-36226380D01*
X94448238Y-36226380D01*
X94543476Y-36274000D01*
X94591095Y-36321619D01*
X94638714Y-36416857D01*
X94638714Y-36464476D01*
X94591095Y-36559714D01*
X94543476Y-36607333D01*
X94448238Y-36654952D01*
X94257761Y-36654952D01*
X94162523Y-36702571D01*
X94114904Y-36750190D01*
X94067285Y-36845428D01*
X94067285Y-37035904D01*
X94114904Y-37131142D01*
X94162523Y-37178761D01*
X94257761Y-37226380D01*
X94448238Y-37226380D01*
X94543476Y-37178761D01*
X94591095Y-37131142D01*
X94638714Y-37035904D01*
X94638714Y-36845428D01*
X94591095Y-36750190D01*
X94543476Y-36702571D01*
X94448238Y-36654952D01*
X97694761Y-58657619D02*
X97599523Y-58610000D01*
X97504285Y-58514761D01*
X97361428Y-58371904D01*
X97266190Y-58324285D01*
X97170952Y-58324285D01*
X97218571Y-58562380D02*
X97123333Y-58514761D01*
X97028095Y-58419523D01*
X96980476Y-58229047D01*
X96980476Y-57895714D01*
X97028095Y-57705238D01*
X97123333Y-57610000D01*
X97218571Y-57562380D01*
X97409047Y-57562380D01*
X97504285Y-57610000D01*
X97599523Y-57705238D01*
X97647142Y-57895714D01*
X97647142Y-58229047D01*
X97599523Y-58419523D01*
X97504285Y-58514761D01*
X97409047Y-58562380D01*
X97218571Y-58562380D01*
X98218571Y-57990952D02*
X98123333Y-57943333D01*
X98075714Y-57895714D01*
X98028095Y-57800476D01*
X98028095Y-57752857D01*
X98075714Y-57657619D01*
X98123333Y-57610000D01*
X98218571Y-57562380D01*
X98409047Y-57562380D01*
X98504285Y-57610000D01*
X98551904Y-57657619D01*
X98599523Y-57752857D01*
X98599523Y-57800476D01*
X98551904Y-57895714D01*
X98504285Y-57943333D01*
X98409047Y-57990952D01*
X98218571Y-57990952D01*
X98123333Y-58038571D01*
X98075714Y-58086190D01*
X98028095Y-58181428D01*
X98028095Y-58371904D01*
X98075714Y-58467142D01*
X98123333Y-58514761D01*
X98218571Y-58562380D01*
X98409047Y-58562380D01*
X98504285Y-58514761D01*
X98551904Y-58467142D01*
X98599523Y-58371904D01*
X98599523Y-58181428D01*
X98551904Y-58086190D01*
X98504285Y-58038571D01*
X98409047Y-57990952D01*
X64071571Y-36686619D02*
X63976333Y-36639000D01*
X63881095Y-36543761D01*
X63738238Y-36400904D01*
X63643000Y-36353285D01*
X63547761Y-36353285D01*
X63595380Y-36591380D02*
X63500142Y-36543761D01*
X63404904Y-36448523D01*
X63357285Y-36258047D01*
X63357285Y-35924714D01*
X63404904Y-35734238D01*
X63500142Y-35639000D01*
X63595380Y-35591380D01*
X63785857Y-35591380D01*
X63881095Y-35639000D01*
X63976333Y-35734238D01*
X64023952Y-35924714D01*
X64023952Y-36258047D01*
X63976333Y-36448523D01*
X63881095Y-36543761D01*
X63785857Y-36591380D01*
X63595380Y-36591380D01*
X64976333Y-36591380D02*
X64404904Y-36591380D01*
X64690619Y-36591380D02*
X64690619Y-35591380D01*
X64595380Y-35734238D01*
X64500142Y-35829476D01*
X64404904Y-35877095D01*
X65595380Y-35591380D02*
X65690619Y-35591380D01*
X65785857Y-35639000D01*
X65833476Y-35686619D01*
X65881095Y-35781857D01*
X65928714Y-35972333D01*
X65928714Y-36210428D01*
X65881095Y-36400904D01*
X65833476Y-36496142D01*
X65785857Y-36543761D01*
X65690619Y-36591380D01*
X65595380Y-36591380D01*
X65500142Y-36543761D01*
X65452523Y-36496142D01*
X65404904Y-36400904D01*
X65357285Y-36210428D01*
X65357285Y-35972333D01*
X65404904Y-35781857D01*
X65452523Y-35686619D01*
X65500142Y-35639000D01*
X65595380Y-35591380D01*
X38441333Y-25341380D02*
X38108000Y-24865190D01*
X37869904Y-25341380D02*
X37869904Y-24341380D01*
X38250857Y-24341380D01*
X38346095Y-24389000D01*
X38393714Y-24436619D01*
X38441333Y-24531857D01*
X38441333Y-24674714D01*
X38393714Y-24769952D01*
X38346095Y-24817571D01*
X38250857Y-24865190D01*
X37869904Y-24865190D01*
X39298476Y-24674714D02*
X39298476Y-25341380D01*
X39060380Y-24293761D02*
X38822285Y-25008047D01*
X39441333Y-25008047D01*
X118522761Y-36611619D02*
X118427523Y-36564000D01*
X118332285Y-36468761D01*
X118189428Y-36325904D01*
X118094190Y-36278285D01*
X117998952Y-36278285D01*
X118046571Y-36516380D02*
X117951333Y-36468761D01*
X117856095Y-36373523D01*
X117808476Y-36183047D01*
X117808476Y-35849714D01*
X117856095Y-35659238D01*
X117951333Y-35564000D01*
X118046571Y-35516380D01*
X118237047Y-35516380D01*
X118332285Y-35564000D01*
X118427523Y-35659238D01*
X118475142Y-35849714D01*
X118475142Y-36183047D01*
X118427523Y-36373523D01*
X118332285Y-36468761D01*
X118237047Y-36516380D01*
X118046571Y-36516380D01*
X119332285Y-35516380D02*
X119141809Y-35516380D01*
X119046571Y-35564000D01*
X118998952Y-35611619D01*
X118903714Y-35754476D01*
X118856095Y-35944952D01*
X118856095Y-36325904D01*
X118903714Y-36421142D01*
X118951333Y-36468761D01*
X119046571Y-36516380D01*
X119237047Y-36516380D01*
X119332285Y-36468761D01*
X119379904Y-36421142D01*
X119427523Y-36325904D01*
X119427523Y-36087809D01*
X119379904Y-35992571D01*
X119332285Y-35944952D01*
X119237047Y-35897333D01*
X119046571Y-35897333D01*
X118951333Y-35944952D01*
X118903714Y-35992571D01*
X118856095Y-36087809D01*
X82962761Y-36611619D02*
X82867523Y-36564000D01*
X82772285Y-36468761D01*
X82629428Y-36325904D01*
X82534190Y-36278285D01*
X82438952Y-36278285D01*
X82486571Y-36516380D02*
X82391333Y-36468761D01*
X82296095Y-36373523D01*
X82248476Y-36183047D01*
X82248476Y-35849714D01*
X82296095Y-35659238D01*
X82391333Y-35564000D01*
X82486571Y-35516380D01*
X82677047Y-35516380D01*
X82772285Y-35564000D01*
X82867523Y-35659238D01*
X82915142Y-35849714D01*
X82915142Y-36183047D01*
X82867523Y-36373523D01*
X82772285Y-36468761D01*
X82677047Y-36516380D01*
X82486571Y-36516380D01*
X83819904Y-35516380D02*
X83343714Y-35516380D01*
X83296095Y-35992571D01*
X83343714Y-35944952D01*
X83438952Y-35897333D01*
X83677047Y-35897333D01*
X83772285Y-35944952D01*
X83819904Y-35992571D01*
X83867523Y-36087809D01*
X83867523Y-36325904D01*
X83819904Y-36421142D01*
X83772285Y-36468761D01*
X83677047Y-36516380D01*
X83438952Y-36516380D01*
X83343714Y-36468761D01*
X83296095Y-36421142D01*
X54316333Y-37226380D02*
X53983000Y-36750190D01*
X53744904Y-37226380D02*
X53744904Y-36226380D01*
X54125857Y-36226380D01*
X54221095Y-36274000D01*
X54268714Y-36321619D01*
X54316333Y-36416857D01*
X54316333Y-36559714D01*
X54268714Y-36654952D01*
X54221095Y-36702571D01*
X54125857Y-36750190D01*
X53744904Y-36750190D01*
X55268714Y-37226380D02*
X54697285Y-37226380D01*
X54983000Y-37226380D02*
X54983000Y-36226380D01*
X54887761Y-36369238D01*
X54792523Y-36464476D01*
X54697285Y-36512095D01*
X63269904Y-31511380D02*
X63269904Y-30511380D01*
X63508000Y-30511380D01*
X63650857Y-30559000D01*
X63746095Y-30654238D01*
X63793714Y-30749476D01*
X63841333Y-30939952D01*
X63841333Y-31082809D01*
X63793714Y-31273285D01*
X63746095Y-31368523D01*
X63650857Y-31463761D01*
X63508000Y-31511380D01*
X63269904Y-31511380D01*
X64698476Y-30844714D02*
X64698476Y-31511380D01*
X64460380Y-30463761D02*
X64222285Y-31178047D01*
X64841333Y-31178047D01*
X132897714Y-48376980D02*
X132897714Y-47376980D01*
X133135809Y-47376980D01*
X133278666Y-47424600D01*
X133373904Y-47519838D01*
X133421523Y-47615076D01*
X133469142Y-47805552D01*
X133469142Y-47948409D01*
X133421523Y-48138885D01*
X133373904Y-48234123D01*
X133278666Y-48329361D01*
X133135809Y-48376980D01*
X132897714Y-48376980D01*
X134421523Y-48376980D02*
X133850095Y-48376980D01*
X134135809Y-48376980D02*
X134135809Y-47376980D01*
X134040571Y-47519838D01*
X133945333Y-47615076D01*
X133850095Y-47662695D01*
X134802476Y-47472219D02*
X134850095Y-47424600D01*
X134945333Y-47376980D01*
X135183428Y-47376980D01*
X135278666Y-47424600D01*
X135326285Y-47472219D01*
X135373904Y-47567457D01*
X135373904Y-47662695D01*
X135326285Y-47805552D01*
X134754857Y-48376980D01*
X135373904Y-48376980D01*
X138930095Y-48427780D02*
X138930095Y-47427780D01*
X139501523Y-48427780D02*
X139072952Y-47856352D01*
X139501523Y-47427780D02*
X138930095Y-47999209D01*
X41687761Y-58657619D02*
X41592523Y-58610000D01*
X41497285Y-58514761D01*
X41354428Y-58371904D01*
X41259190Y-58324285D01*
X41163952Y-58324285D01*
X41211571Y-58562380D02*
X41116333Y-58514761D01*
X41021095Y-58419523D01*
X40973476Y-58229047D01*
X40973476Y-57895714D01*
X41021095Y-57705238D01*
X41116333Y-57610000D01*
X41211571Y-57562380D01*
X41402047Y-57562380D01*
X41497285Y-57610000D01*
X41592523Y-57705238D01*
X41640142Y-57895714D01*
X41640142Y-58229047D01*
X41592523Y-58419523D01*
X41497285Y-58514761D01*
X41402047Y-58562380D01*
X41211571Y-58562380D01*
X42592523Y-58562380D02*
X42021095Y-58562380D01*
X42306809Y-58562380D02*
X42306809Y-57562380D01*
X42211571Y-57705238D01*
X42116333Y-57800476D01*
X42021095Y-57848095D01*
X58126333Y-37226380D02*
X57793000Y-36750190D01*
X57554904Y-37226380D02*
X57554904Y-36226380D01*
X57935857Y-36226380D01*
X58031095Y-36274000D01*
X58078714Y-36321619D01*
X58126333Y-36416857D01*
X58126333Y-36559714D01*
X58078714Y-36654952D01*
X58031095Y-36702571D01*
X57935857Y-36750190D01*
X57554904Y-36750190D01*
X58459666Y-36226380D02*
X59126333Y-36226380D01*
X58697761Y-37226380D01*
X112495104Y-48326180D02*
X112495104Y-47326180D01*
X112733200Y-47326180D01*
X112876057Y-47373800D01*
X112971295Y-47469038D01*
X113018914Y-47564276D01*
X113066533Y-47754752D01*
X113066533Y-47897609D01*
X113018914Y-48088085D01*
X112971295Y-48183323D01*
X112876057Y-48278561D01*
X112733200Y-48326180D01*
X112495104Y-48326180D01*
X113542723Y-48326180D02*
X113733200Y-48326180D01*
X113828438Y-48278561D01*
X113876057Y-48230942D01*
X113971295Y-48088085D01*
X114018914Y-47897609D01*
X114018914Y-47516657D01*
X113971295Y-47421419D01*
X113923676Y-47373800D01*
X113828438Y-47326180D01*
X113637961Y-47326180D01*
X113542723Y-47373800D01*
X113495104Y-47421419D01*
X113447485Y-47516657D01*
X113447485Y-47754752D01*
X113495104Y-47849990D01*
X113542723Y-47897609D01*
X113637961Y-47945228D01*
X113828438Y-47945228D01*
X113923676Y-47897609D01*
X113971295Y-47849990D01*
X114018914Y-47754752D01*
X118430704Y-48142066D02*
X118906895Y-48142066D01*
X118335466Y-48427780D02*
X118668800Y-47427780D01*
X119002133Y-48427780D01*
X109561333Y-25341380D02*
X109228000Y-24865190D01*
X108989904Y-25341380D02*
X108989904Y-24341380D01*
X109370857Y-24341380D01*
X109466095Y-24389000D01*
X109513714Y-24436619D01*
X109561333Y-24531857D01*
X109561333Y-24674714D01*
X109513714Y-24769952D01*
X109466095Y-24817571D01*
X109370857Y-24865190D01*
X108989904Y-24865190D01*
X110418476Y-24341380D02*
X110228000Y-24341380D01*
X110132761Y-24389000D01*
X110085142Y-24436619D01*
X109989904Y-24579476D01*
X109942285Y-24769952D01*
X109942285Y-25150904D01*
X109989904Y-25246142D01*
X110037523Y-25293761D01*
X110132761Y-25341380D01*
X110323238Y-25341380D01*
X110418476Y-25293761D01*
X110466095Y-25246142D01*
X110513714Y-25150904D01*
X110513714Y-24912809D01*
X110466095Y-24817571D01*
X110418476Y-24769952D01*
X110323238Y-24722333D01*
X110132761Y-24722333D01*
X110037523Y-24769952D01*
X109989904Y-24817571D01*
X109942285Y-24912809D01*
X116609904Y-31511380D02*
X116609904Y-30511380D01*
X116848000Y-30511380D01*
X116990857Y-30559000D01*
X117086095Y-30654238D01*
X117133714Y-30749476D01*
X117181333Y-30939952D01*
X117181333Y-31082809D01*
X117133714Y-31273285D01*
X117086095Y-31368523D01*
X116990857Y-31463761D01*
X116848000Y-31511380D01*
X116609904Y-31511380D01*
X117514666Y-30511380D02*
X118133714Y-30511380D01*
X117800380Y-30892333D01*
X117943238Y-30892333D01*
X118038476Y-30939952D01*
X118086095Y-30987571D01*
X118133714Y-31082809D01*
X118133714Y-31320904D01*
X118086095Y-31416142D01*
X118038476Y-31463761D01*
X117943238Y-31511380D01*
X117657523Y-31511380D01*
X117562285Y-31463761D01*
X117514666Y-31416142D01*
X91305142Y-25341380D02*
X90971809Y-24865190D01*
X90733714Y-25341380D02*
X90733714Y-24341380D01*
X91114666Y-24341380D01*
X91209904Y-24389000D01*
X91257523Y-24436619D01*
X91305142Y-24531857D01*
X91305142Y-24674714D01*
X91257523Y-24769952D01*
X91209904Y-24817571D01*
X91114666Y-24865190D01*
X90733714Y-24865190D01*
X92257523Y-25341380D02*
X91686095Y-25341380D01*
X91971809Y-25341380D02*
X91971809Y-24341380D01*
X91876571Y-24484238D01*
X91781333Y-24579476D01*
X91686095Y-24627095D01*
X93209904Y-25341380D02*
X92638476Y-25341380D01*
X92924190Y-25341380D02*
X92924190Y-24341380D01*
X92828952Y-24484238D01*
X92733714Y-24579476D01*
X92638476Y-24627095D01*
X125436333Y-37226380D02*
X125103000Y-36750190D01*
X124864904Y-37226380D02*
X124864904Y-36226380D01*
X125245857Y-36226380D01*
X125341095Y-36274000D01*
X125388714Y-36321619D01*
X125436333Y-36416857D01*
X125436333Y-36559714D01*
X125388714Y-36654952D01*
X125341095Y-36702571D01*
X125245857Y-36750190D01*
X124864904Y-36750190D01*
X125769666Y-36226380D02*
X126388714Y-36226380D01*
X126055380Y-36607333D01*
X126198238Y-36607333D01*
X126293476Y-36654952D01*
X126341095Y-36702571D01*
X126388714Y-36797809D01*
X126388714Y-37035904D01*
X126341095Y-37131142D01*
X126293476Y-37178761D01*
X126198238Y-37226380D01*
X125912523Y-37226380D01*
X125817285Y-37178761D01*
X125769666Y-37131142D01*
X98829904Y-31511380D02*
X98829904Y-30511380D01*
X99068000Y-30511380D01*
X99210857Y-30559000D01*
X99306095Y-30654238D01*
X99353714Y-30749476D01*
X99401333Y-30939952D01*
X99401333Y-31082809D01*
X99353714Y-31273285D01*
X99306095Y-31368523D01*
X99210857Y-31463761D01*
X99068000Y-31511380D01*
X98829904Y-31511380D01*
X100306095Y-30511380D02*
X99829904Y-30511380D01*
X99782285Y-30987571D01*
X99829904Y-30939952D01*
X99925142Y-30892333D01*
X100163238Y-30892333D01*
X100258476Y-30939952D01*
X100306095Y-30987571D01*
X100353714Y-31082809D01*
X100353714Y-31320904D01*
X100306095Y-31416142D01*
X100258476Y-31463761D01*
X100163238Y-31511380D01*
X99925142Y-31511380D01*
X99829904Y-31463761D01*
X99782285Y-31416142D01*
X25574666Y-57181380D02*
X25574666Y-57895666D01*
X25527047Y-58038523D01*
X25431809Y-58133761D01*
X25288952Y-58181380D01*
X25193714Y-58181380D01*
X26003238Y-57276619D02*
X26050857Y-57229000D01*
X26146095Y-57181380D01*
X26384190Y-57181380D01*
X26479428Y-57229000D01*
X26527047Y-57276619D01*
X26574666Y-57371857D01*
X26574666Y-57467095D01*
X26527047Y-57609952D01*
X25955619Y-58181380D01*
X26574666Y-58181380D01*
X126865142Y-25341380D02*
X126531809Y-24865190D01*
X126293714Y-25341380D02*
X126293714Y-24341380D01*
X126674666Y-24341380D01*
X126769904Y-24389000D01*
X126817523Y-24436619D01*
X126865142Y-24531857D01*
X126865142Y-24674714D01*
X126817523Y-24769952D01*
X126769904Y-24817571D01*
X126674666Y-24865190D01*
X126293714Y-24865190D01*
X127817523Y-25341380D02*
X127246095Y-25341380D01*
X127531809Y-25341380D02*
X127531809Y-24341380D01*
X127436571Y-24484238D01*
X127341333Y-24579476D01*
X127246095Y-24627095D01*
X128198476Y-24436619D02*
X128246095Y-24389000D01*
X128341333Y-24341380D01*
X128579428Y-24341380D01*
X128674666Y-24389000D01*
X128722285Y-24436619D01*
X128769904Y-24531857D01*
X128769904Y-24627095D01*
X128722285Y-24769952D01*
X128150857Y-25341380D01*
X128769904Y-25341380D01*
X89876333Y-37226380D02*
X89543000Y-36750190D01*
X89304904Y-37226380D02*
X89304904Y-36226380D01*
X89685857Y-36226380D01*
X89781095Y-36274000D01*
X89828714Y-36321619D01*
X89876333Y-36416857D01*
X89876333Y-36559714D01*
X89828714Y-36654952D01*
X89781095Y-36702571D01*
X89685857Y-36750190D01*
X89304904Y-36750190D01*
X90257285Y-36321619D02*
X90304904Y-36274000D01*
X90400142Y-36226380D01*
X90638238Y-36226380D01*
X90733476Y-36274000D01*
X90781095Y-36321619D01*
X90828714Y-36416857D01*
X90828714Y-36512095D01*
X90781095Y-36654952D01*
X90209666Y-37226380D01*
X90828714Y-37226380D01*
X40968704Y-47716580D02*
X40968704Y-46716580D01*
X41206800Y-46716580D01*
X41349657Y-46764200D01*
X41444895Y-46859438D01*
X41492514Y-46954676D01*
X41540133Y-47145152D01*
X41540133Y-47288009D01*
X41492514Y-47478485D01*
X41444895Y-47573723D01*
X41349657Y-47668961D01*
X41206800Y-47716580D01*
X40968704Y-47716580D01*
X41873466Y-46716580D02*
X42540133Y-46716580D01*
X42111561Y-47716580D01*
X47005904Y-47532466D02*
X47482095Y-47532466D01*
X46910666Y-47818180D02*
X47244000Y-46818180D01*
X47577333Y-47818180D01*
X45489904Y-31511380D02*
X45489904Y-30511380D01*
X45728000Y-30511380D01*
X45870857Y-30559000D01*
X45966095Y-30654238D01*
X46013714Y-30749476D01*
X46061333Y-30939952D01*
X46061333Y-31082809D01*
X46013714Y-31273285D01*
X45966095Y-31368523D01*
X45870857Y-31463761D01*
X45728000Y-31511380D01*
X45489904Y-31511380D01*
X47013714Y-31511380D02*
X46442285Y-31511380D01*
X46728000Y-31511380D02*
X46728000Y-30511380D01*
X46632761Y-30654238D01*
X46537523Y-30749476D01*
X46442285Y-30797095D01*
X61726914Y-47868980D02*
X61726914Y-46868980D01*
X61965009Y-46868980D01*
X62107866Y-46916600D01*
X62203104Y-47011838D01*
X62250723Y-47107076D01*
X62298342Y-47297552D01*
X62298342Y-47440409D01*
X62250723Y-47630885D01*
X62203104Y-47726123D01*
X62107866Y-47821361D01*
X61965009Y-47868980D01*
X61726914Y-47868980D01*
X63250723Y-47868980D02*
X62679295Y-47868980D01*
X62965009Y-47868980D02*
X62965009Y-46868980D01*
X62869771Y-47011838D01*
X62774533Y-47107076D01*
X62679295Y-47154695D01*
X63869771Y-46868980D02*
X63965009Y-46868980D01*
X64060247Y-46916600D01*
X64107866Y-46964219D01*
X64155485Y-47059457D01*
X64203104Y-47249933D01*
X64203104Y-47488028D01*
X64155485Y-47678504D01*
X64107866Y-47773742D01*
X64060247Y-47821361D01*
X63965009Y-47868980D01*
X63869771Y-47868980D01*
X63774533Y-47821361D01*
X63726914Y-47773742D01*
X63679295Y-47678504D01*
X63631676Y-47488028D01*
X63631676Y-47249933D01*
X63679295Y-47059457D01*
X63726914Y-46964219D01*
X63774533Y-46916600D01*
X63869771Y-46868980D01*
X67657695Y-47818180D02*
X67657695Y-46818180D01*
X68229123Y-47818180D02*
X67800552Y-47246752D01*
X68229123Y-46818180D02*
X67657695Y-47389609D01*
X81049904Y-31511380D02*
X81049904Y-30511380D01*
X81288000Y-30511380D01*
X81430857Y-30559000D01*
X81526095Y-30654238D01*
X81573714Y-30749476D01*
X81621333Y-30939952D01*
X81621333Y-31082809D01*
X81573714Y-31273285D01*
X81526095Y-31368523D01*
X81430857Y-31463761D01*
X81288000Y-31511380D01*
X81049904Y-31511380D01*
X82002285Y-30606619D02*
X82049904Y-30559000D01*
X82145142Y-30511380D01*
X82383238Y-30511380D01*
X82478476Y-30559000D01*
X82526095Y-30606619D01*
X82573714Y-30701857D01*
X82573714Y-30797095D01*
X82526095Y-30939952D01*
X81954666Y-31511380D01*
X82573714Y-31511380D01*
D11*
X136364000Y-25689000D02*
X136208000Y-25689000D01*
X134048000Y-25689000D02*
X133892000Y-25689000D01*
X133892484Y-25689000D02*
G75*
G03*
X134049392Y-28921335I1235517J-1560000D01*
G01*
X136207837Y-28290130D02*
G75*
G03*
X136208000Y-26208039I-1079837J1041130D01*
G01*
X134048000Y-26208039D02*
G75*
G03*
X134048163Y-28290130I1080000J-1040961D01*
G01*
X136206608Y-28921335D02*
G75*
G03*
X136363516Y-25689000I-1078609J1672335D01*
G01*
X122468000Y-52548000D02*
X112228000Y-52548000D01*
X112228000Y-57189000D02*
X112228000Y-52548000D01*
X119198000Y-57189000D02*
X119198000Y-55679000D01*
X122468000Y-57189000D02*
X112228000Y-57189000D01*
X122468000Y-57189000D02*
X122468000Y-52548000D01*
X115497000Y-57189000D02*
X115497000Y-55679000D01*
X122468000Y-55679000D02*
X112228000Y-55679000D01*
X142788000Y-57189000D02*
X132548000Y-57189000D01*
X142788000Y-55679000D02*
X132548000Y-55679000D01*
X132548000Y-57189000D02*
X132548000Y-52548000D01*
X142788000Y-52548000D02*
X132548000Y-52548000D01*
X142788000Y-57189000D02*
X142788000Y-52548000D01*
X135817000Y-57189000D02*
X135817000Y-55679000D01*
X139518000Y-57189000D02*
X139518000Y-55679000D01*
X61008000Y-23889000D02*
X61008000Y-20449000D01*
X61008000Y-20449000D02*
X51768000Y-20449000D01*
X62968000Y-22169000D02*
X61008000Y-22169000D01*
X49808000Y-22169000D02*
X51768000Y-22169000D01*
X51768000Y-20449000D02*
X51768000Y-23889000D01*
X51768000Y-23889000D02*
X61008000Y-23889000D01*
X28150000Y-28991000D02*
X28150000Y-27741000D01*
X22650000Y-34891000D02*
X22650000Y-31841000D01*
X27850000Y-35641000D02*
X27850000Y-33841000D01*
X21890000Y-28031000D02*
X21890000Y-35651000D01*
X27850000Y-29841000D02*
X27850000Y-28041000D01*
X27850000Y-31341000D02*
X27100000Y-31341000D01*
X27100000Y-28041000D02*
X27100000Y-29841000D01*
X27850000Y-28041000D02*
X27100000Y-28041000D01*
X27860000Y-28031000D02*
X21890000Y-28031000D01*
X27100000Y-32341000D02*
X27850000Y-32341000D01*
X27100000Y-29841000D02*
X27850000Y-29841000D01*
X27850000Y-33841000D02*
X27100000Y-33841000D01*
X28150000Y-27741000D02*
X26900000Y-27741000D01*
X25600000Y-34891000D02*
X22650000Y-34891000D01*
X27860000Y-35651000D02*
X27860000Y-28031000D01*
X27850000Y-32341000D02*
X27850000Y-31341000D01*
X27100000Y-33841000D02*
X27100000Y-35641000D01*
X27100000Y-35641000D02*
X27850000Y-35641000D01*
X22650000Y-28791000D02*
X22650000Y-31841000D01*
X25600000Y-28041000D02*
X25600000Y-28791000D01*
X25600000Y-28791000D02*
X22650000Y-28791000D01*
X21890000Y-35651000D02*
X27860000Y-35651000D01*
X27100000Y-31341000D02*
X27100000Y-32341000D01*
X25600000Y-35641000D02*
X25600000Y-34891000D01*
X138198000Y-37845000D02*
X134598000Y-37845000D01*
X134559522Y-37856522D02*
G75*
G03*
X136398000Y-42295000I1838478J-1838478D01*
G01*
X136398000Y-42295001D02*
G75*
G03*
X138236478Y-37856522I0J2600001D01*
G01*
X86908000Y-52223000D02*
X76668000Y-52223000D01*
X86908000Y-55354000D02*
X76668000Y-55354000D01*
X86908000Y-56864000D02*
X86908000Y-52223000D01*
X76668000Y-56864000D02*
X76668000Y-52223000D01*
X83638000Y-56864000D02*
X83638000Y-55354000D01*
X86908000Y-56864000D02*
X76668000Y-56864000D01*
X79937000Y-56864000D02*
X79937000Y-55354000D01*
X102130000Y-37774000D02*
X98530000Y-37774000D01*
X98491522Y-37785522D02*
G75*
G03*
X100330000Y-42224000I1838478J-1838478D01*
G01*
X100330000Y-42224001D02*
G75*
G03*
X102168478Y-37785522I0J2600001D01*
G01*
X71668000Y-56864000D02*
X61428000Y-56864000D01*
X61428000Y-56864000D02*
X61428000Y-52223000D01*
X71668000Y-52223000D02*
X61428000Y-52223000D01*
X64697000Y-56864000D02*
X64697000Y-55354000D01*
X68398000Y-56864000D02*
X68398000Y-55354000D01*
X71668000Y-55354000D02*
X61428000Y-55354000D01*
X71668000Y-56864000D02*
X71668000Y-52223000D01*
X100302635Y-49855000D02*
X100962000Y-49855000D01*
X100302635Y-49855000D02*
G75*
G03*
X100302635Y-49855000I-1750635J0D01*
G01*
X79819453Y-49855000D02*
X80478818Y-49855000D01*
X79819453Y-49855000D02*
G75*
G03*
X79819453Y-49855000I-1750635J0D01*
G01*
X45698000Y-41474000D02*
X49298000Y-41474000D01*
X49336478Y-41462478D02*
G75*
G03*
X47498000Y-37024000I-1838478J1838478D01*
G01*
X47498000Y-37023999D02*
G75*
G03*
X45659522Y-41462478I0J-2600001D01*
G01*
X144079000Y-32809000D02*
X144079000Y-29309000D01*
X144079000Y-34309000D02*
X143329000Y-34309000D01*
X149289000Y-36119000D02*
X149289000Y-25999000D01*
X143319000Y-36119000D02*
X149289000Y-36119000D01*
X143329000Y-32809000D02*
X144079000Y-32809000D01*
X148529000Y-26759000D02*
X148529000Y-31059000D01*
X143329000Y-34309000D02*
X143329000Y-36109000D01*
X144079000Y-29309000D02*
X143329000Y-29309000D01*
X143329000Y-29309000D02*
X143329000Y-32809000D01*
X143329000Y-26009000D02*
X143329000Y-27809000D01*
X143029000Y-36409000D02*
X144279000Y-36409000D01*
X143319000Y-25999000D02*
X143319000Y-36119000D01*
X145579000Y-26759000D02*
X148529000Y-26759000D01*
X148529000Y-35359000D02*
X148529000Y-31059000D01*
X145579000Y-26009000D02*
X145579000Y-26759000D01*
X144079000Y-36109000D02*
X144079000Y-34309000D01*
X145579000Y-36109000D02*
X145579000Y-35359000D01*
X149289000Y-25999000D02*
X143319000Y-25999000D01*
X143029000Y-35159000D02*
X143029000Y-36409000D01*
X143329000Y-27809000D02*
X144079000Y-27809000D01*
X144079000Y-26009000D02*
X143329000Y-26009000D01*
X144079000Y-27809000D02*
X144079000Y-26009000D01*
X145579000Y-35359000D02*
X148529000Y-35359000D01*
X143329000Y-36109000D02*
X144079000Y-36109000D01*
X131260000Y-42695000D02*
X127820000Y-42695000D01*
X129540000Y-40735000D02*
X129540000Y-42695000D01*
X131260000Y-51935000D02*
X131260000Y-42695000D01*
X129540000Y-53895000D02*
X129540000Y-51935000D01*
X127820000Y-42695000D02*
X127820000Y-51935000D01*
X127820000Y-51935000D02*
X131260000Y-51935000D01*
X67588000Y-22169000D02*
X69548000Y-22169000D01*
X80748000Y-22169000D02*
X78788000Y-22169000D01*
X78788000Y-20449000D02*
X69548000Y-20449000D01*
X69548000Y-23889000D02*
X78788000Y-23889000D01*
X69548000Y-20449000D02*
X69548000Y-23889000D01*
X78788000Y-23889000D02*
X78788000Y-20449000D01*
X92260000Y-51864000D02*
X95700000Y-51864000D01*
X92260000Y-42624000D02*
X92260000Y-51864000D01*
X95700000Y-42624000D02*
X92260000Y-42624000D01*
X93980000Y-53824000D02*
X93980000Y-51864000D01*
X95700000Y-51864000D02*
X95700000Y-42624000D01*
X93980000Y-40664000D02*
X93980000Y-42624000D01*
X107228000Y-56864000D02*
X107228000Y-52223000D01*
X107228000Y-56864000D02*
X96988000Y-56864000D01*
X107228000Y-55354000D02*
X96988000Y-55354000D01*
X107228000Y-52223000D02*
X96988000Y-52223000D01*
X96988000Y-56864000D02*
X96988000Y-52223000D01*
X100257000Y-56864000D02*
X100257000Y-55354000D01*
X103958000Y-56864000D02*
X103958000Y-55354000D01*
X66570000Y-37845000D02*
X62970000Y-37845000D01*
X64770000Y-42295001D02*
G75*
G03*
X66608478Y-37856522I0J2600001D01*
G01*
X62931522Y-37856522D02*
G75*
G03*
X64770000Y-42295000I1838478J-1838478D01*
G01*
X45188000Y-22169000D02*
X43228000Y-22169000D01*
X43228000Y-20449000D02*
X33988000Y-20449000D01*
X43228000Y-23889000D02*
X43228000Y-20449000D01*
X32028000Y-22169000D02*
X33988000Y-22169000D01*
X33988000Y-20449000D02*
X33988000Y-23889000D01*
X33988000Y-23889000D02*
X43228000Y-23889000D01*
X116818000Y-41474000D02*
X120418000Y-41474000D01*
X118618000Y-37023999D02*
G75*
G03*
X116779522Y-41462478I0J-2600001D01*
G01*
X120456478Y-41462478D02*
G75*
G03*
X118618000Y-37024000I-1838478J1838478D01*
G01*
X81258000Y-41474000D02*
X84858000Y-41474000D01*
X83058000Y-37023999D02*
G75*
G03*
X81219522Y-41462478I0J-2600001D01*
G01*
X84896478Y-41462478D02*
G75*
G03*
X83058000Y-37024000I-1838478J1838478D01*
G01*
X54356000Y-53824000D02*
X54356000Y-51864000D01*
X54356000Y-40664000D02*
X54356000Y-42624000D01*
X52636000Y-42624000D02*
X52636000Y-51864000D01*
X56076000Y-51864000D02*
X56076000Y-42624000D01*
X56076000Y-42624000D02*
X52636000Y-42624000D01*
X52636000Y-51864000D02*
X56076000Y-51864000D01*
X65244000Y-25689000D02*
X65088000Y-25689000D01*
X62928000Y-25689000D02*
X62772000Y-25689000D01*
X62928000Y-26208039D02*
G75*
G03*
X62928163Y-28290130I1080000J-1040961D01*
G01*
X62772484Y-25689000D02*
G75*
G03*
X62929392Y-28921335I1235517J-1560000D01*
G01*
X65087837Y-28290130D02*
G75*
G03*
X65088000Y-26208039I-1079837J1041130D01*
G01*
X65086608Y-28921335D02*
G75*
G03*
X65243516Y-25689000I-1078609J1672335D01*
G01*
X136207453Y-50363000D02*
X136866818Y-50363000D01*
X136207453Y-50363000D02*
G75*
G03*
X136207453Y-50363000I-1750635J0D01*
G01*
X41108000Y-56864000D02*
X41108000Y-52223000D01*
X51348000Y-56864000D02*
X41108000Y-56864000D01*
X51348000Y-52223000D02*
X41108000Y-52223000D01*
X51348000Y-55354000D02*
X41108000Y-55354000D01*
X51348000Y-56864000D02*
X51348000Y-52223000D01*
X44377000Y-56864000D02*
X44377000Y-55354000D01*
X48078000Y-56864000D02*
X48078000Y-55354000D01*
X58420000Y-53824000D02*
X58420000Y-51864000D01*
X60140000Y-51864000D02*
X60140000Y-42624000D01*
X56700000Y-42624000D02*
X56700000Y-51864000D01*
X58420000Y-40664000D02*
X58420000Y-42624000D01*
X56700000Y-51864000D02*
X60140000Y-51864000D01*
X60140000Y-42624000D02*
X56700000Y-42624000D01*
X115760548Y-50363000D02*
X115101183Y-50363000D01*
X119261818Y-50363000D02*
G75*
G03*
X119261818Y-50363000I-1750635J0D01*
G01*
X105108000Y-20449000D02*
X105108000Y-23889000D01*
X103148000Y-22169000D02*
X105108000Y-22169000D01*
X114348000Y-23889000D02*
X114348000Y-20449000D01*
X114348000Y-20449000D02*
X105108000Y-20449000D01*
X116308000Y-22169000D02*
X114348000Y-22169000D01*
X105108000Y-23889000D02*
X114348000Y-23889000D01*
X116268000Y-25689000D02*
X116112000Y-25689000D01*
X118584000Y-25689000D02*
X118428000Y-25689000D01*
X116112484Y-25689000D02*
G75*
G03*
X116269392Y-28921335I1235517J-1560000D01*
G01*
X118427837Y-28290130D02*
G75*
G03*
X118428000Y-26208039I-1079837J1041130D01*
G01*
X118426608Y-28921335D02*
G75*
G03*
X118583516Y-25689000I-1078609J1672335D01*
G01*
X116268000Y-26208039D02*
G75*
G03*
X116268163Y-28290130I1080000J-1040961D01*
G01*
X85368000Y-22169000D02*
X87328000Y-22169000D01*
X96568000Y-20449000D02*
X87328000Y-20449000D01*
X87328000Y-23889000D02*
X96568000Y-23889000D01*
X98528000Y-22169000D02*
X96568000Y-22169000D01*
X87328000Y-20449000D02*
X87328000Y-23889000D01*
X96568000Y-23889000D02*
X96568000Y-20449000D01*
X123756000Y-42624000D02*
X123756000Y-51864000D01*
X127196000Y-51864000D02*
X127196000Y-42624000D01*
X123756000Y-51864000D02*
X127196000Y-51864000D01*
X125476000Y-40664000D02*
X125476000Y-42624000D01*
X125476000Y-53824000D02*
X125476000Y-51864000D01*
X127196000Y-42624000D02*
X123756000Y-42624000D01*
X98488000Y-25689000D02*
X98332000Y-25689000D01*
X100804000Y-25689000D02*
X100648000Y-25689000D01*
X100646608Y-28921335D02*
G75*
G03*
X100803516Y-25689000I-1078609J1672335D01*
G01*
X98332484Y-25689000D02*
G75*
G03*
X98489392Y-28921335I1235517J-1560000D01*
G01*
X98488000Y-26208039D02*
G75*
G03*
X98488163Y-28290130I1080000J-1040961D01*
G01*
X100647837Y-28290130D02*
G75*
G03*
X100648000Y-26208039I-1079837J1041130D01*
G01*
X24428000Y-55907000D02*
X25678000Y-55907000D01*
X24728000Y-52307000D02*
X25478000Y-52307000D01*
X25478000Y-52307000D02*
X25478000Y-41307000D01*
X30688000Y-55617000D02*
X30688000Y-37997000D01*
X24728000Y-55607000D02*
X25478000Y-55607000D01*
X26978000Y-38757000D02*
X29928000Y-38757000D01*
X29928000Y-54857000D02*
X29928000Y-46807000D01*
X26978000Y-54857000D02*
X29928000Y-54857000D01*
X25478000Y-55607000D02*
X25478000Y-53807000D01*
X26978000Y-55607000D02*
X26978000Y-54857000D01*
X24728000Y-38007000D02*
X24728000Y-39807000D01*
X24728000Y-41307000D02*
X24728000Y-52307000D01*
X26978000Y-38007000D02*
X26978000Y-38757000D01*
X25478000Y-53807000D02*
X24728000Y-53807000D01*
X25478000Y-41307000D02*
X24728000Y-41307000D01*
X30688000Y-37997000D02*
X24718000Y-37997000D01*
X25478000Y-38007000D02*
X24728000Y-38007000D01*
X29928000Y-38757000D02*
X29928000Y-46807000D01*
X25478000Y-39807000D02*
X25478000Y-38007000D01*
X24728000Y-53807000D02*
X24728000Y-55607000D01*
X24728000Y-39807000D02*
X25478000Y-39807000D01*
X24718000Y-55617000D02*
X30688000Y-55617000D01*
X24718000Y-37997000D02*
X24718000Y-55617000D01*
X24428000Y-54657000D02*
X24428000Y-55907000D01*
X122888000Y-20449000D02*
X122888000Y-23889000D01*
X120928000Y-22169000D02*
X122888000Y-22169000D01*
X122888000Y-23889000D02*
X132128000Y-23889000D01*
X132128000Y-20449000D02*
X122888000Y-20449000D01*
X134088000Y-22169000D02*
X132128000Y-22169000D01*
X132128000Y-23889000D02*
X132128000Y-20449000D01*
X89916000Y-53824000D02*
X89916000Y-51864000D01*
X91636000Y-51864000D02*
X91636000Y-42624000D01*
X89916000Y-40664000D02*
X89916000Y-42624000D01*
X88196000Y-42624000D02*
X88196000Y-51864000D01*
X88196000Y-51864000D02*
X91636000Y-51864000D01*
X91636000Y-42624000D02*
X88196000Y-42624000D01*
X44259453Y-49855000D02*
X44918818Y-49855000D01*
X44259453Y-49855000D02*
G75*
G03*
X44259453Y-49855000I-1750635J0D01*
G01*
X45148000Y-25689000D02*
X44992000Y-25689000D01*
X47464000Y-25689000D02*
X47308000Y-25689000D01*
X47307837Y-28290130D02*
G75*
G03*
X47308000Y-26208039I-1079837J1041130D01*
G01*
X44992484Y-25689000D02*
G75*
G03*
X45149392Y-28921335I1235517J-1560000D01*
G01*
X45148000Y-26208039D02*
G75*
G03*
X45148163Y-28290130I1080000J-1040961D01*
G01*
X47306608Y-28921335D02*
G75*
G03*
X47463516Y-25689000I-1078609J1672335D01*
G01*
X64996635Y-49855000D02*
X65656000Y-49855000D01*
X64996635Y-49855000D02*
G75*
G03*
X64996635Y-49855000I-1750635J0D01*
G01*
X83024000Y-25689000D02*
X82868000Y-25689000D01*
X80708000Y-25689000D02*
X80552000Y-25689000D01*
X82867837Y-28290130D02*
G75*
G03*
X82868000Y-26208039I-1079837J1041130D01*
G01*
X80708000Y-26208039D02*
G75*
G03*
X80708163Y-28290130I1080000J-1040961D01*
G01*
X82866608Y-28921335D02*
G75*
G03*
X83023516Y-25689000I-1078609J1672335D01*
G01*
X80552484Y-25689000D02*
G75*
G03*
X80709392Y-28921335I1235517J-1560000D01*
G01*
M02*
