M48
INCH,TZ
T1C0.0236
T2C0.0295
T3C0.0315
T4C0.0354
T5C0.0374
T6C0.0394
T7C0.0433
%
G90
G05
T1
X15000Y-25228
X21400Y-25228
X23000Y-25228
X29200Y-25228
X35400Y-25228
X37000Y-25228
X43200Y-25228
X49400Y-25228
X51000Y-25228
T2
X18200Y-15600
X18700Y-15600
X19200Y-15600
X25000Y-15628
X25500Y-15628
X26000Y-15628
X32200Y-15600
X32700Y-15600
X33200Y-15600
X39000Y-15600
X39500Y-15600
X40000Y-15600
X46200Y-15600
X46700Y-15600
X47200Y-15600
X53200Y-15628
X53700Y-15628
X54200Y-15628
T3
X12200Y-8728
X18200Y-8728
X19200Y-8728
X21400Y-15600
X21400Y-21600
X23000Y-15600
X23000Y-21600
X25200Y-8728
X26200Y-8728
X32200Y-8728
X33200Y-8728
X35400Y-15600
X35400Y-21600
X37000Y-15600
X37000Y-21600
X39200Y-8728
X40200Y-8728
X46200Y-8728
X47200Y-8728
X49400Y-15600
X49400Y-21600
X51000Y-15628
X51000Y-21628
X53200Y-8728
T4
X18200Y-10228
X18200Y-11228
X25200Y-10228
X25200Y-11228
X32200Y-10228
X32200Y-11228
X39200Y-10228
X39200Y-11228
X46200Y-10228
X46200Y-11228
X53200Y-10228
X53200Y-11228
T5
X10700Y-15967
X10700Y-16952
X10700Y-17936
X10700Y-18920
X10700Y-19904
X10700Y-20889
X57393Y-11244
X57393Y-12228
X57393Y-13212
T6
X10000Y-12044
X10000Y-13028
T7
X16736Y-19628
X17200Y-21100
X18200Y-21100
X18236Y-19628
X19200Y-21100
X24900Y-19628
X25200Y-21100
X26200Y-21100
X26400Y-19628
X27200Y-21100
X30736Y-19628
X31200Y-21100
X32200Y-21100
X32236Y-19628
X33200Y-21100
X38800Y-19628
X39200Y-21100
X40200Y-21100
X40300Y-19628
X41200Y-21100
X44764Y-19828
X45200Y-21228
X46200Y-21228
X46264Y-19828
X47200Y-21228
X52936Y-19828
X53200Y-21228
X54200Y-21228
X54436Y-19828
X55200Y-21228
T0
M30
